<svg id="svg" version="1.1" xmlns="http://www.w3.org/2000/svg" xmlns:xlink="http://www.w3.org/1999/xlink" width="400" height="400" viewBox="0, 0, 400,400"><g id="svgg"><path id="path0" d="M0.000 200.000 L 0.000 400.000 200.000 400.000 L 400.000 400.000 400.000 200.000 L 400.000 0.000 200.000 0.000 L 0.000 0.000 0.000 200.000 M204.254 121.424 C 205.985 121.987,207.760 122.614,208.200 122.817 C 209.195 123.276,217.204 125.905,222.800 127.610 C 226.630 128.777,229.371 129.704,235.600 131.937 C 236.810 132.371,241.040 133.750,245.000 135.002 C 248.960 136.253,253.370 137.703,254.800 138.224 C 257.733 139.292,264.402 141.478,272.400 143.992 C 275.370 144.926,278.160 145.828,278.600 145.997 C 279.040 146.166,280.120 146.584,281.000 146.926 C 281.880 147.268,284.040 148.007,285.800 148.569 C 294.546 151.361,302.700 154.126,303.598 154.603 C 304.149 154.896,305.410 155.436,306.400 155.803 C 309.209 156.846,309.200 156.828,309.200 161.646 C 309.200 166.846,310.128 166.031,300.400 169.379 C 296.330 170.780,292.010 172.281,290.800 172.713 C 288.915 173.387,284.495 174.807,279.200 176.441 C 276.883 177.156,271.042 179.217,270.400 179.547 C 270.070 179.716,267.910 180.449,265.600 181.175 C 255.254 184.425,242.156 188.911,241.710 189.356 C 241.576 189.490,241.113 189.600,240.680 189.600 C 239.916 189.600,225.412 194.344,223.000 195.382 C 222.340 195.667,219.910 196.476,217.600 197.182 C 215.290 197.887,211.870 199.007,210.000 199.671 C 208.130 200.335,205.970 201.057,205.200 201.276 C 204.430 201.495,203.629 201.838,203.420 202.037 C 203.211 202.237,202.714 202.400,202.315 202.400 C 201.916 202.400,201.248 202.613,200.832 202.873 C 200.234 203.246,199.667 203.209,198.137 202.695 C 197.072 202.338,192.714 200.865,188.454 199.422 C 184.194 197.980,180.399 196.800,180.021 196.800 C 179.643 196.800,179.210 196.677,179.059 196.526 C 178.724 196.191,177.963 195.921,167.400 192.394 C 158.044 189.270,156.838 188.855,148.000 185.708 C 144.590 184.493,141.387 183.410,140.883 183.300 C 138.887 182.865,139.689 182.326,145.800 179.996 C 148.220 179.073,150.963 177.976,151.896 177.559 C 152.828 177.141,153.709 176.800,153.852 176.800 C 154.092 176.800,156.866 175.577,158.487 174.757 C 158.865 174.566,160.755 173.865,162.687 173.199 C 164.619 172.533,168.000 171.249,170.200 170.346 C 172.400 169.442,174.650 168.525,175.200 168.309 C 175.750 168.093,176.740 167.680,177.400 167.392 C 178.060 167.104,180.850 166.113,183.600 165.191 C 186.350 164.270,189.140 163.282,189.800 162.997 C 190.460 162.712,192.350 161.988,194.000 161.389 C 202.303 158.372,203.977 157.387,205.015 154.903 C 208.019 147.714,198.636 144.748,189.505 150.000 C 189.123 150.220,188.484 150.400,188.085 150.400 C 187.686 150.400,187.189 150.555,186.980 150.745 C 186.771 150.935,184.800 151.663,182.600 152.364 C 178.818 153.567,176.596 154.409,175.172 155.178 C 174.826 155.364,173.116 156.091,171.372 156.793 C 169.627 157.495,167.840 158.229,167.400 158.424 C 166.960 158.619,164.800 159.389,162.600 160.134 C 158.771 161.432,156.075 162.474,152.600 163.999 C 150.558 164.895,147.502 166.136,142.800 167.980 C 137.623 170.010,134.435 171.521,132.400 172.910 C 131.085 173.807,130.101 174.152,128.744 174.190 C 127.052 174.237,126.671 174.451,124.408 176.621 C 119.601 181.230,117.337 186.513,115.774 196.765 C 114.899 202.504,114.939 202.777,116.943 204.744 C 121.465 209.182,121.783 215.300,117.717 219.647 L 115.890 221.600 116.130 224.100 C 116.262 225.475,116.645 229.030,116.980 232.000 C 119.137 251.080,116.839 262.459,109.330 269.890 C 104.256 274.911,100.368 275.630,94.302 272.666 C 90.580 270.847,90.700 271.175,90.870 263.343 L 91.000 257.376 93.823 253.188 C 99.616 244.594,102.472 237.317,104.143 226.890 C 104.729 223.231,104.730 223.234,102.331 221.481 C 96.186 216.988,97.035 206.290,103.840 202.482 C 104.363 202.189,104.707 200.868,105.281 196.948 C 106.489 188.688,108.430 181.665,110.505 178.041 C 112.738 174.142,112.781 173.600,110.856 173.600 C 110.253 173.600,109.589 173.448,109.380 173.262 C 109.171 173.076,107.830 172.508,106.400 172.000 C 104.970 171.492,103.629 170.924,103.420 170.738 C 103.211 170.552,102.714 170.400,102.315 170.400 C 101.916 170.400,101.277 170.228,100.895 170.019 C 100.513 169.809,98.310 169.064,96.000 168.363 C 90.739 166.767,90.800 166.846,90.800 161.600 C 90.800 156.743,90.982 156.344,93.600 155.460 C 94.590 155.125,97.019 154.210,98.997 153.426 C 100.976 152.642,102.823 152.000,103.103 152.000 C 103.382 152.000,103.923 151.833,104.305 151.629 C 104.687 151.424,106.170 150.886,107.600 150.431 C 115.384 147.958,117.520 147.231,120.600 146.008 C 121.040 145.833,123.830 144.922,126.800 143.984 C 136.897 140.795,141.798 139.187,142.600 138.803 C 143.521 138.362,148.264 136.795,156.000 134.377 C 160.796 132.877,166.305 130.981,168.600 130.039 C 169.040 129.859,170.030 129.529,170.800 129.307 C 175.612 127.919,185.688 124.654,190.400 122.955 C 192.050 122.360,194.300 121.554,195.400 121.165 C 198.211 120.169,200.615 120.239,204.254 121.424 M273.637 195.743 C 273.657 197.094,273.651 204.680,273.624 212.600 L 273.575 227.000 272.253 229.805 C 270.139 234.286,264.718 239.124,258.255 242.295 C 254.605 244.086,244.473 248.000,243.487 248.000 C 243.135 248.000,242.748 248.160,242.627 248.356 C 242.506 248.551,241.821 248.804,241.104 248.916 C 240.387 249.029,238.540 249.419,237.000 249.783 C 231.366 251.115,225.205 251.949,214.400 252.841 C 207.684 253.395,182.772 253.096,178.000 252.404 C 171.435 251.451,165.373 250.420,162.600 249.783 C 161.060 249.429,159.350 249.049,158.800 248.940 C 158.250 248.830,157.440 248.588,157.000 248.403 C 156.560 248.218,155.840 247.979,155.400 247.872 C 150.259 246.621,141.129 242.635,136.800 239.754 C 130.120 235.306,129.996 235.114,131.677 231.802 C 135.993 223.294,135.429 215.524,130.003 208.748 C 128.884 207.351,128.830 207.087,128.563 201.702 C 128.141 193.175,128.114 193.210,133.679 195.169 C 135.506 195.812,138.530 196.812,140.400 197.390 C 142.270 197.969,144.340 198.681,145.000 198.973 C 145.660 199.265,147.730 200.000,149.600 200.607 C 151.470 201.213,153.360 201.848,153.800 202.019 C 154.240 202.189,155.860 202.726,157.400 203.212 C 158.940 203.698,160.613 204.254,161.119 204.448 C 161.624 204.641,162.367 204.800,162.770 204.800 C 163.383 204.800,167.560 206.297,170.600 207.606 C 171.040 207.796,173.740 208.678,176.600 209.567 C 183.859 211.823,183.921 211.842,186.600 212.593 C 187.920 212.963,189.591 213.521,190.314 213.833 C 191.036 214.145,191.945 214.400,192.334 214.400 C 192.722 214.400,193.211 214.560,193.420 214.756 C 195.424 216.632,203.776 216.632,205.780 214.756 C 205.989 214.560,206.478 214.400,206.866 214.400 C 207.255 214.400,208.164 214.147,208.886 213.838 C 209.609 213.530,210.920 213.084,211.800 212.849 C 217.544 211.313,229.193 207.611,231.400 206.620 C 232.060 206.324,233.500 205.799,234.600 205.454 C 237.367 204.586,252.871 199.455,255.800 198.438 C 263.894 195.628,272.645 192.919,273.086 193.088 C 273.422 193.217,273.613 194.138,273.637 195.743 " stroke="none" fill="#fbfbfb" fill-rule="evenodd"></path><path id="path1" d="M195.400 121.165 C 194.300 121.554,192.050 122.360,190.400 122.955 C 185.688 124.654,175.612 127.919,170.800 129.307 C 170.030 129.529,169.040 129.859,168.600 130.039 C 166.305 130.981,160.796 132.877,156.000 134.377 C 148.264 136.795,143.521 138.362,142.600 138.803 C 141.798 139.187,136.897 140.795,126.800 143.984 C 123.830 144.922,121.040 145.833,120.600 146.008 C 117.520 147.231,115.384 147.958,107.600 150.431 C 106.170 150.886,104.687 151.424,104.305 151.629 C 103.923 151.833,103.382 152.000,103.103 152.000 C 102.823 152.000,100.976 152.642,98.997 153.426 C 97.019 154.210,94.590 155.125,93.600 155.460 C 90.982 156.344,90.800 156.743,90.800 161.600 C 90.800 166.846,90.739 166.767,96.000 168.363 C 98.310 169.064,100.513 169.809,100.895 170.019 C 101.277 170.228,101.916 170.400,102.315 170.400 C 102.714 170.400,103.211 170.552,103.420 170.738 C 103.629 170.924,104.970 171.493,106.400 172.003 C 107.830 172.513,109.180 173.058,109.400 173.215 C 110.171 173.763,113.472 173.982,122.000 174.052 L 130.600 174.122 132.400 172.902 C 134.441 171.518,137.648 170.000,142.800 167.980 C 147.502 166.136,150.558 164.895,152.600 163.999 C 156.075 162.474,158.771 161.432,162.600 160.134 C 164.800 159.389,166.960 158.619,167.400 158.424 C 167.840 158.229,169.627 157.495,171.372 156.793 C 173.116 156.091,174.826 155.364,175.172 155.178 C 176.596 154.409,178.818 153.567,182.600 152.364 C 184.800 151.663,186.771 150.935,186.980 150.745 C 187.189 150.555,187.686 150.400,188.085 150.400 C 188.484 150.400,189.123 150.220,189.505 150.000 C 198.636 144.748,208.019 147.714,205.015 154.903 C 203.977 157.387,202.303 158.372,194.000 161.389 C 192.350 161.988,190.460 162.712,189.800 162.997 C 189.140 163.282,186.350 164.270,183.600 165.191 C 180.850 166.113,178.060 167.104,177.400 167.392 C 176.740 167.680,175.750 168.093,175.200 168.309 C 174.650 168.525,172.400 169.442,170.200 170.346 C 168.000 171.249,164.619 172.533,162.687 173.199 C 160.755 173.865,158.865 174.566,158.487 174.757 C 156.866 175.577,154.092 176.800,153.852 176.800 C 153.709 176.800,152.828 177.141,151.896 177.559 C 150.963 177.976,148.220 179.073,145.800 179.996 C 139.689 182.326,138.887 182.865,140.883 183.300 C 141.387 183.410,144.590 184.493,148.000 185.708 C 156.838 188.855,158.044 189.270,167.400 192.394 C 177.963 195.921,178.724 196.191,179.059 196.526 C 179.210 196.677,179.643 196.800,180.021 196.800 C 180.399 196.800,184.194 197.980,188.454 199.422 C 192.714 200.865,197.072 202.338,198.137 202.695 C 199.667 203.209,200.234 203.246,200.832 202.873 C 201.248 202.613,201.916 202.400,202.315 202.400 C 202.714 202.400,203.211 202.237,203.420 202.037 C 203.629 201.838,204.430 201.495,205.200 201.276 C 205.970 201.057,208.130 200.335,210.000 199.671 C 211.870 199.007,215.290 197.887,217.600 197.182 C 219.910 196.476,222.340 195.667,223.000 195.382 C 225.412 194.344,239.916 189.600,240.680 189.600 C 241.113 189.600,241.576 189.490,241.710 189.356 C 242.156 188.911,255.254 184.425,265.600 181.175 C 267.910 180.449,270.070 179.716,270.400 179.547 C 271.042 179.217,276.883 177.156,279.200 176.441 C 284.495 174.807,288.915 173.387,290.800 172.713 C 292.010 172.281,296.330 170.780,300.400 169.379 C 310.128 166.031,309.200 166.846,309.200 161.646 C 309.200 156.828,309.209 156.846,306.400 155.803 C 305.410 155.436,304.149 154.896,303.598 154.603 C 302.700 154.126,294.546 151.361,285.800 148.569 C 284.040 148.007,281.880 147.268,281.000 146.926 C 280.120 146.584,279.040 146.166,278.600 145.997 C 278.160 145.828,275.370 144.926,272.400 143.992 C 264.402 141.478,257.733 139.292,254.800 138.224 C 253.370 137.703,248.960 136.253,245.000 135.002 C 241.040 133.750,236.810 132.371,235.600 131.937 C 229.371 129.704,226.630 128.777,222.800 127.610 C 217.204 125.905,209.195 123.276,208.200 122.817 C 203.327 120.569,198.749 119.978,195.400 121.165 M265.386 195.248 C 261.434 196.544,257.120 197.980,255.800 198.438 C 252.871 199.455,237.367 204.586,234.600 205.454 C 233.500 205.799,232.060 206.324,231.400 206.620 C 229.193 207.611,217.544 211.313,211.800 212.849 C 210.920 213.084,209.609 213.530,208.886 213.838 C 208.164 214.147,207.255 214.400,206.866 214.400 C 206.478 214.400,205.989 214.560,205.780 214.756 C 203.776 216.632,195.424 216.632,193.420 214.756 C 193.211 214.560,192.722 214.400,192.334 214.400 C 191.945 214.400,191.036 214.145,190.314 213.833 C 189.591 213.521,187.920 212.963,186.600 212.593 C 183.921 211.842,183.859 211.823,176.600 209.567 C 173.740 208.678,171.040 207.796,170.600 207.606 C 167.560 206.297,163.383 204.800,162.770 204.800 C 162.367 204.800,161.624 204.641,161.119 204.448 C 160.613 204.254,158.940 203.698,157.400 203.212 C 155.860 202.726,154.240 202.189,153.800 202.019 C 153.360 201.848,151.470 201.213,149.600 200.607 C 147.730 200.000,145.660 199.265,145.000 198.973 C 144.340 198.681,142.270 197.969,140.400 197.390 C 138.530 196.812,135.506 195.812,133.679 195.169 C 128.114 193.210,128.141 193.175,128.563 201.702 C 128.830 207.087,128.884 207.351,130.003 208.748 C 135.429 215.524,135.993 223.294,131.677 231.802 C 129.996 235.114,130.120 235.306,136.800 239.754 C 141.129 242.635,150.259 246.621,155.400 247.872 C 155.840 247.979,156.560 248.218,157.000 248.403 C 157.440 248.588,158.250 248.830,158.800 248.940 C 159.350 249.049,161.060 249.429,162.600 249.783 C 165.373 250.420,171.435 251.451,178.000 252.404 C 191.390 254.346,223.792 252.907,237.000 249.783 C 238.540 249.419,240.387 249.029,241.104 248.916 C 241.821 248.804,242.506 248.551,242.627 248.356 C 242.748 248.160,243.135 248.000,243.487 248.000 C 244.473 248.000,254.605 244.086,258.255 242.295 C 264.718 239.124,270.139 234.286,272.253 229.805 L 273.575 227.000 273.624 212.600 C 273.690 193.273,273.691 193.321,273.086 193.088 C 272.803 192.980,269.338 193.952,265.386 195.248 " stroke="none" fill="#25258c" fill-rule="evenodd"></path><path id="path2" d="M112.051 175.100 C 111.816 175.705,111.187 176.937,110.653 177.837 C 108.468 181.523,106.527 188.427,105.281 196.948 C 104.707 200.868,104.363 202.189,103.840 202.482 C 97.035 206.290,96.186 216.988,102.331 221.481 C 104.730 223.234,104.729 223.231,104.143 226.890 C 102.472 237.317,99.616 244.594,93.823 253.188 L 91.000 257.376 90.870 263.343 C 90.700 271.175,90.580 270.847,94.302 272.666 C 100.368 275.630,104.256 274.911,109.330 269.890 C 116.839 262.459,119.137 251.080,116.980 232.000 C 116.645 229.030,116.262 225.475,116.130 224.100 L 115.890 221.600 117.717 219.647 C 121.783 215.300,121.465 209.182,116.943 204.744 C 114.939 202.777,114.899 202.504,115.774 196.765 C 117.356 186.384,119.639 181.126,124.581 176.477 L 127.215 174.000 119.847 174.000 L 112.478 174.000 112.051 175.100 " stroke="none" fill="#e4b428" fill-rule="evenodd"></path></g></svg>