<svg id="svg" version="1.1" xmlns="http://www.w3.org/2000/svg" xmlns:xlink="http://www.w3.org/1999/xlink" width="400" height="400" viewBox="0, 0, 400,400"><g id="svgg"><path id="path0" d="M194.400 69.200 C 193.630 69.622,192.532 69.974,191.960 69.983 C 191.387 69.992,190.073 70.450,189.038 71.000 C 188.004 71.550,186.610 72.000,185.941 72.000 C 185.271 72.000,184.246 72.333,183.662 72.739 C 183.078 73.146,181.702 73.699,180.605 73.969 C 179.508 74.239,178.428 74.607,178.205 74.787 C 177.982 74.967,176.630 75.477,175.200 75.920 C 173.770 76.364,172.060 76.914,171.400 77.143 C 169.001 77.975,164.123 79.534,160.800 80.530 C 158.930 81.090,156.230 81.933,154.800 82.402 C 153.370 82.872,151.179 83.494,149.930 83.784 C 148.682 84.075,147.247 84.602,146.741 84.956 C 146.236 85.310,145.360 85.600,144.796 85.600 C 144.231 85.600,143.066 85.958,142.207 86.396 C 141.348 86.834,140.005 87.309,139.222 87.452 C 138.440 87.594,137.170 88.037,136.400 88.435 C 135.630 88.833,134.190 89.422,133.200 89.744 C 131.159 90.407,122.319 93.340,119.600 94.256 C 117.860 94.842,115.455 95.546,109.630 97.174 C 108.106 97.600,106.315 98.230,105.649 98.574 C 104.984 98.918,104.089 99.200,103.660 99.200 C 103.231 99.200,101.917 99.648,100.740 100.196 C 99.563 100.744,98.277 101.194,97.882 101.196 C 97.487 101.198,96.318 101.650,95.285 102.200 C 94.252 102.750,92.991 103.200,92.482 103.200 C 91.974 103.200,90.893 103.537,90.079 103.948 C 88.646 104.673,86.117 105.523,78.600 107.806 C 76.620 108.408,73.740 109.320,72.200 109.833 C 70.660 110.346,68.680 110.887,67.800 111.035 C 66.920 111.183,66.003 111.459,65.763 111.649 C 65.253 112.051,60.359 113.781,57.222 114.668 C 56.024 115.007,54.674 115.522,54.222 115.812 C 53.770 116.103,52.680 116.466,51.800 116.619 C 50.920 116.772,49.639 117.235,48.953 117.649 C 48.267 118.062,47.320 118.400,46.848 118.400 C 46.377 118.400,45.228 118.737,44.296 119.148 C 43.363 119.560,40.710 120.486,38.400 121.206 C 36.090 121.927,33.120 122.916,31.800 123.405 C 30.480 123.894,28.686 124.423,27.814 124.581 C 26.941 124.739,25.705 125.139,25.066 125.469 C 24.427 125.800,23.071 126.313,22.052 126.609 C 19.925 127.229,15.688 128.784,13.513 129.744 C 12.695 130.105,11.705 130.401,11.313 130.401 C 10.921 130.402,10.045 130.741,9.367 131.155 C 8.688 131.569,7.518 132.039,6.767 132.200 C 6.015 132.361,4.950 132.744,4.400 133.051 C 3.850 133.358,2.680 133.851,1.800 134.145 L 0.200 134.680 0.093 144.089 L -0.014 153.497 1.093 153.886 C 1.702 154.100,4.000 154.843,6.200 155.539 C 12.639 157.573,19.170 159.803,23.508 161.449 C 24.887 161.972,26.291 162.400,26.626 162.400 C 26.962 162.400,28.082 162.850,29.115 163.400 C 30.148 163.950,31.376 164.400,31.843 164.400 C 32.310 164.400,33.170 164.776,33.754 165.236 C 35.528 166.631,38.769 166.923,53.974 167.058 C 63.119 167.140,68.700 167.340,68.954 167.594 C 69.510 168.150,70.109 168.104,71.454 167.402 C 72.084 167.074,72.884 166.804,73.230 166.802 C 73.577 166.801,74.283 166.350,74.800 165.800 C 75.317 165.250,75.943 164.800,76.192 164.800 C 76.441 164.800,77.265 164.337,78.022 163.772 C 78.780 163.207,79.963 162.505,80.651 162.213 C 81.339 161.921,82.025 161.483,82.175 161.241 C 82.325 160.998,82.749 160.800,83.118 160.800 C 83.487 160.800,84.691 160.373,85.794 159.851 C 88.418 158.610,90.952 157.561,95.600 155.793 C 97.690 154.998,100.170 153.999,101.111 153.574 C 102.052 153.148,103.194 152.800,103.649 152.800 C 104.104 152.800,104.954 152.464,105.538 152.052 C 106.122 151.641,107.050 151.173,107.600 151.012 C 108.578 150.725,110.356 149.943,114.806 147.842 C 116.019 147.269,117.279 146.799,117.606 146.797 C 117.933 146.796,118.740 146.437,119.400 146.000 C 120.060 145.563,120.867 145.204,121.194 145.203 C 121.521 145.201,122.691 144.775,123.794 144.254 C 124.897 143.734,127.420 142.808,129.400 142.195 C 131.380 141.582,134.030 140.658,135.288 140.140 C 136.546 139.623,137.972 139.200,138.456 139.200 C 138.941 139.200,139.660 138.908,140.054 138.551 C 140.448 138.194,141.600 137.747,142.614 137.558 C 143.627 137.369,144.902 136.863,145.447 136.434 C 145.992 136.006,147.014 135.529,147.719 135.376 C 148.423 135.222,149.413 134.772,149.919 134.376 C 150.424 133.979,151.414 133.530,152.119 133.378 C 152.823 133.225,153.850 132.785,154.400 132.400 C 154.950 132.015,156.030 131.565,156.800 131.400 C 157.570 131.235,158.830 130.782,159.600 130.394 C 160.370 130.005,161.630 129.470,162.400 129.205 C 163.170 128.940,165.834 128.020,168.319 127.161 C 170.805 126.303,173.106 125.600,173.432 125.600 C 173.759 125.600,174.915 125.150,176.000 124.600 C 177.085 124.050,178.405 123.600,178.933 123.600 C 179.460 123.600,180.342 123.246,180.891 122.814 C 181.441 122.382,182.720 121.842,183.734 121.615 C 184.749 121.387,186.168 120.842,186.889 120.402 C 187.610 119.963,188.520 119.602,188.912 119.601 C 189.304 119.601,190.693 119.150,192.000 118.600 C 195.687 117.048,202.870 117.108,204.882 118.706 C 208.945 121.935,211.050 125.367,210.670 128.141 C 210.079 132.454,206.721 137.251,203.628 138.201 C 203.093 138.365,202.103 138.837,201.428 139.248 C 200.752 139.660,199.782 139.998,199.271 139.999 C 198.760 139.999,197.590 140.430,196.671 140.955 C 195.752 141.481,194.360 142.022,193.578 142.159 C 192.795 142.295,191.452 142.766,190.593 143.204 C 189.734 143.642,188.692 144.000,188.279 144.000 C 187.865 144.000,187.069 144.360,186.509 144.800 C 185.950 145.240,185.129 145.600,184.686 145.600 C 184.243 145.600,182.962 146.026,181.840 146.546 C 180.718 147.066,178.900 147.798,177.800 148.173 C 176.700 148.548,174.090 149.471,172.000 150.223 C 169.910 150.976,167.930 151.595,167.600 151.600 C 167.270 151.604,166.100 152.050,165.000 152.591 C 163.900 153.132,162.437 153.581,161.749 153.587 C 161.061 153.594,160.274 153.869,160.001 154.199 C 159.728 154.528,158.595 155.067,157.484 155.397 C 156.373 155.727,155.071 156.255,154.590 156.570 C 154.110 156.884,153.067 157.264,152.273 157.413 C 151.478 157.562,150.624 157.930,150.374 158.231 C 150.124 158.532,149.263 158.895,148.460 159.038 C 147.657 159.181,146.460 159.615,145.800 160.003 C 145.140 160.391,144.150 160.838,143.600 160.995 C 143.050 161.153,141.700 161.696,140.600 162.203 C 139.500 162.710,137.250 163.600,135.600 164.182 C 133.950 164.763,131.700 165.611,130.600 166.065 C 129.500 166.520,127.836 167.022,126.902 167.182 C 125.968 167.342,124.888 167.750,124.502 168.089 C 124.116 168.428,123.350 168.831,122.800 168.985 C 122.250 169.139,120.900 169.678,119.800 170.181 C 118.700 170.685,116.810 171.510,115.600 172.013 C 114.390 172.517,112.590 173.300,111.600 173.754 C 110.610 174.208,108.900 174.913,107.800 175.320 C 106.700 175.727,104.900 176.393,103.800 176.800 C 102.700 177.207,99.910 178.271,97.600 179.164 C 95.290 180.057,92.995 180.790,92.500 180.794 C 91.471 180.801,89.873 182.218,90.106 182.917 C 90.191 183.174,91.688 183.857,93.431 184.435 C 95.174 185.013,97.500 185.796,98.600 186.175 C 99.700 186.554,101.590 187.164,102.800 187.532 C 104.010 187.899,105.445 188.515,105.989 188.900 C 106.533 189.285,107.468 189.600,108.068 189.600 C 108.667 189.600,110.004 190.050,111.038 190.600 C 112.073 191.150,113.234 191.600,113.620 191.600 C 114.005 191.600,115.283 192.048,116.460 192.596 C 117.637 193.144,118.960 193.595,119.400 193.598 C 119.840 193.601,120.772 193.952,121.471 194.378 C 122.170 194.804,123.430 195.267,124.271 195.407 C 125.112 195.547,126.700 195.987,127.800 196.386 C 128.900 196.784,131.960 197.781,134.600 198.600 C 137.240 199.420,139.940 200.322,140.600 200.603 C 141.260 200.885,142.430 201.244,143.200 201.401 C 143.970 201.558,145.161 202.027,145.847 202.443 C 146.533 202.859,147.523 203.202,148.047 203.204 C 148.571 203.206,149.900 203.650,151.000 204.191 C 152.100 204.732,153.387 205.181,153.860 205.187 C 154.333 205.194,155.683 205.648,156.860 206.196 C 158.037 206.744,159.323 207.194,159.718 207.196 C 160.113 207.198,161.282 207.650,162.315 208.200 C 163.348 208.750,164.735 209.204,165.397 209.209 C 166.059 209.214,167.341 209.554,168.246 209.965 C 169.152 210.376,170.502 210.839,171.246 210.993 C 171.991 211.147,174.670 211.994,177.200 212.876 C 179.730 213.758,182.923 214.799,184.296 215.188 C 185.669 215.577,187.019 216.083,187.296 216.312 C 187.573 216.541,188.520 216.856,189.400 217.013 C 190.280 217.169,191.540 217.620,192.200 218.015 C 192.860 218.410,194.120 218.855,195.000 219.004 C 195.880 219.153,197.088 219.618,197.684 220.037 C 199.064 221.009,200.288 221.000,201.794 220.008 C 202.450 219.575,203.750 219.107,204.681 218.967 C 205.612 218.827,206.569 218.478,206.807 218.192 C 207.045 217.905,208.176 217.448,209.320 217.176 C 210.464 216.905,212.027 216.349,212.794 215.941 C 213.561 215.533,214.591 215.200,215.083 215.200 C 215.576 215.200,216.748 214.856,217.689 214.436 C 218.630 214.016,221.290 213.095,223.600 212.391 C 225.910 211.687,228.929 210.681,230.308 210.155 C 231.687 209.630,233.217 209.198,233.708 209.196 C 234.199 209.194,235.563 208.744,236.740 208.196 C 237.917 207.648,239.228 207.200,239.653 207.200 C 240.078 207.200,241.315 206.750,242.400 206.200 C 243.485 205.650,244.784 205.199,245.287 205.199 C 245.789 205.198,246.772 204.848,247.471 204.422 C 248.170 203.996,249.430 203.527,250.271 203.379 C 251.112 203.232,252.350 202.798,253.023 202.415 C 253.695 202.032,254.929 201.590,255.763 201.433 C 256.598 201.277,257.847 200.907,258.540 200.612 C 259.233 200.317,261.690 199.494,264.000 198.784 C 266.310 198.073,269.425 197.066,270.923 196.546 C 272.420 196.026,274.040 195.598,274.523 195.596 C 275.005 195.594,276.363 195.144,277.540 194.596 C 278.717 194.048,280.085 193.600,280.580 193.600 C 281.076 193.600,282.327 193.150,283.362 192.600 C 284.396 192.050,285.638 191.594,286.121 191.587 C 286.605 191.581,287.900 191.132,289.000 190.591 C 290.100 190.050,291.411 189.606,291.914 189.604 C 292.417 189.602,293.261 189.317,293.789 188.970 C 294.318 188.624,295.616 188.094,296.675 187.793 C 297.734 187.492,300.670 186.546,303.200 185.690 C 308.993 183.731,314.188 182.145,316.000 181.783 C 316.770 181.628,318.068 181.164,318.884 180.751 C 319.700 180.338,320.834 180.000,321.402 180.000 C 321.971 180.000,323.282 179.550,324.315 179.000 C 325.348 178.450,326.645 177.994,327.197 177.988 C 327.749 177.981,328.920 177.532,329.800 176.990 C 330.680 176.448,331.850 176.003,332.400 176.001 C 332.950 175.999,333.944 175.665,334.608 175.260 C 335.273 174.855,336.507 174.394,337.351 174.235 C 338.196 174.077,339.632 173.614,340.543 173.206 C 341.455 172.799,343.640 172.020,345.400 171.477 C 347.160 170.933,350.040 170.037,351.800 169.486 C 353.560 168.934,355.630 168.350,356.400 168.188 C 357.170 168.026,358.427 167.557,359.194 167.147 C 359.961 166.736,361.131 166.394,361.794 166.387 C 362.457 166.381,363.900 165.932,365.000 165.391 C 366.100 164.850,367.342 164.406,367.760 164.404 C 368.178 164.402,369.438 163.970,370.560 163.444 C 373.073 162.266,375.747 161.279,382.600 159.001 C 383.700 158.635,385.410 158.012,386.400 157.616 C 387.390 157.220,388.920 156.708,389.800 156.477 C 391.475 156.039,395.407 154.773,398.300 153.740 L 400.000 153.134 400.000 144.020 L 400.000 134.907 397.100 133.818 C 395.505 133.219,393.471 132.520,392.581 132.265 C 391.691 132.009,390.482 131.485,389.895 131.100 C 389.308 130.715,388.505 130.400,388.111 130.400 C 387.716 130.400,386.548 129.950,385.515 129.400 C 384.482 128.850,383.362 128.400,383.026 128.400 C 382.691 128.400,381.287 127.972,379.908 127.449 C 375.595 125.813,374.346 125.394,367.800 123.387 C 366.040 122.847,362.440 121.669,359.800 120.770 C 357.160 119.870,354.280 118.949,353.400 118.723 C 352.520 118.497,351.030 117.972,350.089 117.556 C 349.148 117.140,348.050 116.800,347.649 116.800 C 347.248 116.800,346.073 116.350,345.038 115.800 C 344.004 115.250,342.811 114.800,342.387 114.800 C 341.963 114.800,340.487 114.372,339.108 113.849 C 336.823 112.982,335.776 112.605,332.800 111.580 C 332.250 111.390,329.910 110.681,327.600 110.004 C 319.404 107.601,317.742 107.082,312.600 105.313 C 309.740 104.330,306.683 103.352,305.806 103.139 C 304.929 102.927,303.936 102.504,303.599 102.200 C 303.263 101.895,302.180 101.462,301.194 101.238 C 300.207 101.013,298.687 100.463,297.815 100.015 C 296.944 99.567,295.812 99.200,295.299 99.200 C 294.787 99.200,293.662 98.840,292.800 98.400 C 291.938 97.960,290.910 97.601,290.516 97.602 C 290.122 97.604,288.090 97.042,286.000 96.355 C 281.697 94.939,279.483 94.250,276.600 93.430 C 275.500 93.117,272.800 92.211,270.600 91.416 C 268.400 90.621,265.735 89.721,264.677 89.416 C 263.620 89.110,262.538 88.680,262.272 88.460 C 262.007 88.239,260.892 87.841,259.795 87.573 C 258.698 87.306,257.507 86.835,257.150 86.527 C 256.792 86.218,255.802 85.858,254.950 85.726 C 254.097 85.594,252.732 85.152,251.916 84.743 C 251.100 84.334,250.050 84.000,249.584 84.000 C 249.118 84.000,247.626 83.571,246.268 83.048 C 244.911 82.524,242.720 81.815,241.400 81.472 C 235.922 80.049,229.259 77.966,226.400 76.783 C 225.410 76.373,223.970 75.920,223.200 75.776 C 222.430 75.632,221.260 75.195,220.600 74.806 C 219.940 74.416,218.712 73.975,217.871 73.825 C 217.030 73.675,215.770 73.204,215.071 72.778 C 214.372 72.352,213.297 72.002,212.682 72.001 C 212.067 72.001,210.718 71.550,209.685 71.000 C 208.652 70.450,207.303 70.000,206.687 70.000 C 206.072 70.000,204.862 69.640,204.000 69.200 C 201.830 68.093,196.422 68.093,194.400 69.200 M331.598 202.148 C 330.607 202.396,329.351 202.915,328.809 203.300 C 328.266 203.685,327.467 204.000,327.034 204.000 C 326.346 204.000,319.207 206.262,311.800 208.827 C 310.480 209.284,308.410 209.850,307.200 210.083 C 305.990 210.317,304.571 210.844,304.046 211.254 C 303.521 211.664,302.670 212.000,302.155 212.000 C 301.639 212.000,300.269 212.426,299.109 212.947 C 296.704 214.027,293.734 215.082,291.400 215.685 C 290.520 215.912,289.060 216.436,288.156 216.849 C 287.252 217.262,286.184 217.600,285.782 217.600 C 285.381 217.600,284.321 217.938,283.426 218.352 C 282.532 218.765,279.370 219.859,276.400 220.781 C 273.430 221.704,270.440 222.701,269.755 222.997 C 269.071 223.292,267.631 223.660,266.555 223.814 C 265.480 223.968,264.039 224.433,263.353 224.847 C 262.667 225.261,261.675 225.600,261.150 225.600 C 260.624 225.600,259.385 226.028,258.397 226.551 C 257.409 227.074,256.033 227.624,255.339 227.774 C 254.646 227.924,253.392 228.396,252.554 228.823 C 251.716 229.250,250.612 229.600,250.099 229.600 C 249.587 229.600,248.462 229.960,247.600 230.400 C 246.738 230.840,245.758 231.200,245.424 231.200 C 245.089 231.200,243.687 231.638,242.308 232.173 C 237.905 233.882,228.875 236.545,225.200 237.219 C 224.210 237.400,222.687 237.920,221.815 238.374 C 220.944 238.829,219.487 239.200,218.577 239.200 C 217.471 239.200,216.700 239.447,216.247 239.948 C 215.875 240.359,214.764 240.806,213.778 240.941 C 212.792 241.076,211.494 241.548,210.893 241.990 C 210.292 242.432,208.900 242.911,207.800 243.054 C 206.700 243.197,205.132 243.648,204.316 244.057 C 202.210 245.111,197.117 245.086,194.744 244.009 C 193.785 243.574,192.440 243.214,191.756 243.209 C 191.072 243.204,189.850 242.751,189.042 242.202 C 188.233 241.654,186.813 241.096,185.886 240.963 C 184.959 240.829,183.750 240.408,183.200 240.026 C 182.650 239.643,181.230 239.217,180.045 239.078 C 178.860 238.939,177.580 238.544,177.200 238.200 C 176.821 237.857,175.540 237.418,174.353 237.225 C 173.167 237.032,170.937 236.496,169.398 236.033 C 162.377 233.924,159.623 233.041,157.292 232.154 C 155.913 231.629,154.511 231.200,154.176 231.200 C 153.842 231.200,152.862 230.840,152.000 230.400 C 151.138 229.960,150.013 229.600,149.501 229.600 C 148.988 229.600,147.856 229.233,146.985 228.785 C 146.113 228.337,144.590 227.791,143.600 227.571 C 142.610 227.352,141.350 226.848,140.800 226.451 C 140.250 226.054,139.021 225.625,138.069 225.498 C 137.117 225.372,136.033 224.991,135.659 224.654 C 135.286 224.316,133.995 223.864,132.790 223.649 C 131.586 223.434,129.790 222.993,128.800 222.669 C 127.810 222.344,124.840 221.418,122.200 220.609 C 119.560 219.801,116.630 218.793,115.689 218.370 C 114.748 217.946,113.614 217.600,113.169 217.600 C 112.724 217.600,111.809 217.315,111.135 216.966 C 110.461 216.618,108.905 216.071,107.678 215.751 C 106.450 215.432,105.256 215.023,105.023 214.843 C 104.790 214.663,103.735 214.304,102.677 214.046 C 101.619 213.788,100.092 213.222,99.283 212.788 C 98.474 212.355,97.449 211.999,97.006 211.998 C 96.563 211.997,95.480 211.552,94.600 211.010 C 93.720 210.468,92.509 210.019,91.908 210.012 C 91.307 210.006,89.687 209.569,88.308 209.042 C 83.703 207.284,72.058 203.600,71.123 203.606 C 68.968 203.620,68.992 203.475,69.095 215.605 C 69.199 227.975,69.044 227.180,72.127 231.200 C 73.224 232.630,74.384 234.430,74.706 235.200 C 75.028 235.970,75.631 237.078,76.046 237.662 C 76.461 238.246,76.800 238.948,76.800 239.223 C 76.800 239.498,77.234 240.640,77.764 241.761 C 78.294 242.883,78.845 244.520,78.988 245.400 C 79.131 246.280,79.615 248.202,80.065 249.671 C 81.061 252.929,80.993 258.615,79.933 260.686 C 79.571 261.394,79.151 262.744,78.999 263.686 C 78.847 264.629,78.458 265.818,78.134 266.328 C 77.810 266.839,77.303 267.941,77.008 268.778 C 76.713 269.614,75.723 271.619,74.809 273.232 C 71.732 278.662,73.026 280.675,84.024 287.571 C 86.981 289.425,89.772 291.270,90.226 291.671 C 90.680 292.072,91.217 292.400,91.420 292.400 C 91.623 292.400,92.691 292.832,93.794 293.361 C 97.166 294.976,104.874 298.017,107.177 298.641 C 108.374 298.965,109.544 299.385,109.777 299.574 C 110.010 299.763,111.122 300.190,112.249 300.522 C 113.376 300.855,114.852 301.413,115.529 301.763 C 116.206 302.113,117.264 302.404,117.880 302.409 C 118.496 302.414,119.804 302.782,120.788 303.228 C 121.771 303.674,123.391 304.146,124.388 304.276 C 125.384 304.407,126.873 304.851,127.695 305.262 C 128.517 305.674,130.317 306.124,131.695 306.263 C 133.073 306.401,135.062 306.848,136.115 307.257 C 137.168 307.666,138.878 308.003,139.915 308.007 C 140.952 308.011,142.970 308.259,144.400 308.559 C 146.933 309.090,149.482 309.429,164.800 311.267 C 174.894 312.479,220.533 312.600,230.600 311.442 C 233.900 311.063,238.490 310.595,240.800 310.403 C 245.811 309.987,251.134 309.303,253.560 308.762 C 254.528 308.546,257.052 308.205,259.168 308.003 C 261.284 307.801,263.642 307.378,264.407 307.062 C 265.173 306.747,266.970 306.357,268.400 306.197 C 269.830 306.037,271.634 305.584,272.409 305.191 C 273.185 304.798,274.715 304.343,275.809 304.179 C 276.904 304.016,278.185 303.631,278.656 303.324 C 279.127 303.017,280.387 302.613,281.456 302.427 C 282.525 302.241,284.300 301.724,285.400 301.278 C 286.500 300.832,288.750 299.986,290.400 299.397 C 292.050 298.808,293.940 298.084,294.600 297.788 C 295.260 297.493,297.690 296.506,300.000 295.596 C 302.310 294.686,304.560 293.715,305.000 293.437 C 305.440 293.160,306.340 292.745,307.000 292.517 C 309.591 291.620,317.932 286.168,321.951 282.744 C 328.637 277.050,329.860 275.550,333.217 268.924 C 335.473 264.471,335.585 262.709,335.703 229.763 C 335.816 198.576,336.176 200.998,331.598 202.148 " stroke="none" fill="#25258c" fill-rule="evenodd"></path><path id="path1" d="M0.000 67.376 L 0.000 134.751 1.900 134.111 C 2.945 133.758,4.160 133.247,4.600 132.974 C 5.040 132.702,6.015 132.350,6.767 132.193 C 7.518 132.036,8.688 131.569,9.367 131.155 C 10.045 130.741,10.921 130.402,11.313 130.401 C 11.705 130.401,12.695 130.105,13.513 129.744 C 15.688 128.784,19.925 127.229,22.052 126.609 C 23.071 126.313,24.427 125.800,25.066 125.469 C 25.705 125.139,26.941 124.739,27.814 124.581 C 28.686 124.423,30.480 123.894,31.800 123.405 C 33.120 122.916,36.090 121.927,38.400 121.206 C 40.710 120.486,43.363 119.560,44.296 119.148 C 45.228 118.737,46.377 118.400,46.848 118.400 C 47.320 118.400,48.267 118.062,48.953 117.649 C 49.639 117.235,50.920 116.772,51.800 116.619 C 52.680 116.466,53.770 116.103,54.222 115.812 C 54.674 115.522,56.024 115.007,57.222 114.668 C 60.359 113.781,65.253 112.051,65.763 111.649 C 66.003 111.459,66.920 111.183,67.800 111.035 C 68.680 110.887,70.660 110.346,72.200 109.833 C 73.740 109.320,76.620 108.408,78.600 107.806 C 86.117 105.523,88.646 104.673,90.079 103.948 C 90.893 103.537,91.974 103.200,92.482 103.200 C 92.991 103.200,94.252 102.750,95.285 102.200 C 96.318 101.650,97.487 101.198,97.882 101.196 C 98.277 101.194,99.563 100.744,100.740 100.196 C 101.917 99.648,103.231 99.200,103.660 99.200 C 104.089 99.200,104.984 98.918,105.649 98.574 C 106.315 98.230,108.106 97.600,109.630 97.174 C 115.455 95.546,117.860 94.842,119.600 94.256 C 122.319 93.340,131.159 90.407,133.200 89.744 C 134.190 89.422,135.630 88.833,136.400 88.435 C 137.170 88.037,138.440 87.594,139.222 87.452 C 140.005 87.309,141.348 86.834,142.207 86.396 C 143.066 85.958,144.231 85.600,144.796 85.600 C 145.360 85.600,146.236 85.310,146.741 84.956 C 147.247 84.602,148.682 84.075,149.930 83.784 C 151.179 83.494,153.370 82.872,154.800 82.402 C 156.230 81.933,158.930 81.090,160.800 80.530 C 164.123 79.534,169.001 77.975,171.400 77.143 C 172.060 76.914,173.770 76.364,175.200 75.920 C 176.630 75.477,177.982 74.967,178.205 74.787 C 178.428 74.607,179.508 74.239,180.605 73.969 C 181.702 73.699,183.078 73.146,183.662 72.739 C 184.246 72.333,185.271 72.000,185.941 72.000 C 186.610 72.000,188.004 71.550,189.038 71.000 C 190.073 70.450,191.350 70.000,191.876 70.000 C 192.402 70.000,193.538 69.640,194.400 69.200 C 196.608 68.074,201.792 68.074,204.000 69.200 C 204.862 69.640,206.072 70.000,206.687 70.000 C 207.303 70.000,208.652 70.450,209.685 71.000 C 210.718 71.550,212.067 72.001,212.682 72.001 C 213.297 72.002,214.372 72.352,215.071 72.778 C 215.770 73.204,217.030 73.675,217.871 73.825 C 218.712 73.975,219.940 74.416,220.600 74.806 C 221.260 75.195,222.430 75.632,223.200 75.776 C 223.970 75.920,225.410 76.373,226.400 76.783 C 229.259 77.966,235.922 80.049,241.400 81.472 C 242.720 81.815,244.911 82.524,246.268 83.048 C 247.626 83.571,249.118 84.000,249.584 84.000 C 250.050 84.000,251.100 84.334,251.916 84.743 C 252.732 85.152,254.097 85.594,254.950 85.726 C 255.802 85.858,256.792 86.218,257.150 86.527 C 257.507 86.835,258.698 87.306,259.795 87.573 C 260.892 87.841,262.007 88.239,262.272 88.460 C 262.538 88.680,263.620 89.110,264.677 89.416 C 265.735 89.721,268.400 90.621,270.600 91.416 C 272.800 92.211,275.500 93.117,276.600 93.430 C 279.483 94.250,281.697 94.939,286.000 96.355 C 288.090 97.042,290.122 97.604,290.516 97.602 C 290.910 97.601,291.938 97.960,292.800 98.400 C 293.662 98.840,294.787 99.200,295.299 99.200 C 295.812 99.200,296.944 99.567,297.815 100.015 C 298.687 100.463,300.207 101.013,301.194 101.238 C 302.180 101.462,303.263 101.895,303.599 102.200 C 303.936 102.504,304.929 102.927,305.806 103.139 C 306.683 103.352,309.740 104.330,312.600 105.313 C 317.742 107.082,319.404 107.601,327.600 110.004 C 329.910 110.681,332.250 111.390,332.800 111.580 C 335.776 112.605,336.823 112.982,339.108 113.849 C 340.487 114.372,341.963 114.800,342.387 114.800 C 342.811 114.800,344.004 115.250,345.038 115.800 C 346.073 116.350,347.248 116.800,347.649 116.800 C 348.050 116.800,349.148 117.140,350.089 117.556 C 351.030 117.972,352.520 118.497,353.400 118.723 C 354.280 118.949,357.160 119.870,359.800 120.770 C 362.440 121.669,366.040 122.847,367.800 123.387 C 374.346 125.394,375.595 125.813,379.908 127.449 C 381.287 127.972,382.691 128.400,383.026 128.400 C 383.362 128.400,384.482 128.850,385.515 129.400 C 386.548 129.950,387.755 130.404,388.197 130.409 C 388.639 130.414,389.450 130.770,390.000 131.200 C 390.550 131.630,391.301 131.986,391.670 131.991 C 392.038 131.996,393.658 132.521,395.270 133.157 C 396.881 133.793,398.605 134.435,399.100 134.584 L 400.000 134.854 400.000 67.427 L 400.000 0.000 200.000 0.000 L 0.000 0.000 0.000 67.376 M192.000 118.600 C 190.790 119.132,189.440 119.576,189.000 119.585 C 188.560 119.595,187.610 119.963,186.889 120.402 C 186.168 120.842,184.749 121.387,183.734 121.615 C 182.720 121.842,181.441 122.382,180.891 122.814 C 180.342 123.246,179.460 123.600,178.933 123.600 C 178.405 123.600,177.085 124.050,176.000 124.600 C 174.915 125.150,173.759 125.600,173.432 125.600 C 173.106 125.600,170.805 126.303,168.319 127.161 C 165.834 128.020,163.170 128.940,162.400 129.205 C 161.630 129.470,160.370 130.005,159.600 130.394 C 158.830 130.782,157.570 131.235,156.800 131.400 C 156.030 131.565,154.950 132.015,154.400 132.400 C 153.850 132.785,152.823 133.225,152.119 133.378 C 151.414 133.530,150.424 133.979,149.919 134.376 C 149.413 134.772,148.423 135.222,147.719 135.376 C 147.014 135.529,145.992 136.006,145.447 136.434 C 144.902 136.863,143.627 137.369,142.614 137.558 C 141.600 137.747,140.448 138.194,140.054 138.551 C 139.660 138.908,138.941 139.200,138.456 139.200 C 137.972 139.200,136.546 139.623,135.288 140.140 C 134.030 140.658,131.380 141.582,129.400 142.195 C 127.420 142.808,124.897 143.734,123.794 144.254 C 122.691 144.775,121.521 145.201,121.194 145.203 C 120.867 145.204,120.060 145.563,119.400 146.000 C 118.740 146.437,117.933 146.796,117.606 146.797 C 117.279 146.799,116.019 147.269,114.806 147.842 C 110.356 149.943,108.578 150.725,107.600 151.012 C 107.050 151.173,106.122 151.641,105.538 152.052 C 104.954 152.464,104.104 152.800,103.649 152.800 C 103.194 152.800,102.052 153.148,101.111 153.574 C 100.170 153.999,97.690 154.998,95.600 155.793 C 90.952 157.561,88.418 158.610,85.794 159.851 C 84.691 160.373,83.487 160.800,83.118 160.800 C 82.749 160.800,82.325 160.998,82.175 161.241 C 82.025 161.483,81.339 161.921,80.651 162.213 C 79.963 162.505,78.780 163.207,78.022 163.772 C 77.265 164.337,76.441 164.800,76.192 164.800 C 75.943 164.800,75.317 165.250,74.800 165.800 C 74.283 166.350,73.577 166.801,73.230 166.802 C 72.884 166.804,72.084 167.074,71.454 167.402 C 70.029 168.146,69.427 168.155,68.834 167.441 C 66.917 165.132,57.348 174.612,52.727 183.400 C 50.491 187.651,48.565 193.499,46.799 201.400 C 46.068 204.668,45.050 212.181,44.611 217.550 L 44.402 220.101 47.428 222.929 C 56.744 231.637,56.976 243.419,48.004 252.200 L 45.552 254.600 45.751 256.600 C 45.861 257.700,46.127 259.770,46.344 261.200 C 50.239 286.964,50.169 310.697,46.164 322.687 C 42.477 333.724,36.182 342.419,27.921 347.888 C 20.259 352.961,16.460 352.888,5.121 347.446 C 2.547 346.211,0.342 345.200,0.221 345.200 C 0.099 345.200,0.000 357.530,0.000 372.600 L 0.000 400.000 200.000 400.000 L 400.000 400.000 400.000 276.557 C 400.000 159.147,399.966 153.129,399.300 153.409 C 398.915 153.570,397.250 154.113,395.600 154.614 C 393.950 155.115,391.931 155.812,391.113 156.163 C 390.295 156.513,389.265 156.800,388.824 156.800 C 388.382 156.800,387.252 157.148,386.311 157.572 C 385.370 157.997,383.790 158.612,382.800 158.939 C 376.016 161.181,373.090 162.258,370.560 163.444 C 369.438 163.970,368.178 164.402,367.760 164.404 C 367.342 164.406,366.100 164.850,365.000 165.391 C 363.900 165.932,362.457 166.381,361.794 166.387 C 361.131 166.394,359.961 166.736,359.194 167.147 C 358.427 167.557,357.170 168.026,356.400 168.188 C 355.630 168.350,353.560 168.934,351.800 169.486 C 350.040 170.037,347.160 170.933,345.400 171.477 C 343.640 172.020,341.455 172.799,340.543 173.206 C 339.632 173.614,338.196 174.077,337.351 174.235 C 336.507 174.394,335.273 174.855,334.608 175.260 C 333.944 175.665,332.950 175.999,332.400 176.001 C 331.850 176.003,330.680 176.448,329.800 176.990 C 328.920 177.532,327.749 177.981,327.197 177.988 C 326.645 177.994,325.348 178.450,324.315 179.000 C 323.282 179.550,321.971 180.000,321.402 180.000 C 320.834 180.000,319.700 180.338,318.884 180.751 C 318.068 181.164,316.770 181.628,316.000 181.783 C 314.188 182.145,308.993 183.731,303.200 185.690 C 300.670 186.546,297.734 187.492,296.675 187.793 C 295.616 188.094,294.318 188.624,293.789 188.970 C 293.261 189.317,292.417 189.602,291.914 189.604 C 291.411 189.606,290.100 190.050,289.000 190.591 C 287.900 191.132,286.605 191.581,286.121 191.587 C 285.638 191.594,284.396 192.050,283.362 192.600 C 282.327 193.150,281.076 193.600,280.580 193.600 C 280.085 193.600,278.717 194.048,277.540 194.596 C 276.363 195.144,275.005 195.594,274.523 195.596 C 274.040 195.598,272.420 196.026,270.923 196.546 C 269.425 197.066,266.310 198.073,264.000 198.784 C 261.690 199.494,259.233 200.317,258.540 200.612 C 257.847 200.907,256.598 201.277,255.763 201.433 C 254.929 201.590,253.695 202.032,253.023 202.415 C 252.350 202.798,251.112 203.232,250.271 203.379 C 249.430 203.527,248.170 203.996,247.471 204.422 C 246.772 204.848,245.789 205.198,245.287 205.199 C 244.784 205.199,243.485 205.650,242.400 206.200 C 241.315 206.750,240.078 207.200,239.653 207.200 C 239.228 207.200,237.917 207.648,236.740 208.196 C 235.563 208.744,234.199 209.194,233.708 209.196 C 233.217 209.198,231.687 209.630,230.308 210.155 C 228.929 210.681,225.910 211.687,223.600 212.391 C 221.290 213.095,218.630 214.016,217.689 214.436 C 216.748 214.856,215.576 215.200,215.083 215.200 C 214.591 215.200,213.561 215.533,212.794 215.941 C 212.027 216.349,210.464 216.905,209.320 217.176 C 208.176 217.448,207.045 217.905,206.807 218.192 C 206.569 218.478,205.612 218.827,204.681 218.967 C 203.750 219.107,202.450 219.575,201.794 220.008 C 200.288 221.000,199.064 221.009,197.684 220.037 C 197.088 219.618,195.880 219.153,195.000 219.004 C 194.120 218.855,192.860 218.410,192.200 218.015 C 191.540 217.620,190.280 217.169,189.400 217.013 C 188.520 216.856,187.573 216.541,187.296 216.312 C 187.019 216.083,185.669 215.577,184.296 215.188 C 182.923 214.799,179.730 213.758,177.200 212.876 C 174.670 211.994,171.991 211.147,171.246 210.993 C 170.502 210.839,169.152 210.376,168.246 209.965 C 167.341 209.554,166.059 209.214,165.397 209.209 C 164.735 209.204,163.348 208.750,162.315 208.200 C 161.282 207.650,160.113 207.198,159.718 207.196 C 159.323 207.194,158.037 206.744,156.860 206.196 C 155.683 205.648,154.333 205.194,153.860 205.187 C 153.387 205.181,152.100 204.732,151.000 204.191 C 149.900 203.650,148.571 203.206,148.047 203.204 C 147.523 203.202,146.533 202.859,145.847 202.443 C 145.161 202.027,143.970 201.558,143.200 201.401 C 142.430 201.244,141.260 200.885,140.600 200.603 C 139.940 200.322,137.240 199.420,134.600 198.600 C 131.960 197.781,128.900 196.784,127.800 196.386 C 126.700 195.987,125.112 195.547,124.271 195.407 C 123.430 195.267,122.170 194.804,121.471 194.378 C 120.772 193.952,119.840 193.601,119.400 193.598 C 118.960 193.595,117.637 193.144,116.460 192.596 C 115.283 192.048,114.005 191.600,113.620 191.600 C 113.234 191.600,112.073 191.150,111.038 190.600 C 110.004 190.050,108.667 189.600,108.068 189.600 C 107.468 189.600,106.533 189.285,105.989 188.900 C 105.445 188.515,104.010 187.899,102.800 187.532 C 101.590 187.164,99.700 186.554,98.600 186.175 C 97.500 185.796,95.174 185.013,93.431 184.435 C 91.688 183.857,90.191 183.174,90.106 182.917 C 89.873 182.218,91.471 180.801,92.500 180.794 C 92.995 180.790,95.290 180.057,97.600 179.164 C 99.910 178.271,102.700 177.207,103.800 176.800 C 104.900 176.393,106.700 175.727,107.800 175.320 C 108.900 174.913,110.610 174.208,111.600 173.754 C 112.590 173.300,114.390 172.517,115.600 172.013 C 116.810 171.510,118.700 170.685,119.800 170.181 C 120.900 169.678,122.250 169.139,122.800 168.985 C 123.350 168.831,124.116 168.428,124.502 168.089 C 124.888 167.750,125.968 167.342,126.902 167.182 C 127.836 167.022,129.500 166.520,130.600 166.065 C 131.700 165.611,133.950 164.763,135.600 164.182 C 137.250 163.600,139.500 162.710,140.600 162.203 C 141.700 161.696,143.050 161.153,143.600 160.995 C 144.150 160.838,145.140 160.391,145.800 160.003 C 146.460 159.615,147.657 159.181,148.460 159.038 C 149.263 158.895,150.124 158.532,150.374 158.231 C 150.624 157.930,151.478 157.562,152.273 157.413 C 153.067 157.264,154.110 156.884,154.590 156.570 C 155.071 156.255,156.373 155.727,157.484 155.397 C 158.595 155.067,159.728 154.528,160.001 154.199 C 160.274 153.869,161.061 153.594,161.749 153.587 C 162.437 153.581,163.900 153.132,165.000 152.591 C 166.100 152.050,167.270 151.604,167.600 151.600 C 167.930 151.595,169.910 150.976,172.000 150.223 C 174.090 149.471,176.700 148.548,177.800 148.173 C 178.900 147.798,180.718 147.066,181.840 146.546 C 182.962 146.026,184.243 145.600,184.686 145.600 C 185.129 145.600,185.950 145.240,186.509 144.800 C 187.069 144.360,187.865 144.000,188.279 144.000 C 188.692 144.000,189.734 143.642,190.593 143.204 C 191.452 142.766,192.795 142.295,193.578 142.159 C 194.360 142.022,195.752 141.481,196.671 140.955 C 197.590 140.430,198.760 139.999,199.271 139.999 C 199.782 139.998,200.752 139.660,201.428 139.248 C 202.103 138.837,203.093 138.365,203.628 138.201 C 206.721 137.251,210.079 132.454,210.670 128.141 C 211.050 125.367,208.945 121.935,204.882 118.706 C 202.898 117.129,195.482 117.068,192.000 118.600 M0.000 236.357 C 0.000 281.921,0.147 319.200,0.328 319.200 C 0.821 319.200,8.800 308.142,8.800 307.459 C 8.800 307.361,9.551 306.048,10.470 304.541 C 12.351 301.452,16.411 293.030,17.191 290.600 C 17.473 289.720,17.827 288.820,17.978 288.600 C 18.128 288.380,18.666 286.850,19.173 285.200 C 19.680 283.550,20.252 281.840,20.443 281.400 C 20.863 280.432,21.911 276.472,22.402 274.000 C 22.599 273.010,23.113 270.627,23.544 268.704 C 25.766 258.803,25.671 257.421,22.633 255.404 C 9.865 246.930,10.301 227.776,23.450 219.493 C 25.352 218.294,25.352 218.295,26.191 211.400 C 27.110 203.850,28.284 197.257,29.606 192.220 C 30.244 189.789,30.879 187.350,31.017 186.800 C 31.154 186.250,31.421 185.440,31.609 185.000 C 31.797 184.560,32.361 183.030,32.861 181.600 C 33.962 178.450,36.315 173.559,38.496 169.887 C 40.367 166.736,40.409 166.854,37.244 166.406 C 35.819 166.205,34.365 165.716,33.748 165.231 C 33.167 164.774,32.310 164.400,31.843 164.400 C 31.376 164.400,30.148 163.950,29.115 163.400 C 28.082 162.850,26.962 162.400,26.626 162.400 C 26.291 162.400,24.887 161.972,23.508 161.449 C 20.387 160.265,19.210 159.849,14.200 158.159 C 5.638 155.272,3.767 154.662,2.604 154.382 C 1.942 154.223,1.085 153.962,0.700 153.803 C 0.035 153.529,0.000 157.616,0.000 236.357 M335.251 202.263 C 335.896 203.041,335.889 253.108,335.242 261.124 C 334.907 265.278,334.742 265.915,333.217 268.924 C 329.860 275.550,328.637 277.050,321.951 282.744 C 317.932 286.168,309.591 291.620,307.000 292.517 C 306.340 292.745,305.440 293.160,305.000 293.437 C 304.560 293.715,302.310 294.686,300.000 295.596 C 297.690 296.506,295.260 297.493,294.600 297.788 C 293.940 298.084,292.050 298.808,290.400 299.397 C 288.750 299.986,286.500 300.832,285.400 301.278 C 284.300 301.724,282.525 302.241,281.456 302.427 C 280.387 302.613,279.127 303.017,278.656 303.324 C 278.185 303.631,276.904 304.016,275.809 304.179 C 274.715 304.343,273.185 304.798,272.409 305.191 C 271.634 305.584,269.830 306.037,268.400 306.197 C 266.970 306.357,265.173 306.747,264.407 307.062 C 263.642 307.378,261.284 307.801,259.168 308.003 C 257.052 308.205,254.528 308.546,253.560 308.762 C 251.134 309.303,245.811 309.987,240.800 310.403 C 238.490 310.595,233.900 311.063,230.600 311.442 C 220.533 312.600,174.894 312.479,164.800 311.267 C 149.482 309.429,146.933 309.090,144.400 308.559 C 142.970 308.259,140.952 308.011,139.915 308.007 C 138.878 308.003,137.168 307.666,136.115 307.257 C 135.062 306.848,133.073 306.401,131.695 306.263 C 130.317 306.124,128.517 305.674,127.695 305.262 C 126.873 304.851,125.384 304.407,124.388 304.276 C 123.391 304.146,121.771 303.674,120.788 303.228 C 119.804 302.782,118.496 302.414,117.880 302.409 C 117.264 302.404,116.206 302.113,115.529 301.763 C 114.852 301.413,113.376 300.855,112.249 300.522 C 111.122 300.190,110.010 299.763,109.777 299.574 C 109.544 299.385,108.374 298.965,107.177 298.641 C 104.874 298.017,97.166 294.976,93.794 293.361 C 92.691 292.832,91.623 292.400,91.420 292.400 C 91.217 292.400,90.680 292.072,90.226 291.671 C 89.772 291.270,86.981 289.425,84.024 287.571 C 73.026 280.675,71.732 278.662,74.809 273.232 C 75.723 271.619,76.713 269.614,77.008 268.778 C 77.303 267.941,77.810 266.839,78.134 266.328 C 78.458 265.818,78.847 264.629,78.999 263.686 C 79.151 262.744,79.571 261.394,79.933 260.686 C 80.993 258.615,81.061 252.929,80.065 249.671 C 79.615 248.202,79.131 246.280,78.988 245.400 C 78.845 244.520,78.294 242.883,77.764 241.761 C 77.234 240.640,76.800 239.498,76.800 239.223 C 76.800 238.948,76.461 238.246,76.046 237.662 C 75.631 237.078,75.028 235.970,74.706 235.200 C 74.384 234.430,73.224 232.630,72.127 231.200 C 69.044 227.180,69.199 227.975,69.095 215.605 C 68.992 203.475,68.968 203.620,71.123 203.606 C 72.058 203.600,83.703 207.284,88.308 209.042 C 89.687 209.569,91.307 210.006,91.908 210.012 C 92.509 210.019,93.720 210.468,94.600 211.010 C 95.480 211.552,96.563 211.997,97.006 211.998 C 97.449 211.999,98.474 212.355,99.283 212.788 C 100.092 213.222,101.619 213.788,102.677 214.046 C 103.735 214.304,104.790 214.663,105.023 214.843 C 105.256 215.023,106.450 215.432,107.678 215.751 C 108.905 216.071,110.461 216.618,111.135 216.966 C 111.809 217.315,112.724 217.600,113.169 217.600 C 113.614 217.600,114.748 217.946,115.689 218.370 C 116.630 218.793,119.560 219.801,122.200 220.609 C 124.840 221.418,127.810 222.344,128.800 222.669 C 129.790 222.993,131.586 223.434,132.790 223.649 C 133.995 223.864,135.286 224.316,135.659 224.654 C 136.033 224.991,137.117 225.372,138.069 225.498 C 139.021 225.625,140.250 226.054,140.800 226.451 C 141.350 226.848,142.610 227.352,143.600 227.571 C 144.590 227.791,146.113 228.337,146.985 228.785 C 147.856 229.233,148.988 229.600,149.501 229.600 C 150.013 229.600,151.138 229.960,152.000 230.400 C 152.862 230.840,153.842 231.200,154.176 231.200 C 154.511 231.200,155.913 231.629,157.292 232.154 C 159.623 233.041,162.377 233.924,169.398 236.033 C 170.937 236.496,173.167 237.032,174.353 237.225 C 175.540 237.418,176.821 237.857,177.200 238.200 C 177.580 238.544,178.860 238.939,180.045 239.078 C 181.230 239.217,182.650 239.643,183.200 240.026 C 183.750 240.408,184.959 240.829,185.886 240.963 C 186.813 241.096,188.233 241.654,189.042 242.202 C 189.850 242.751,191.072 243.204,191.756 243.209 C 192.440 243.214,193.785 243.574,194.744 244.009 C 197.117 245.086,202.210 245.111,204.316 244.057 C 205.132 243.648,206.700 243.197,207.800 243.054 C 208.900 242.911,210.292 242.432,210.893 241.990 C 211.494 241.548,212.792 241.076,213.778 240.941 C 214.764 240.806,215.875 240.359,216.247 239.948 C 216.700 239.447,217.471 239.200,218.577 239.200 C 219.487 239.200,220.944 238.829,221.815 238.374 C 222.687 237.920,224.210 237.400,225.200 237.219 C 228.875 236.545,237.905 233.882,242.308 232.173 C 243.687 231.638,245.089 231.200,245.424 231.200 C 245.758 231.200,246.738 230.840,247.600 230.400 C 248.462 229.960,249.587 229.600,250.099 229.600 C 250.612 229.600,251.716 229.250,252.554 228.823 C 253.392 228.396,254.646 227.924,255.339 227.774 C 256.033 227.624,257.409 227.074,258.397 226.551 C 259.385 226.028,260.624 225.600,261.150 225.600 C 261.675 225.600,262.667 225.261,263.353 224.847 C 264.039 224.433,265.480 223.968,266.555 223.814 C 267.631 223.660,269.071 223.292,269.755 222.997 C 270.440 222.701,273.430 221.704,276.400 220.781 C 279.370 219.859,282.532 218.765,283.426 218.352 C 284.321 217.938,285.381 217.600,285.782 217.600 C 286.184 217.600,287.252 217.262,288.156 216.849 C 289.060 216.436,290.520 215.912,291.400 215.685 C 293.734 215.082,296.704 214.027,299.109 212.947 C 300.269 212.426,301.639 212.000,302.155 212.000 C 302.670 212.000,303.521 211.664,304.046 211.254 C 304.571 210.844,305.990 210.317,307.200 210.083 C 308.410 209.850,310.480 209.284,311.800 208.827 C 319.207 206.262,326.346 204.000,327.034 204.000 C 327.467 204.000,328.266 203.685,328.809 203.300 C 329.727 202.648,332.556 201.757,334.051 201.648 C 334.409 201.621,334.949 201.898,335.251 202.263 " stroke="none" fill="#fbfbfb" fill-rule="evenodd"></path><path id="path2" d="M38.488 169.900 C 36.314 173.560,33.960 178.454,32.861 181.600 C 32.361 183.030,31.797 184.560,31.609 185.000 C 31.421 185.440,31.154 186.250,31.017 186.800 C 30.879 187.350,30.244 189.789,29.606 192.220 C 28.284 197.257,27.110 203.850,26.191 211.400 C 25.352 218.295,25.352 218.294,23.450 219.493 C 10.301 227.776,9.865 246.930,22.633 255.404 C 25.671 257.421,25.766 258.803,23.544 268.704 C 23.113 270.627,22.599 273.010,22.402 274.000 C 21.911 276.472,20.863 280.432,20.443 281.400 C 20.252 281.840,19.680 283.550,19.173 285.200 C 18.666 286.850,18.128 288.380,17.978 288.600 C 17.827 288.820,17.473 289.720,17.191 290.600 C 16.411 293.030,12.351 301.452,10.470 304.541 C 9.551 306.048,8.800 307.369,8.800 307.475 C 8.800 307.868,2.380 317.046,1.211 318.325 L -0.000 319.649 0.000 332.331 L 0.000 345.012 4.900 347.349 C 18.474 353.822,23.949 352.909,34.421 342.425 C 45.339 331.494,49.011 320.139,48.983 297.400 C 48.963 281.657,48.523 275.614,46.344 261.200 C 46.127 259.770,45.861 257.700,45.751 256.600 L 45.552 254.600 48.004 252.200 C 56.976 243.419,56.744 231.637,47.428 222.929 L 44.402 220.101 44.611 217.550 C 45.050 212.181,46.068 204.668,46.799 201.400 C 50.456 185.041,55.546 175.904,65.223 168.321 L 66.600 167.243 53.346 167.221 L 40.091 167.200 38.488 169.900 " stroke="none" fill="#e4b426" fill-rule="evenodd"></path></g></svg>