<svg width="512" height="512" viewBox="0 0 512 512" fill="none" xmlns="http://www.w3.org/2000/svg">
<rect width="512" height="512" fill="white"/>
<path d="M414.531 341.538V341.541C414.531 392.097 346.022 433.082 261.511 433.082C188.451 433.082 127.369 402.448 112.154 361.483L105.519 359.889V348.397L102.547 347.063C95.776 344.025 95.776 339.053 102.547 336.015L105.519 334.681V232.763L197.696 258.323C217.12 252.983 238.732 250.001 261.511 250.001C285.699 250.001 308.57 253.363 328.906 259.341L414.531 238.763V341.538Z" fill="#001C54"/>
<path d="M122.592 389.093L127.745 445.182C128.722 455.815 120.894 465.227 110.26 466.204C99.626 467.181 90.215 459.353 89.238 448.719C89.1365 447.542 89.1365 446.358 89.238 445.181L94.391 389.092C95.106 381.304 101.999 375.571 109.787 376.287C116.695 376.922 121.985 382.424 122.592 389.093Z" fill="#FFC107"/>
<path d="M236.306 345.585L10.521 220.269C-0.309999 214.257 -0.309999 204.42 10.521 198.408L236.306 73.093C247.137 67.081 264.862 67.081 275.693 73.093L501.478 198.409C512.309 204.421 512.309 214.258 501.478 220.27L275.694 345.585C264.862 351.597 247.138 351.597 236.306 345.585Z" fill="#10398C"/>
<path d="M108.492 395.822C92.47 395.822 79.481 382.833 79.481 366.81V359.307C79.481 343.285 92.47 330.295 108.492 330.295C124.514 330.295 137.503 343.284 137.503 359.307V366.81C137.503 382.833 124.514 395.822 108.492 395.822Z" fill="#FFE699"/>
<path d="M108.492 368.861C100.16 368.861 93.406 362.107 93.406 353.775V285.144C93.406 279.783 96.252 274.824 100.881 272.119L248.389 185.925C255.583 181.722 264.822 184.146 269.026 191.34C273.229 198.533 270.805 207.773 263.612 211.976L123.578 293.802V353.776C123.578 362.107 116.823 368.861 108.492 368.861Z" fill="#FFC107"/>
<path d="M290.332 198.95C290.332 212.257 274.961 223.044 256 223.044C237.039 223.044 221.668 212.257 221.668 198.95C221.668 185.643 237.039 174.856 256 174.856C274.961 174.856 290.332 185.643 290.332 198.95Z" fill="#00102F"/>
</svg>
