<svg xmlns="http://www.w3.org/2000/svg" width="384.23" height="174.01"><path d="M260.7 35c-2.1.1-4 1-5.9 2-.3.2-1.9 1.1-.6.3.4-.3 2-1.1.8-.4-.7.4-2.3 1.3-2.4 1.4.5-.3 1.7-1 1.8-1-2.7 1.6-5.1 3.6-7.6 5.4-2.8 2.1-5.6 4.2-8.4 6.2-1.3-.4-2.5-.9-3.8-1.3 2.3-1.9 4.9-3.5 7.2-5.4 2.7-2 5.4-4.1 8.1-6 .9-.6 2.8-1.7 3.1-1.9-.5.3-2.2 1.3-.9.6 3.1-1.9 6.5-3.6 10.2-3.5-.5 1.2-1.1 2.4-1.6 3.7z" style="color:#000;overflow:visible;fill:#005c94;stroke-width:3.33" transform="rotate(26.702 227.4 39.65)"/><path d="M246.6 33.3c-.9 2.4-2 4.7-2.9 7.1-1.1 2.5-2.8 4.7-4.4 6.9l-3.9-.9c1.7-1.9 3.2-4.1 4.4-6.3.7-1.6 1.3-3.2 2.1-4.8.5-.6.4-2.1 1.2-2.1h3.6z" style="color:#000;overflow:visible;fill:#005c94;stroke-width:3.33" transform="rotate(26.702 227.4 39.65)"/><path d="M238.9 45.2c2.3-.7 4.7-1.1 7-1.7 2.3-.5 4.7-.7 7-1-.5 1.3-.9 2.5-1.4 3.8-2.7.3-5.3.6-7.9 1.3-1.8.4-3.7.8-5.5 1.3-.9.4-.3-.5-.2-.9.3-.9.6-1.9.9-2.8z" style="color:#000;overflow:visible;fill:#005c94;stroke-width:3.33" transform="rotate(26.702 227.4 39.65)"/><path d="M29.12 254.95h25.96v9.13H29.12z" style="fill:#ffff3e;stroke:#000;stroke-width:.59" transform="matrix(.7099 0 0 2.00983 70.42 -361.734)"/><path d="M55.08 264.08v-18.27h25.95v18.27z" style="fill:#ffff3e;stroke:#000;stroke-width:.55" transform="matrix(.7099 0 0 2.35193 70.42 -452.08)"/><path d="M81.03 264.08v-45.67h25.95v45.67z" style="fill:#ffff3e;stroke:#000;stroke-width:.71" transform="matrix(.7099 0 0 1.39963 70.42 -200.595)"/><path d="M106.98 154.47h25.96v109.61h-25.96z" style="fill:#ffff3e;stroke:#000;stroke-width:.85" transform="matrix(.7099 0 0 .99284 70.42 -93.156)"/><path d="M158.89 172.74v91.34h-25.95v-91.34z" style="fill:#ffff3e;stroke:#000;stroke-width:.69" transform="matrix(.7099 0 0 1.4708 70.42 -219.388)"/><path d="M158.89 264.08V90.54h25.95v173.54z" style="fill:#ffff3e;stroke:#000;stroke-width:.91" transform="matrix(.7099 0 0 .85727 70.42 -57.369)"/><path d="M184.84 264.08V17.47h25.95v246.61z" style="fill:#ffff3e;stroke:#000;stroke-width:1.17" transform="matrix(.7099 0 0 .52212 70.42 31.135)"/><path d="M236.75 145.34v118.74h-25.96V145.34z" style="fill:#ffff3e;stroke:#000;stroke-width:.94" transform="matrix(.7099 0 0 .807 70.42 -44.094)"/><path d="M262.7 264.08h-25.95v-54.8h25.95z" style="fill:#ffff3e;stroke:#000;stroke-width:.73" transform="matrix(.7099 0 0 1.34783 70.42 -186.917)"/><path d="M288.65 227.54v36.54H262.7v-36.54z" style="fill:#ffff3e;stroke:#000;stroke-width:.87" transform="matrix(.7099 0 0 .93376 70.42 -77.566)"/><path d="M288.65 227.54v36.54H262.7v-36.54z" style="fill:#ffff3e;stroke:#000;stroke-width:1.39" transform="matrix(.7099 0 0 .36557 88.87 72.48)"/><text x="260.002" y="84.073" style="color:#000;font-style:italic;font-size:22px;font-family:Georgia;overflow:visible;fill:#005c94;stroke-width:.5px">&quot;Bell Curve&quot;</text><text xml:space="preserve" x="229.692" y="16.897" style="color:#000;font-style:italic;font-variant:normal;font-weight:400;font-stretch:normal;font-size:22px;line-height:normal;font-family:Georgia;-inkscape-font-specification:&quot;Trebuchet MS, Italic&quot;;font-variant-ligatures:normal;font-variant-position:normal;font-variant-caps:normal;font-variant-numeric:normal;font-variant-alternates:normal;font-variant-east-asian:normal;font-feature-settings:normal;font-variation-settings:normal;text-indent:0;text-align:start;text-decoration:none;text-decoration-line:none;text-decoration-style:solid;text-decoration-color:#000;letter-spacing:normal;word-spacing:normal;text-transform:none;writing-mode:lr-tb;direction:ltr;text-orientation:mixed;dominant-baseline:auto;baseline-shift:baseline;text-anchor:start;white-space:normal;shape-padding:0;shape-margin:0;inline-size:0;clip-rule:nonzero;display:inline;overflow:visible;visibility:visible;opacity:1;isolation:auto;mix-blend-mode:normal;color-interpolation:sRGB;color-interpolation-filters:linearRGB;solid-color:#000;solid-opacity:1;vector-effect:none;fill:#005c94;fill-opacity:1;fill-rule:nonzero;stroke:none;stroke-width:.5px;stroke-linecap:butt;stroke-linejoin:miter;stroke-miterlimit:4;stroke-dasharray:none;stroke-dashoffset:0;stroke-opacity:1;-inkscape-stroke:none;color-rendering:auto;image-rendering:auto;shape-rendering:auto;text-rendering:auto;enable-background:accumulate;stop-color:#000;stop-opacity:1" transform="translate(54.387 22.817)"><tspan x="229.692" y="16.897">Normal</tspan></text><text xml:space="preserve" x="229.692" y="16.897" style="color:#000;font-style:italic;font-variant:normal;font-weight:400;font-stretch:normal;font-size:22px;line-height:normal;font-family:Georgia;-inkscape-font-specification:&quot;Trebuchet MS, Italic&quot;;font-variant-ligatures:normal;font-variant-position:normal;font-variant-caps:normal;font-variant-numeric:normal;font-variant-alternates:normal;font-variant-east-asian:normal;font-feature-settings:normal;font-variation-settings:normal;text-indent:0;text-align:start;text-decoration:none;text-decoration-line:none;text-decoration-style:solid;text-decoration-color:#000;letter-spacing:normal;word-spacing:normal;text-transform:none;writing-mode:lr-tb;direction:ltr;text-orientation:mixed;dominant-baseline:auto;baseline-shift:baseline;text-anchor:start;white-space:normal;shape-padding:0;shape-margin:0;inline-size:0;clip-rule:nonzero;display:inline;overflow:visible;visibility:visible;opacity:1;isolation:auto;mix-blend-mode:normal;color-interpolation:sRGB;color-interpolation-filters:linearRGB;solid-color:#000;solid-opacity:1;vector-effect:none;fill:#005c94;fill-opacity:1;fill-rule:nonzero;stroke:none;stroke-width:.5px;stroke-linecap:butt;stroke-linejoin:miter;stroke-miterlimit:4;stroke-dasharray:none;stroke-dashoffset:0;stroke-opacity:1;-inkscape-stroke:none;color-rendering:auto;image-rendering:auto;shape-rendering:auto;text-rendering:auto;enable-background:accumulate;stop-color:#000;stop-opacity:1" transform="translate(32.21 45.005)"><tspan x="229.692" y="16.897">Distribution</tspan></text><path d="M1.665 167.895c8.6 0 17.2-.1 25.8-.3 8.2-.2 16.5-.6 24.6-1.6 8.6-1.1 17.1-2.9 25.3-6.2 8.1-3.3 15.3-8.3 21.9-14.1 6.4-5.7 12.1-12.6 17-19.7 5.1-7.3 9.8-14.8 14.2-22.6 4.5-8 8.8-16.1 13.1-24.2 4.2-8 8.4-15.9 12.8-23.8 4.3-7.7 8.9-15.3 14.3-22.2 2.8-3.6 5.9-6.8 9.3-9.6 3.4-2.8 7.4-4.4 11.7-4.7 4.3-.3 8.4 1.9 11.9 4.3 3.6 2.4 6.5 5.9 9.3 9.2 5.7 6.9 10.2 14.7 14.7 22.5 4.3 7.5 8.3 15.3 12.4 22.9 4.3 8.1 8.5 16.2 13 24.2 4.4 7.7 8.9 15.3 14 22.6 5.2 7.4 10.9 14.4 17.4 20.6 6.4 6.1 13.8 10.8 21.8 14.3 7.7 3.4 16.1 5.3 24.3 6.3 8.5 1.1 17 1.5 25.5 1.8 8.4.3 16.9.3 25.3.4h1.3" style="fill:none;stroke:#005c94;stroke-width:3.33;stroke-linecap:round;stroke-linejoin:round"/></svg>