<svg xmlns="http://www.w3.org/2000/svg" xml:space="preserve" id="Layer_1" x="0" y="0" style="enable-background:new 0 0 959 788" version="1.1" viewBox="0 0 959 788"><style>.stsvg0{enable-background:new}.stsvg1{fill:#3b4188}.stsvg2{fill:#f4f5f8}.stsvg4{fill:#f04b4b}.stsvg5{fill:#fff}.stsvg6,.stsvg7{fill:none;stroke:#f04b4b;stroke-width:2}.stsvg7{stroke:#d7d8e6}.stsvg8{fill:#767aac}.stsvg10{fill:#d7d8e6}</style><g id="SCHÉMA_ANGLAIS" transform="translate(-103 -906)"><g class="stsvg0"><path d="M163.4 994.4c0 1.6-.3 2.8-.8 3.6-.5.8-1.3 1.2-2.4 1.2-1 0-1.8-.4-2.3-1.2-.5-.8-.8-2-.8-3.6s.3-2.8.8-3.6c.5-.8 1.3-1.2 2.4-1.2 1 0 1.8.4 2.4 1.2s.7 2 .7 3.6zm-4.8 0c0 1.3.1 2.2.4 2.7.3.5.7.8 1.2.8s1-.3 1.3-.8c.3-.5.4-1.4.4-2.7 0-1.2-.1-2.1-.4-2.7-.3-.6-.7-.8-1.3-.8s-1 .3-1.2.8c-.2.5-.4 1.4-.4 2.7z" class="stsvg1"/></g><g class="stsvg0"><path d="M157.2 1071c0-3.6 1.5-5.4 4.4-5.4.5 0 .9 0 1.2.1v1.2c-.3-.1-.7-.1-1.1-.1-1 0-1.7.3-2.2.8s-.8 1.4-.8 2.6h.1c.2-.3.5-.6.8-.8s.8-.3 1.3-.3c.8 0 1.5.3 2 .8s.7 1.2.7 2.1c0 1-.3 1.7-.8 2.3-.5.6-1.3.8-2.2.8-.7 0-1.2-.2-1.7-.5s-.9-.8-1.1-1.4c-.5-.6-.6-1.3-.6-2.2zm3.2 2.9c.5 0 .9-.2 1.2-.5.3-.3.4-.8.4-1.4 0-.5-.1-1-.4-1.3-.3-.3-.7-.5-1.2-.5-.3 0-.6.1-.9.2s-.5.3-.6.6-.2.5-.2.7c0 .6.2 1.1.5 1.5.3.5.7.7 1.2.7z" class="stsvg1"/></g><g class="stsvg0"><path d="M154.1 1155h-1.5v-6c0-.7 0-1.3.1-1.7-.1.1-.2.2-.4.3-.1.1-.6.5-1.4 1.2l-.7-.9 2.7-2.1h1.2v9.2zm7.4 0H160v-6c0-.7 0-1.3.1-1.7-.1.1-.2.2-.4.3-.1.1-.6.5-1.4 1.2l-.7-.9 2.7-2.1h1.2v9.2z" class="stsvg1"/></g><g class="stsvg0"><path d="M154.1 1221h-1.5v-6c0-.7 0-1.3.1-1.7-.1.1-.2.2-.4.3-.1.1-.6.5-1.4 1.2l-.7-.9 2.7-2.1h1.2v9.2zm9-7.1c0 .6-.2 1.1-.5 1.5s-.8.7-1.4.8v.1c.7.1 1.3.3 1.7.7s.6.9.6 1.5c0 .9-.3 1.6-.9 2.1s-1.5.7-2.7.7c-1 0-1.9-.2-2.6-.5v-1.3c.4.2.8.3 1.3.5.4.1.9.2 1.3.2.7 0 1.3-.1 1.6-.4.4-.3.5-.7.5-1.2s-.2-.9-.6-1.1-1-.3-1.9-.3h-.8v-1.2h.8c1.5 0 2.2-.5 2.2-1.5 0-.4-.1-.7-.4-.9-.3-.2-.6-.3-1.1-.3-.4 0-.7 0-1 .1s-.7.3-1.2.6l-.7-1c.9-.6 1.8-.9 3-.9.9 0 1.7.2 2.2.6s.6.4.6 1.2z" class="stsvg1"/></g><g class="stsvg0"><path d="M154.1 1287h-1.5v-6c0-.7 0-1.3.1-1.7-.1.1-.2.2-.4.3-.1.1-.6.5-1.4 1.2l-.7-.9 2.7-2.1h1.2v9.2zm6.2-5.8c.9 0 1.7.2 2.2.7s.8 1.2.8 2c0 1-.3 1.8-.9 2.3-.6.6-1.5.8-2.6.8-1 0-1.9-.2-2.4-.5v-1.4c.3.2.7.3 1.2.5.4.1.9.2 1.2.2.7 0 1.2-.2 1.5-.5.4-.3.5-.7.5-1.3 0-1.1-.7-1.7-2.1-1.7-.2 0-.4 0-.7.1s-.5.1-.8.1l-.7-.4.4-4.5h4.8v1.3h-3.5l-.2 2.3c.1 0 .3-.1.5-.1.2.1.5.1.8.1z" class="stsvg1"/></g><g class="stsvg0"><path d="M154.1 1320h-1.5v-6c0-.7 0-1.3.1-1.7-.1.1-.2.2-.4.3-.1.1-.6.5-1.4 1.2l-.7-.9 2.7-2.1h1.2v9.2zm3.1-4c0-3.6 1.5-5.4 4.4-5.4.5 0 .9 0 1.2.1v1.2c-.3-.1-.7-.1-1.1-.1-1 0-1.7.3-2.2.8s-.8 1.4-.8 2.6h.1c.2-.3.5-.6.8-.8s.8-.3 1.3-.3c.8 0 1.5.3 2 .8s.7 1.2.7 2.1c0 1-.3 1.7-.8 2.3-.5.6-1.3.8-2.2.8-.7 0-1.2-.2-1.7-.5s-.9-.8-1.1-1.4c-.5-.6-.6-1.3-.6-2.2zm3.2 2.9c.5 0 .9-.2 1.2-.5.3-.3.4-.8.4-1.4 0-.5-.1-1-.4-1.3-.3-.3-.7-.5-1.2-.5-.3 0-.6.1-.9.2s-.5.3-.6.6-.2.5-.2.7c0 .6.2 1.1.5 1.5.3.5.7.7 1.2.7z" class="stsvg1"/></g><g class="stsvg0"><path d="M154.1 1188h-1.5v-6c0-.7 0-1.3.1-1.7-.1.1-.2.2-.4.3-.1.1-.6.5-1.4 1.2l-.7-.9 2.7-2.1h1.2v9.2zm9.3 0h-6.3v-1.1l2.4-2.4c.7-.7 1.2-1.2 1.4-1.5.2-.3.4-.6.5-.9s.2-.6.2-.9c0-.4-.1-.8-.4-1-.3-.2-.6-.4-1-.4s-.7.1-1 .2c-.3.1-.7.4-1.2.7l-.8-1c.5-.4 1-.7 1.5-.9s1-.3 1.6-.3c.9 0 1.6.2 2.1.7.5.5.8 1.1.8 1.8 0 .4-.1.8-.2 1.2-.1.4-.4.8-.7 1.2-.3.4-.8.9-1.6 1.6l-1.6 1.6v.1h4.4v1.3z" class="stsvg1"/></g><g class="stsvg0"><path d="M154.1 1254h-1.5v-6c0-.7 0-1.3.1-1.7-.1.1-.2.2-.4.3-.1.1-.6.5-1.4 1.2l-.7-.9 2.7-2.1h1.2v9.2zm9.7-2h-1.3v2H161v-2h-4.2v-1.1l4.2-6.1h1.5v6h1.3v1.2zm-2.7-1.3v-2.3c0-.8 0-1.5.1-2h-.1c-.1.3-.3.6-.6 1l-2.3 3.4h2.9z" class="stsvg1"/></g><g class="stsvg0"><path d="M154.1 1353h-1.5v-6c0-.7 0-1.3.1-1.7-.1.1-.2.2-.4.3-.1.1-.6.5-1.4 1.2l-.7-.9 2.7-2.1h1.2v9.2zm4.1 0 3.7-8H157v-1.3h6.4v1l-3.6 8.2h-1.6z" class="stsvg1"/></g><g class="stsvg0"><path d="M154.1 1386h-1.5v-6c0-.7 0-1.3.1-1.7-.1.1-.2.2-.4.3-.1.1-.6.5-1.4 1.2l-.7-.9 2.7-2.1h1.2v9.2zm6.2-9.4c.9 0 1.6.2 2.1.6s.8.9.8 1.6c0 1-.6 1.7-1.7 2.3.7.4 1.2.7 1.6 1.1.3.4.5.9.5 1.3 0 .8-.3 1.4-.8 1.8-.6.5-1.3.7-2.3.7-1 0-1.8-.2-2.3-.6s-.8-1-.8-1.8c0-.5.1-1 .4-1.4.3-.4.8-.8 1.4-1.1-.6-.3-1-.7-1.2-1.1-.2-.4-.4-.8-.4-1.3 0-.7.3-1.2.8-1.6.3-.3 1-.5 1.9-.5zm-1.7 7c0 .4.2.8.5 1s.7.4 1.3.4c.5 0 1-.1 1.3-.4.3-.3.5-.6.5-1 0-.3-.1-.7-.4-.9-.3-.3-.7-.5-1.3-.8l-.2-.1c-.6.2-1 .5-1.2.8s-.5.6-.5 1zm1.7-5.9c-.4 0-.8.1-1 .3-.3.2-.4.5-.4.9 0 .2 0 .4.1.6.1.2.2.3.4.5s.5.3.9.5c.5-.2.9-.5 1.1-.7.2-.2.3-.5.3-.9s-.1-.6-.4-.9c-.2-.1-.6-.3-1-.3z" class="stsvg1"/></g><g class="stsvg0"><path d="M154.1 1419h-1.5v-6c0-.7 0-1.3.1-1.7-.1.1-.2.2-.4.3-.1.1-.6.5-1.4 1.2l-.7-.9 2.7-2.1h1.2v9.2zm9.3-5.3c0 1.8-.4 3.2-1.1 4.1-.7.9-1.8 1.4-3.3 1.4-.6 0-1 0-1.2-.1v-1.2c.4.1.8.2 1.1.2 1 0 1.8-.3 2.3-.8s.8-1.4.8-2.6h-.1c-.2.4-.6.7-.9.8-.4.2-.8.3-1.2.3-.8 0-1.5-.3-1.9-.8-.5-.5-.7-1.2-.7-2.1 0-1 .3-1.7.8-2.3.5-.6 1.3-.9 2.2-.9.7 0 1.2.2 1.7.5s.9.8 1.1 1.4.4 1.2.4 2.1zm-3.2-2.9c-.5 0-.9.2-1.2.5-.3.3-.4.8-.4 1.4 0 .5.1.9.4 1.2.3.3.6.5 1.2.5.5 0 .9-.1 1.3-.5s.5-.7.5-1.1c0-.4-.1-.7-.2-1.1-.1-.3-.4-.6-.6-.8-.4 0-.7-.1-1-.1z" class="stsvg1"/></g><g class="stsvg0"><path d="M156 1452h-6.3v-1.1l2.4-2.4c.7-.7 1.2-1.2 1.4-1.5.2-.3.4-.6.5-.9s.2-.6.2-.9c0-.4-.1-.8-.4-1-.3-.2-.6-.4-1-.4s-.7.1-1 .2c-.3.1-.7.4-1.2.7l-.8-1c.5-.4 1-.7 1.5-.9s1-.3 1.6-.3c.9 0 1.6.2 2.1.7.5.5.8 1.1.8 1.8 0 .4-.1.8-.2 1.2-.1.4-.4.8-.7 1.2-.3.4-.8.9-1.6 1.6l-1.6 1.6v.1h4.4v1.3zm7.4-4.6c0 1.6-.3 2.8-.8 3.6-.5.8-1.3 1.2-2.4 1.2-1 0-1.8-.4-2.3-1.2-.5-.8-.8-2-.8-3.6s.3-2.8.8-3.6c.5-.8 1.3-1.2 2.4-1.2 1 0 1.8.4 2.4 1.2s.7 2 .7 3.6zm-4.8 0c0 1.3.1 2.2.4 2.7.3.5.7.8 1.2.8s1-.3 1.3-.8c.3-.5.4-1.4.4-2.7 0-1.2-.1-2.1-.4-2.7-.3-.6-.7-.8-1.3-.8s-1 .3-1.2.8c-.2.5-.4 1.4-.4 2.7z" class="stsvg1"/></g><g class="stsvg0"><path d="M156 1485h-6.3v-1.1l2.4-2.4c.7-.7 1.2-1.2 1.4-1.5.2-.3.4-.6.5-.9s.2-.6.2-.9c0-.4-.1-.8-.4-1-.3-.2-.6-.4-1-.4s-.7.1-1 .2c-.3.1-.7.4-1.2.7l-.8-1c.5-.4 1-.7 1.5-.9s1-.3 1.6-.3c.9 0 1.6.2 2.1.7.5.5.8 1.1.8 1.8 0 .4-.1.8-.2 1.2-.1.4-.4.8-.7 1.2-.3.4-.8.9-1.6 1.6l-1.6 1.6v.1h4.4v1.3zm5.5 0H160v-6c0-.7 0-1.3.1-1.7-.1.1-.2.2-.4.3-.1.1-.6.5-1.4 1.2l-.7-.9 2.7-2.1h1.2v9.2z" class="stsvg1"/></g><g class="stsvg0"><path d="m107.8 915 2.2-4.2h1.7l-3.1 5.7v3.6H107v-3.5l-3.1-5.7h1.7l2.2 4.1zm10.9 5h-5.2v-9.3h5.2v1.3H115v2.5h3.5v1.3H115v2.9h3.7v1.3zm8.5 0-.9-2.6h-3.5l-.9 2.6h-1.6l3.5-9.3h1.7l3.5 9.3h-1.8zm-1.4-3.9-.9-2.5c-.1-.2-.2-.4-.3-.8-.1-.4-.2-.6-.2-.8-.1.5-.3 1.1-.5 1.7l-.8 2.4h2.7zm6.4.2v3.7h-1.5v-9.3h2.6c1.2 0 2.1.2 2.7.7s.9 1.1.9 2c0 1.2-.6 2-1.8 2.5l2.6 4.1H136l-2.2-3.7h-1.6zm0-1.3h1.1c.7 0 1.2-.1 1.5-.4s.5-.7.5-1.2-.2-.9-.5-1.1-.9-.3-1.5-.3h-1v3zm12.8 2.5c0 .8-.3 1.5-.9 1.9-.6.5-1.4.7-2.5.7s-1.9-.2-2.6-.5v-1.4c.4.2.9.4 1.3.5.5.1.9.2 1.3.2.6 0 1-.1 1.3-.3.3-.2.4-.5.4-.9 0-.3-.1-.6-.4-.9s-.8-.5-1.6-.9c-.8-.3-1.4-.7-1.8-1.2s-.5-1-.5-1.6c0-.8.3-1.4.8-1.8s1.3-.7 2.2-.7c.9 0 1.8.2 2.7.6l-.5 1.2c-.8-.3-1.6-.5-2.2-.5-.5 0-.9.1-1.1.3s-.4.5-.4.8c0 .2.1.4.2.6.1.2.3.3.5.5s.7.4 1.3.6c.7.3 1.2.5 1.5.8s.6.5.7.8c.2.4.3.8.3 1.2zm14.7-2.2c0 1.5-.4 2.7-1.1 3.5-.8.8-1.8 1.3-3.2 1.3-1.4 0-2.5-.4-3.2-1.2-.8-.8-1.1-2-1.1-3.5s.4-2.7 1.1-3.5c.8-.8 1.8-1.2 3.2-1.2 1.4 0 2.4.4 3.2 1.2s1.1 1.9 1.1 3.4zm-7.1 0c0 1.1.2 2 .7 2.6.5.6 1.1.9 2.1.9.9 0 1.6-.3 2-.9.5-.6.7-1.5.7-2.6s-.2-2-.7-2.6c-.5-.6-1.1-.9-2-.9-.9 0-1.6.3-2.1.9-.5.6-.7 1.5-.7 2.6zm11.2 4.7h-1.5v-9.3h5.2v1.3h-3.7v2.9h3.5v1.3h-3.5v3.8z" class="stsvg1"/></g><g class="stsvg0"><path d="M130.7 935.5c0 .8-.3 1.5-.9 1.9-.6.5-1.4.7-2.5.7s-1.9-.2-2.6-.5v-1.4c.4.2.9.4 1.3.5.5.1.9.2 1.3.2.6 0 1-.1 1.3-.3.3-.2.4-.5.4-.9 0-.3-.1-.6-.4-.9s-.8-.5-1.6-.9c-.8-.3-1.4-.7-1.8-1.2s-.5-1-.5-1.6c0-.8.3-1.4.8-1.8s1.3-.7 2.2-.7c.9 0 1.8.2 2.7.6l-.5 1.2c-.8-.3-1.6-.5-2.2-.5-.5 0-.9.1-1.1.3s-.4.5-.4.8c0 .2.1.4.2.6.1.2.3.3.5.5s.7.4 1.3.6c.7.3 1.2.5 1.5.8s.6.5.7.8c.2.4.3.8.3 1.2zm5.7 2.5h-1.5v-8h-2.7v-1.3h7v1.3h-2.7v8zm12-9.3v6c0 .7-.1 1.3-.4 1.8-.3.5-.7.9-1.3 1.2-.6.3-1.2.4-2 .4-1.2 0-2-.3-2.7-.9s-1-1.4-1-2.5v-6h1.5v5.9c0 .8.2 1.3.5 1.7s.9.5 1.6.5c1.4 0 2.1-.8 2.1-2.3v-5.9h1.7zm10.6 4.6c0 1.5-.4 2.7-1.3 3.5s-2.1 1.2-3.7 1.2h-2.6v-9.3h2.9c1.5 0 2.6.4 3.4 1.2s1.3 1.9 1.3 3.4zm-1.6 0c0-2.2-1-3.3-3.1-3.3H153v6.7h1.1c2.2 0 3.3-1.1 3.3-3.4zm6.9-.3 2.2-4.2h1.7l-3.1 5.7v3.6h-1.5v-3.5l-3.1-5.7h1.7l2.1 4.1z" class="stsvg1"/></g><path id="Rectangle_274" d="M221 958h745v34H221z" class="stsvg2"/><path id="Rectangle_275" d="M221 997h745v72H221z" class="stsvg2"/><path id="Rectangle_276" d="M221 1074h745v72H221z" style="opacity:.501;fill:#d7d8e6;enable-background:new"/><path id="Rectangle_281" d="M738 1151h228v62H738z" class="stsvg4"/><path id="Rectangle_283" d="M221 1562h745v132H221z" class="stsvg1"/><path id="Rectangle_277" d="M475 1151h238v62H475z" class="stsvg4"/><path id="Rectangle_282" d="M221 1151h228v103H221z" class="stsvg4"/><g class="stsvg0"><path d="M560.7 974.5c0 1-.3 1.7-1 2.2-.6.5-1.5.8-2.7.8h-1v3.5h-1.5v-9.3h2.7c1.2 0 2 .2 2.6.7.6.5.9 1.2.9 2.1zm-4.7 1.8h.8c.8 0 1.4-.1 1.7-.4s.5-.7.5-1.3c0-.5-.2-.9-.5-1.2s-.8-.4-1.5-.4h-1v3.3zm8.7 1v3.7h-1.5v-9.3h2.6c1.2 0 2.1.2 2.7.7s.9 1.1.9 2c0 1.2-.6 2-1.8 2.5l2.6 4.1h-1.7l-2.2-3.7h-1.6zm0-1.3h1.1c.7 0 1.2-.1 1.5-.4s.5-.7.5-1.2-.2-.9-.5-1.1-.9-.3-1.5-.3h-1v3zm12.7 5h-5.2v-9.3h5.2v1.3h-3.7v2.5h3.5v1.3h-3.5v2.9h3.7v1.3zm8-2.5c0 .8-.3 1.5-.9 1.9-.6.5-1.4.7-2.5.7-1 0-1.9-.2-2.6-.5v-1.4c.4.2.9.4 1.3.5.5.1.9.2 1.3.2.6 0 1-.1 1.3-.3.3-.2.4-.5.4-.9 0-.3-.1-.6-.4-.9-.3-.2-.8-.5-1.6-.9-.8-.3-1.4-.7-1.8-1.2s-.5-1-.5-1.6c0-.8.3-1.4.8-1.8s1.3-.7 2.2-.7c.9 0 1.8.2 2.7.6l-.5 1.2c-.8-.3-1.6-.5-2.2-.5-.5 0-.9.1-1.1.3s-.4.5-.4.8c0 .2.1.4.2.6.1.2.3.3.5.5s.7.4 1.3.6c.7.3 1.2.5 1.5.8s.6.5.7.8c.2.4.3.8.3 1.2zm6.4-5.6c-.9 0-1.6.3-2.1.9-.5.6-.7 1.5-.7 2.6s.2 2 .7 2.6c.5.6 1.2.9 2.1.9.4 0 .8 0 1.1-.1s.8-.2 1.1-.3v1.3c-.7.3-1.6.4-2.5.4-1.4 0-2.4-.4-3.1-1.2-.7-.8-1.1-2-1.1-3.5 0-1 .2-1.8.5-2.5.4-.7.9-1.3 1.5-1.7.7-.4 1.5-.6 2.4-.6.9 0 1.8.2 2.6.6l-.5 1.3c-.3-.1-.6-.3-1-.4-.3-.3-.6-.3-1-.3zM604 981h-1.5v-4.2h-4.3v4.2h-1.5v-9.3h1.5v3.8h4.3v-3.8h1.5v9.3zm11.4-4.7c0 1.5-.4 2.7-1.1 3.5-.8.8-1.8 1.3-3.2 1.3-1.4 0-2.5-.4-3.2-1.2-.8-.8-1.1-2-1.1-3.5s.4-2.7 1.1-3.5c.8-.8 1.8-1.2 3.2-1.2 1.4 0 2.4.4 3.2 1.2.7.8 1.1 1.9 1.1 3.4zm-7.1 0c0 1.1.2 2 .7 2.6.5.6 1.1.9 2.1.9.9 0 1.6-.3 2-.9.5-.6.7-1.5.7-2.6s-.2-2-.7-2.6c-.5-.6-1.1-.9-2-.9-.9 0-1.6.3-2.1.9-.5.6-.7 1.5-.7 2.6zm17.9 0c0 1.5-.4 2.7-1.1 3.5-.8.8-1.8 1.3-3.2 1.3-1.4 0-2.5-.4-3.2-1.2-.8-.8-1.1-2-1.1-3.5s.4-2.7 1.1-3.5c.8-.8 1.8-1.2 3.2-1.2 1.4 0 2.4.4 3.2 1.2.8.8 1.1 1.9 1.1 3.4zm-7 0c0 1.1.2 2 .7 2.6.5.6 1.1.9 2 .9.9 0 1.6-.3 2-.9s.7-1.5.7-2.6-.2-2-.7-2.6c-.5-.6-1.1-.9-2-.9-.9 0-1.6.3-2.1.9-.4.6-.6 1.5-.6 2.6zm9.7 4.7v-9.3h1.5v8h3.9v1.3h-5.4z" class="stsvg1"/></g><g class="stsvg0"><path d="M514.5 1038h-5.2v-9.3h5.2v1.3h-3.7v2.5h3.5v1.3h-3.5v2.9h3.7v1.3zm2.7 0v-9.3h1.5v8h3.9v1.3h-5.4zm12.9 0h-5.2v-9.3h5.2v1.3h-3.7v2.5h3.5v1.3h-3.5v2.9h3.7v1.3zm6.7 0-2.7-7.8h-.1c.1 1.2.1 2.2.1 3.2v4.5h-1.4v-9.3h2.1l2.6 7.4 2.7-7.4h2.1v9.3h-1.5v-6.4c0-.7 0-1.2.1-1.3h-.1l-2.8 7.7h-1.1zm13.9 0h-5.2v-9.3h5.2v1.3H547v2.5h3.5v1.3H547v2.9h3.7v1.3zm10.4 0h-1.9l-4.6-7.4h-.1v.4c.1.8.1 1.5.1 2.2v4.8h-1.4v-9.3h1.8l4.6 7.4c0-.1 0-.5-.1-1.1s0-1.1 0-1.4v-4.9h1.4v9.3zm6.3 0h-1.5v-8h-2.7v-1.3h7v1.3h-2.7v8zm10.5 0-.9-2.6h-3.5l-.9 2.6H571l3.5-9.3h1.7l3.5 9.3h-1.8zm-1.3-3.9-.9-2.5c-.1-.2-.2-.4-.3-.8-.1-.4-.2-.6-.2-.8-.1.5-.3 1.1-.5 1.7l-.8 2.4h2.7zm6.3.2v3.7h-1.5v-9.3h2.6c1.2 0 2.1.2 2.7.7s.9 1.1.9 2c0 1.2-.6 2-1.8 2.5l2.6 4.1h-1.7l-2.2-3.7h-1.6zm0-1.3h1.1c.7 0 1.2-.1 1.5-.4.3-.3.5-.7.5-1.2s-.2-.9-.5-1.1c-.3-.2-.9-.3-1.5-.3h-1v3zm10.1 0 2.2-4.2h1.7l-3.1 5.7v3.6h-1.5v-3.5l-3.1-5.7h1.7l2.1 4.1zm15 5h-5.2v-9.3h5.2v1.3h-3.7v2.5h3.5v1.3h-3.5v2.9h3.7v1.3zm10.2-4.7c0 1.5-.4 2.7-1.3 3.5s-2.1 1.2-3.7 1.2h-2.6v-9.3h2.9c1.5 0 2.6.4 3.4 1.2.9.8 1.3 1.9 1.3 3.4zm-1.6 0c0-2.2-1-3.3-3.1-3.3h-1.3v6.7h1.1c2.2 0 3.3-1.1 3.3-3.4zm11.5-4.6v6c0 .7-.1 1.3-.4 1.8-.3.5-.7.9-1.3 1.2s-1.2.4-2 .4c-1.2 0-2-.3-2.7-.9-.6-.6-1-1.4-1-2.5v-6h1.5v5.9c0 .8.2 1.3.5 1.7s.9.5 1.6.5c1.4 0 2.1-.8 2.1-2.3v-5.9h1.7zm7 1.2c-.9 0-1.6.3-2.1.9s-.7 1.5-.7 2.6.2 2 .7 2.6c.5.6 1.2.9 2.1.9.4 0 .8 0 1.1-.1s.8-.2 1.1-.3v1.3c-.7.3-1.6.4-2.5.4-1.4 0-2.4-.4-3.1-1.2s-1.1-2-1.1-3.5c0-1 .2-1.8.5-2.5s.9-1.3 1.5-1.7c.7-.4 1.5-.6 2.4-.6.9 0 1.8.2 2.6.6l-.5 1.3c-.3-.1-.6-.3-1-.4s-.6-.3-1-.3zm10.7 8.1-.9-2.6h-3.5l-.9 2.6h-1.6l3.5-9.3h1.7l3.5 9.3h-1.8zm-1.3-3.9-.9-2.5c-.1-.2-.2-.4-.3-.8-.1-.4-.2-.6-.2-.8-.1.5-.3 1.1-.5 1.7l-.8 2.4h2.7zm8 3.9H651v-8h-2.7v-1.3h7v1.3h-2.7v8zm4.8 0v-9.3h1.5v9.3h-1.5zm12.9-4.7c0 1.5-.4 2.7-1.1 3.5-.8.8-1.8 1.3-3.2 1.3-1.4 0-2.5-.4-3.2-1.2-.8-.8-1.1-2-1.1-3.5s.4-2.7 1.1-3.5c.8-.8 1.8-1.2 3.2-1.2 1.4 0 2.4.4 3.2 1.2.7.8 1.1 1.9 1.1 3.4zm-7.1 0c0 1.1.2 2 .7 2.6.5.6 1.1.9 2 .9.9 0 1.6-.3 2-.9s.7-1.5.7-2.6-.2-2-.7-2.6c-.5-.6-1.1-.9-2-.9-.9 0-1.6.3-2.1.9-.4.6-.6 1.5-.6 2.6zm17.4 4.7h-1.9l-4.6-7.4h-.1v.4c.1.8.1 1.5.1 2.2v4.8h-1.4v-9.3h1.8l4.6 7.4c0-.1 0-.5-.1-1.1s0-1.1 0-1.4v-4.9h1.4v9.3z" class="stsvg1"/></g><g class="stsvg0"><path d="M517.6 1112.5c0 .8-.3 1.5-.9 1.9-.6.5-1.4.7-2.5.7s-1.9-.2-2.6-.5v-1.4c.4.2.9.4 1.3.5.5.1.9.2 1.3.2.6 0 1-.1 1.3-.3.3-.2.4-.5.4-.9 0-.3-.1-.6-.4-.9s-.8-.5-1.6-.9c-.8-.3-1.4-.7-1.8-1.2s-.5-1-.5-1.6c0-.8.3-1.4.8-1.8s1.3-.7 2.2-.7c.9 0 1.8.2 2.7.6l-.5 1.2c-.8-.3-1.6-.5-2.2-.5-.5 0-.9.1-1.1.3s-.4.5-.4.8c0 .2.1.4.2.6.1.2.3.3.5.5s.7.4 1.3.6c.7.3 1.2.5 1.5.8s.6.5.7.8c.3.4.3.8.3 1.2zm7.7 2.5h-5.2v-9.3h5.2v1.3h-3.7v2.5h3.5v1.3h-3.5v2.9h3.7v1.3zm6.6-8.1c-.9 0-1.6.3-2.1.9s-.7 1.5-.7 2.6.2 2 .7 2.6c.5.6 1.2.9 2.1.9.4 0 .8 0 1.1-.1s.8-.2 1.1-.3v1.3c-.7.3-1.6.4-2.5.4-1.4 0-2.4-.4-3.1-1.2s-1.1-2-1.1-3.5c0-1 .2-1.8.5-2.5.4-.7.9-1.3 1.5-1.7s1.5-.6 2.4-.6c.9 0 1.8.2 2.6.6l-.5 1.3c-.3-.1-.6-.3-1-.4-.2-.3-.6-.3-1-.3zm13.2 3.4c0 1.5-.4 2.7-1.1 3.5-.8.8-1.8 1.3-3.2 1.3-1.4 0-2.5-.4-3.2-1.2-.8-.8-1.1-2-1.1-3.5s.4-2.7 1.1-3.5c.8-.8 1.8-1.2 3.2-1.2 1.4 0 2.4.4 3.2 1.2s1.1 1.9 1.1 3.4zm-7.1 0c0 1.1.2 2 .7 2.6.5.6 1.1.9 2.1.9.9 0 1.6-.3 2-.9.5-.6.7-1.5.7-2.6s-.2-2-.7-2.6c-.5-.6-1.1-.9-2-.9-.9 0-1.6.3-2.1.9-.4.6-.7 1.5-.7 2.6zm17.5 4.7h-1.9l-4.6-7.4v.4c.1.8.1 1.5.1 2.2v4.8h-1.4v-9.3h1.8l4.6 7.4c0-.1 0-.5-.1-1.1s0-1.1 0-1.4v-4.9h1.4v9.3zm10.6-4.7c0 1.5-.4 2.7-1.3 3.5s-2.1 1.2-3.7 1.2h-2.6v-9.3h2.9c1.5 0 2.6.4 3.4 1.2s1.3 1.9 1.3 3.4zm-1.6 0c0-2.2-1-3.3-3.1-3.3h-1.3v6.7h1.1c2.2 0 3.3-1.1 3.3-3.4zm10 4.7-.9-2.6h-3.5l-.9 2.6h-1.6l3.5-9.3h1.7l3.5 9.3h-1.8zm-1.3-3.9-.9-2.5c-.1-.2-.2-.4-.3-.8-.1-.4-.2-.6-.2-.8-.1.5-.3 1.1-.5 1.7l-.8 2.4h2.7zm6.4.2v3.7H578v-9.3h2.6c1.2 0 2.1.2 2.7.7.6.4.9 1.1.9 2 0 1.2-.6 2-1.8 2.5l2.6 4.1h-1.7l-2.2-3.7h-1.5zm0-1.3h1.1c.7 0 1.2-.1 1.5-.4s.5-.7.5-1.2-.2-.9-.5-1.1-.9-.3-1.5-.3h-1v3zm10 0 2.2-4.2h1.7l-3.1 5.7v3.6h-1.5v-3.5l-3.1-5.7h1.7l2.1 4.1zm15 5h-5.2v-9.3h5.2v1.3h-3.7v2.5h3.5v1.3h-3.5v2.9h3.7v1.3zm10.2-4.7c0 1.5-.4 2.7-1.3 3.5s-2.1 1.2-3.7 1.2h-2.6v-9.3h2.9c1.5 0 2.6.4 3.4 1.2.9.8 1.3 1.9 1.3 3.4zm-1.6 0c0-2.2-1-3.3-3.1-3.3h-1.3v6.7h1.1c2.2 0 3.3-1.1 3.3-3.4zm11.5-4.6v6c0 .7-.1 1.3-.4 1.8-.3.5-.7.9-1.3 1.2-.6.3-1.2.4-2 .4-1.2 0-2-.3-2.7-.9-.6-.6-1-1.4-1-2.5v-6h1.5v5.9c0 .8.2 1.3.5 1.7s.9.5 1.6.5c1.4 0 2.1-.8 2.1-2.3v-5.9h1.7zm7 1.2c-.9 0-1.6.3-2.1.9-.5.6-.7 1.5-.7 2.6s.2 2 .7 2.6c.5.6 1.2.9 2.1.9.4 0 .8 0 1.1-.1s.8-.2 1.1-.3v1.3c-.7.3-1.6.4-2.5.4-1.4 0-2.4-.4-3.1-1.2-.7-.8-1.1-2-1.1-3.5 0-1 .2-1.8.5-2.5.4-.7.9-1.3 1.5-1.7.7-.4 1.5-.6 2.4-.6.9 0 1.8.2 2.6.6l-.5 1.3c-.3-.1-.6-.3-1-.4-.2-.3-.6-.3-1-.3zm10.7 8.1-.9-2.6H638l-.9 2.6h-1.6l3.5-9.3h1.7l3.5 9.3h-1.8zm-1.3-3.9-.9-2.5c-.1-.2-.2-.4-.3-.8s-.2-.6-.2-.8c-.1.5-.3 1.1-.5 1.7l-.8 2.4h2.7zm8 3.9h-1.5v-8h-2.7v-1.3h7v1.3h-2.7v8zm4.8 0v-9.3h1.5v9.3h-1.5zm12.9-4.7c0 1.5-.4 2.7-1.1 3.5-.8.8-1.8 1.3-3.2 1.3-1.4 0-2.5-.4-3.2-1.2-.8-.8-1.1-2-1.1-3.5s.4-2.7 1.1-3.5c.8-.8 1.8-1.2 3.2-1.2 1.4 0 2.4.4 3.2 1.2.7.8 1.1 1.9 1.1 3.4zm-7.1 0c0 1.1.2 2 .7 2.6.5.6 1.1.9 2.1.9.9 0 1.6-.3 2-.9.5-.6.7-1.5.7-2.6s-.2-2-.7-2.6c-.5-.6-1.1-.9-2-.9-.9 0-1.6.3-2.1.9-.5.6-.7 1.5-.7 2.6zm17.4 4.7h-1.9l-4.6-7.4h-.1v.4c.1.8.1 1.5.1 2.2v4.8h-1.4v-9.3h1.8l4.6 7.4c0-.1 0-.5-.1-1.1s0-1.1 0-1.4v-4.9h1.4v9.3z" class="stsvg1"/></g><g class="stsvg0"><path d="M763.6 1172.5c0 1-.3 1.7-1 2.2-.6.5-1.5.8-2.7.8h-1v3.5h-1.5v-9.3h2.7c1.2 0 2 .2 2.6.7.7.5.9 1.2.9 2.1zm-4.6 1.8h.8c.8 0 1.4-.1 1.7-.4.4-.3.5-.7.5-1.3 0-.5-.2-.9-.5-1.2-.3-.3-.8-.4-1.5-.4h-1v3.3zm12.9 4.7-.9-2.6h-3.5l-.9 2.6H765l3.5-9.3h1.7l3.5 9.3h-1.8zm-1.3-3.9-.9-2.5c-.1-.2-.2-.4-.3-.8-.1-.4-.2-.6-.2-.8-.1.5-.3 1.1-.5 1.7l-.8 2.4h2.7zm6.3.2v3.7h-1.5v-9.3h2.6c1.2 0 2.1.2 2.7.7.6.4.9 1.1.9 2 0 1.2-.6 2-1.8 2.5l2.6 4.1h-1.7l-2.2-3.7h-1.6zm0-1.3h1.1c.7 0 1.2-.1 1.5-.4s.5-.7.5-1.2-.2-.9-.5-1.1-.9-.3-1.5-.3h-1v3zm10.7 5H786v-8h-2.7v-1.3h7v1.3h-2.7v8zm4-2.8v-1.3h3.3v1.3h-3.3zm8.8 2.8h-1.5v-8h-2.7v-1.3h7v1.3h-2.7v8zm4.8 0v-9.3h1.5v9.3h-1.5zm8.6 0-2.7-7.8h-.1c.1 1.2.1 2.2.1 3.2v4.5h-1.4v-9.3h2.1l2.6 7.4 2.7-7.4h2.1v9.3h-1.5v-6.4c0-.7 0-1.2.1-1.3h.2l-2.8 7.7h-1.4zm13.9 0h-5.2v-9.3h5.2v1.3H824v2.5h3.5v1.3H824v2.9h3.7v1.3zm10.6-8.1c-.9 0-1.6.3-2.1.9-.5.6-.7 1.5-.7 2.6s.2 2 .7 2.6 1.2.9 2.1.9c.4 0 .8 0 1.1-.1s.8-.2 1.1-.3v1.3c-.7.3-1.6.4-2.5.4-1.4 0-2.4-.4-3.1-1.2-.7-.8-1.1-2-1.1-3.5 0-1 .2-1.8.5-2.5s.9-1.3 1.5-1.7c.7-.4 1.5-.6 2.4-.6.9 0 1.8.2 2.6.6l-.5 1.3c-.3-.1-.6-.3-1-.4-.2-.3-.6-.3-1-.3zm6.5 4.4v3.7h-1.5v-9.3h2.6c1.2 0 2.1.2 2.7.7.6.4.9 1.1.9 2 0 1.2-.6 2-1.8 2.5l2.6 4.1h-1.7l-2.2-3.7h-1.6zm0-1.3h1.1c.7 0 1.2-.1 1.5-.4s.5-.7.5-1.2-.2-.9-.5-1.1-.9-.3-1.5-.3h-1v3zm12.7 5h-5.2v-9.3h5.2v1.3h-3.7v2.5h3.5v1.3h-3.5v2.9h3.7v1.3zm10.2-4.7c0 1.5-.4 2.7-1.3 3.5s-2.1 1.2-3.7 1.2h-2.6v-9.3h2.9c1.5 0 2.6.4 3.4 1.2.9.8 1.3 1.9 1.3 3.4zm-1.6 0c0-2.2-1-3.3-3.1-3.3h-1.3v6.7h1.1c2.2 0 3.3-1.1 3.3-3.4zm4.2 4.7v-9.3h1.5v9.3h-1.5zm7.9 0h-1.5v-8H874v-1.3h7v1.3h-2.7v8zm12.7-8.1c-.9 0-1.6.3-2.1.9-.5.6-.7 1.5-.7 2.6s.2 2 .7 2.6c.5.6 1.2.9 2.1.9.4 0 .8 0 1.1-.1s.8-.2 1.1-.3v1.3c-.7.3-1.6.4-2.5.4-1.4 0-2.4-.4-3.1-1.2-.7-.8-1.1-2-1.1-3.5 0-1 .2-1.8.5-2.5.4-.7.9-1.3 1.5-1.7.7-.4 1.5-.6 2.4-.6.9 0 1.8.2 2.6.6l-.5 1.3c-.3-.1-.6-.3-1-.4-.2-.3-.6-.3-1-.3zm13.2 3.4c0 1.5-.4 2.7-1.1 3.5-.8.8-1.8 1.3-3.2 1.3-1.4 0-2.5-.4-3.2-1.2-.8-.8-1.1-2-1.1-3.5s.4-2.7 1.1-3.5c.8-.8 1.8-1.2 3.2-1.2 1.4 0 2.4.4 3.2 1.2.7.8 1.1 1.9 1.1 3.4zm-7.1 0c0 1.1.2 2 .7 2.6.5.6 1.1.9 2.1.9.9 0 1.6-.3 2-.9.5-.6.7-1.5.7-2.6s-.2-2-.7-2.6c-.5-.6-1.1-.9-2-.9-.9 0-1.6.3-2.1.9-.4.6-.7 1.5-.7 2.6zm17-4.6v6c0 .7-.1 1.3-.4 1.8-.3.5-.7.9-1.3 1.2s-1.2.4-2 .4c-1.2 0-2-.3-2.7-.9-.6-.6-1-1.4-1-2.5v-6h1.5v5.9c0 .8.2 1.3.5 1.7s.9.5 1.6.5c1.4 0 2.1-.8 2.1-2.3v-5.9h1.7zm4.6 5.6v3.7h-1.5v-9.3h2.6c1.2 0 2.1.2 2.7.7.6.4.9 1.1.9 2 0 1.2-.6 2-1.8 2.5l2.6 4.1h-1.7l-2.2-3.7h-1.6zm0-1.3h1.1c.7 0 1.2-.1 1.5-.4s.5-.7.5-1.2-.2-.9-.5-1.1-.9-.3-1.5-.3h-1v3zm12.8 2.5c0 .8-.3 1.5-.9 1.9-.6.5-1.4.7-2.5.7-1 0-1.9-.2-2.6-.5v-1.4c.4.2.9.4 1.3.5.5.1.9.2 1.3.2.6 0 1-.1 1.3-.3.3-.2.4-.5.4-.9 0-.3-.1-.6-.4-.9-.3-.2-.8-.5-1.6-.9-.8-.3-1.4-.7-1.8-1.2-.3-.4-.5-1-.5-1.6 0-.8.3-1.4.8-1.8.5-.4 1.3-.7 2.2-.7.9 0 1.8.2 2.7.6l-.5 1.2c-.8-.3-1.6-.5-2.2-.5-.5 0-.9.1-1.1.3s-.4.5-.4.8c0 .2.1.4.2.6.1.2.3.3.5.5s.7.4 1.3.6c.7.3 1.2.5 1.5.8s.5.5.7.8c.2.4.3.8.3 1.2zm7.7 2.5h-5.2v-9.3h5.2v1.3h-3.7v2.5h3.5v1.3h-3.5v2.9h3.7v1.3zm8-2.5c0 .8-.3 1.5-.9 1.9-.6.5-1.4.7-2.5.7-1 0-1.9-.2-2.6-.5v-1.4c.4.2.9.4 1.3.5.5.1.9.2 1.3.2.6 0 1-.1 1.3-.3.3-.2.4-.5.4-.9 0-.3-.1-.6-.4-.9-.3-.2-.8-.5-1.6-.9-.8-.3-1.4-.7-1.8-1.2-.3-.4-.5-1-.5-1.6 0-.8.3-1.4.8-1.8.5-.4 1.3-.7 2.2-.7.9 0 1.8.2 2.7.6l-.5 1.2c-.8-.3-1.6-.5-2.2-.5-.5 0-.9.1-1.1.3s-.4.5-.4.8c0 .2.1.4.2.6.1.2.3.3.5.5s.7.4 1.3.6c.7.3 1.2.5 1.5.8s.5.5.7.8c.2.4.3.8.3 1.2z" class="stsvg5"/></g><g class="stsvg0"><path d="M836.2 1195.4c0-1.1.2-2.2.5-3.1.3-1 .8-1.8 1.4-2.6h1.3c-.6.8-1 1.7-1.4 2.7-.3 1-.5 2-.5 3s.2 2 .5 3 .8 1.8 1.3 2.6H838c-.6-.7-1.1-1.6-1.4-2.5-.2-.9-.4-2-.4-3.1zm11.3 3.6-.9-2.6H843l-.9 2.6h-1.6l3.5-9.3h1.7l3.5 9.3h-1.7zm-1.4-3.9-.9-2.5c-.1-.2-.2-.4-.3-.8-.1-.4-.2-.6-.2-.8-.1.5-.3 1.1-.5 1.7l-.8 2.4h2.7zm8.8-4.2c-.9 0-1.6.3-2.1.9-.5.6-.7 1.5-.7 2.6s.2 2 .7 2.6 1.2.9 2.1.9c.4 0 .8 0 1.1-.1s.8-.2 1.1-.3v1.3c-.7.3-1.6.4-2.5.4-1.4 0-2.4-.4-3.1-1.2-.7-.8-1.1-2-1.1-3.5 0-1 .2-1.8.5-2.5s.9-1.3 1.5-1.7c.7-.4 1.5-.6 2.4-.6.9 0 1.8.2 2.6.6l-.5 1.3c-.3-.1-.6-.3-1-.4-.2-.3-.6-.3-1-.3zm10.3 5.6c0 .8-.3 1.5-.9 1.9-.6.5-1.4.7-2.5.7-1 0-1.9-.2-2.6-.5v-1.4c.4.2.9.4 1.3.5.5.1.9.2 1.3.2.6 0 1-.1 1.3-.3.3-.2.4-.5.4-.9 0-.3-.1-.6-.4-.9-.3-.2-.8-.5-1.6-.9-.8-.3-1.4-.7-1.8-1.2-.3-.4-.5-1-.5-1.6 0-.8.3-1.4.8-1.8.6-.4 1.3-.7 2.2-.7.9 0 1.8.2 2.7.6l-.5 1.2c-.8-.3-1.6-.5-2.2-.5-.5 0-.9.1-1.1.3s-.4.5-.4.8c0 .2.1.4.2.6.1.2.3.3.5.5s.7.4 1.3.6c.7.3 1.2.5 1.5.8s.6.5.7.8c.2.4.3.8.3 1.2zm4.8-1.1c0 1.1-.2 2.1-.5 3.1s-.8 1.8-1.4 2.5h-1.3c.6-.8 1-1.7 1.3-2.6.3-1 .5-2 .5-3s-.2-2-.5-3-.8-1.9-1.4-2.7h1.3c.6.7 1.1 1.6 1.4 2.6.5 1 .6 2 .6 3.1z" class="stsvg5"/></g><g class="stsvg0"><path d="M552.2 1635.6c-.4 0-.8-.1-1-.2v-1.3c.4.1.7.1.9.1.8 0 1.2-.5 1.2-1.6v-9h1.5v8.9c0 .9-.2 1.7-.7 2.2-.4.6-1.1.9-1.9.9zm13.9-7.3c0 1.5-.4 2.7-1.1 3.5-.8.8-1.8 1.3-3.2 1.3-1.4 0-2.5-.4-3.2-1.2-.8-.8-1.1-2-1.1-3.5s.4-2.7 1.1-3.5c.8-.8 1.8-1.2 3.2-1.2 1.4 0 2.4.4 3.2 1.2s1.1 1.9 1.1 3.4zm-7.1 0c0 1.1.2 2 .7 2.6.5.6 1.1.9 2.1.9.9 0 1.6-.3 2-.9.5-.6.7-1.5.7-2.6s-.2-2-.7-2.6c-.5-.6-1.1-.9-2-.9-.9 0-1.6.3-2.1.9-.4.6-.7 1.5-.7 2.6zm9.8-4.6h2.8c1.3 0 2.2.2 2.8.6.6.4.9 1 .9 1.8 0 .5-.1 1-.4 1.4-.3.4-.7.6-1.2.7v.1c.7.1 1.1.4 1.4.7.3.4.5.9.5 1.5 0 .8-.3 1.5-.9 2-.6.5-1.4.7-2.4.7h-3.4v-9.5zm1.5 3.9h1.5c.6 0 1.1-.1 1.4-.3s.4-.5.4-1c0-.4-.2-.8-.5-.9-.3-.2-.8-.3-1.5-.3h-1.3v2.5zm0 1.2v2.9h1.6c.6 0 1.1-.1 1.4-.4.3-.2.5-.6.5-1.2 0-.5-.2-.8-.5-1.1-.3-.2-.8-.3-1.5-.3h-1.5zm15.7 4.2-2.7-7.8h-.1c.1 1.2.1 2.2.1 3.2v4.5H582v-9.3h2.1l2.6 7.4 2.7-7.4h2.1v9.3H590v-6.4c0-.7 0-1.2.1-1.3h-.1l-2.8 7.7H586zm14.4 0-.9-2.6H596l-.9 2.6h-1.6l3.5-9.3h1.7l3.5 9.3h-1.8zm-1.3-3.9-.9-2.5c-.1-.2-.2-.4-.3-.8s-.2-.6-.2-.8c-.1.5-.3 1.1-.5 1.7l-.8 2.4h2.7zm6.3.2v3.7h-1.5v-9.3h2.6c1.2 0 2.1.2 2.7.7s.9 1.1.9 2c0 1.2-.6 2-1.8 2.5l2.6 4.1h-1.7l-2.2-3.7h-1.6zm0-1.3h1.1c.7 0 1.2-.1 1.5-.4.3-.3.5-.7.5-1.2s-.2-.9-.5-1.1c-.3-.2-.9-.3-1.5-.3h-1v3zm14.6 5h-1.8l-2.9-4.2-.9.7v3.5h-1.5v-9.3h1.5v4.4l1.2-1.5 2.5-3h1.7c-1.6 1.9-2.8 3.3-3.5 4.1l3.7 5.3zm7.1 0h-5.2v-9.3h5.2v1.3h-3.7v2.5h3.5v1.3h-3.5v2.9h3.7v1.3zm5.8 0h-1.5v-8h-2.7v-1.3h7v1.3H633v8z" class="stsvg5"/></g><g class="stsvg0"><path d="M502.5 1172.5c0 1-.3 1.7-1 2.2-.6.5-1.5.8-2.7.8h-1v3.5h-1.5v-9.3h2.7c1.2 0 2 .2 2.6.7.6.5.9 1.2.9 2.1zm-4.7 1.8h.8c.8 0 1.4-.1 1.7-.4s.5-.7.5-1.3c0-.5-.2-.9-.5-1.2s-.8-.4-1.5-.4h-1.1v3.3zm8.7 1v3.7H505v-9.3h2.6c1.2 0 2.1.2 2.7.7s.9 1.1.9 2c0 1.2-.6 2-1.8 2.5l2.6 4.1h-1.7l-2.2-3.7h-1.6zm0-1.3h1.1c.7 0 1.2-.1 1.5-.4s.5-.7.5-1.2-.2-.9-.5-1.1-.9-.3-1.5-.3h-1v3zm12.7 5H514v-9.3h5.2v1.3h-3.7v2.5h3.5v1.3h-3.5v2.9h3.7v1.3zm1.9-2.8v-1.3h3.3v1.3h-3.3zm12.8-6.5v6c0 .7-.1 1.3-.4 1.8-.3.5-.7.9-1.3 1.2-.6.3-1.2.4-2 .4-1.2 0-2-.3-2.7-.9s-1-1.4-1-2.5v-6h1.5v5.9c0 .8.2 1.3.5 1.7s.9.5 1.6.5c1.4 0 2.1-.8 2.1-2.3v-5.9h1.7zm10.8 9.3h-1.9l-4.6-7.4h-.1v.4c.1.8.1 1.5.1 2.2v4.8H537v-9.3h1.8l4.6 7.4c0-.1 0-.5-.1-1.1s0-1.1 0-1.4v-4.9h1.4v9.3zm3.1 0v-9.3h1.5v9.3h-1.5zm9.9-9.3h1.6l-3.2 9.3h-1.6l-3.2-9.3h1.6l1.9 5.8c.1.3.2.6.3 1.1s.2.8.2 1c.1-.3.1-.7.3-1.1.1-.4.2-.7.3-.9l1.8-5.9zm8.7 9.3h-5.2v-9.3h5.2v1.3h-3.7v2.5h3.5v1.3h-3.5v2.9h3.7v1.3zm4.2-3.7v3.7H569v-9.3h2.6c1.2 0 2.1.2 2.7.7s.9 1.1.9 2c0 1.2-.6 2-1.8 2.5l2.6 4.1h-1.7l-2.2-3.7h-1.5zm0-1.3h1.1c.7 0 1.2-.1 1.5-.4s.5-.7.5-1.2-.2-.9-.5-1.1-.9-.3-1.5-.3h-1v3zm12.8 2.5c0 .8-.3 1.5-.9 1.9-.6.5-1.4.7-2.5.7s-1.9-.2-2.6-.5v-1.4c.4.2.9.4 1.3.5.5.1.9.2 1.3.2.6 0 1-.1 1.3-.3.3-.2.4-.5.4-.9 0-.3-.1-.6-.4-.9s-.8-.5-1.6-.9c-.8-.3-1.4-.7-1.8-1.2s-.5-1-.5-1.6c0-.8.3-1.4.8-1.8s1.3-.7 2.2-.7c.9 0 1.8.2 2.7.6l-.5 1.2c-.8-.3-1.6-.5-2.2-.5-.5 0-.9.1-1.1.3s-.4.5-.4.8c0 .2.1.4.2.6.1.2.3.3.5.5s.7.4 1.3.6c.7.3 1.2.5 1.5.8s.6.5.7.8c.2.4.3.8.3 1.2zm2.4 2.5v-9.3h1.5v9.3h-1.5zm7.8 0h-1.5v-8h-2.7v-1.3h7v1.3h-2.7v8zm7.5-5 2.2-4.2h1.7l-3.1 5.7v3.6h-1.5v-3.5l-3.1-5.7h1.7l2.1 4.1zm14.9 5h-5.2v-9.3h5.2v1.3h-3.7v2.5h3.5v1.3h-3.5v2.9h3.7v1.3zm10.3-4.7c0 1.5-.4 2.7-1.3 3.5s-2.1 1.2-3.7 1.2h-2.6v-9.3h2.9c1.5 0 2.6.4 3.4 1.2.8.8 1.3 1.9 1.3 3.4zm-1.6 0c0-2.2-1-3.3-3.1-3.3h-1.3v6.7h1.1c2.1 0 3.3-1.1 3.3-3.4zm11.5-4.6v6c0 .7-.1 1.3-.4 1.8-.3.5-.7.9-1.3 1.2-.6.3-1.2.4-2 .4-1.2 0-2-.3-2.7-.9-.6-.6-1-1.4-1-2.5v-6h1.5v5.9c0 .8.2 1.3.5 1.7s.9.5 1.6.5c1.4 0 2.1-.8 2.1-2.3v-5.9h1.7zm6.9 1.2c-.9 0-1.6.3-2.1.9-.5.6-.7 1.5-.7 2.6s.2 2 .7 2.6c.5.6 1.2.9 2.1.9.4 0 .8 0 1.1-.1s.8-.2 1.1-.3v1.3c-.7.3-1.6.4-2.5.4-1.4 0-2.4-.4-3.1-1.2-.7-.8-1.1-2-1.1-3.5 0-1 .2-1.8.5-2.5.4-.7.9-1.3 1.5-1.7.7-.4 1.5-.6 2.4-.6.9 0 1.8.2 2.6.6l-.5 1.3c-.3-.1-.6-.3-1-.4-.2-.3-.6-.3-1-.3zm10.7 8.1-.9-2.6h-3.5l-.9 2.6h-1.6l3.5-9.3h1.7l3.5 9.3h-1.8zm-1.3-3.9-.9-2.5c-.1-.2-.2-.4-.3-.8s-.2-.6-.2-.8c-.1.5-.3 1.1-.5 1.7l-.8 2.4h2.7zm8 3.9H659v-8h-2.7v-1.3h7v1.3h-2.7v8zm4.8 0v-9.3h1.5v9.3h-1.5zm12.9-4.7c0 1.5-.4 2.7-1.1 3.5-.8.8-1.8 1.3-3.2 1.3-1.4 0-2.5-.4-3.2-1.2-.8-.8-1.1-2-1.1-3.5s.4-2.7 1.1-3.5c.8-.8 1.8-1.2 3.2-1.2 1.4 0 2.4.4 3.2 1.2.7.8 1.1 1.9 1.1 3.4zm-7.1 0c0 1.1.2 2 .7 2.6.5.6 1.1.9 2.1.9.9 0 1.6-.3 2-.9.5-.6.7-1.5.7-2.6s-.2-2-.7-2.6c-.5-.6-1.1-.9-2-.9-.9 0-1.6.3-2.1.9-.5.6-.7 1.5-.7 2.6zm17.5 4.7h-1.9l-4.6-7.4h-.1v.4c.1.8.1 1.5.1 2.2v4.8h-1.4v-9.3h1.8l4.6 7.4c0-.1 0-.5-.1-1.1s0-1.1 0-1.4v-4.9h1.4v9.3z" class="stsvg5"/></g><g class="stsvg0"><path d="M576.6 1195.4c0-1.1.2-2.2.5-3.1.3-1 .8-1.8 1.4-2.6h1.3c-.6.8-1 1.7-1.4 2.7s-.5 2-.5 3 .2 2 .5 3 .8 1.8 1.3 2.6h-1.3c-.6-.7-1.1-1.6-1.4-2.5-.2-.9-.4-2-.4-3.1zm13.1-1.1c0 1.5-.4 2.7-1.3 3.5s-2.1 1.2-3.7 1.2h-2.6v-9.3h2.9c1.5 0 2.6.4 3.4 1.2.8.8 1.3 1.9 1.3 3.4zm-1.6 0c0-2.2-1-3.3-3.1-3.3h-1.3v6.7h1.1c2.1 0 3.3-1.1 3.3-3.4zm8.1-3.4c-.9 0-1.6.3-2.1.9-.5.6-.7 1.5-.7 2.6s.2 2 .7 2.6 1.2.9 2.1.9c.4 0 .8 0 1.1-.1s.8-.2 1.1-.3v1.3c-.7.3-1.6.4-2.5.4-1.4 0-2.4-.4-3.1-1.2-.7-.8-1.1-2-1.1-3.5 0-1 .2-1.8.5-2.5s.9-1.3 1.5-1.7c.7-.4 1.5-.6 2.4-.6.9 0 1.8.2 2.6.6l-.5 1.3c-.3-.1-.6-.3-1-.4-.2-.3-.6-.3-1-.3zm10.3 5.6c0 .8-.3 1.5-.9 1.9-.6.5-1.4.7-2.5.7-1 0-1.9-.2-2.6-.5v-1.4c.4.2.9.4 1.3.5.5.1.9.2 1.3.2.6 0 1-.1 1.3-.3.3-.2.4-.5.4-.9 0-.3-.1-.6-.4-.9-.3-.2-.8-.5-1.6-.9-.8-.3-1.4-.7-1.8-1.2-.3-.4-.5-1-.5-1.6 0-.8.3-1.4.8-1.8.6-.4 1.3-.7 2.2-.7.9 0 1.8.2 2.7.6l-.5 1.2c-.8-.3-1.6-.5-2.2-.5-.5 0-.9.1-1.1.3s-.4.5-.4.8c0 .2.1.4.2.6.1.2.3.3.5.5s.7.4 1.3.6c.7.3 1.2.5 1.5.8s.6.5.7.8c.3.4.3.8.3 1.2zm4.9-1.1c0 1.1-.2 2.1-.5 3.1s-.8 1.8-1.4 2.5h-1.3c.6-.8 1-1.7 1.3-2.6.3-1 .5-2 .5-3s-.2-2-.5-3-.8-1.9-1.4-2.7h1.3c.6.7 1.1 1.6 1.4 2.6.4 1 .6 2 .6 3.1z" class="stsvg5"/></g><g class="stsvg0"><path d="M264.9 1193.9c-.9 0-1.6.3-2.1.9s-.7 1.5-.7 2.6.2 2 .7 2.6c.5.6 1.2.9 2.1.9.4 0 .8 0 1.1-.1s.8-.2 1.1-.3v1.3c-.7.3-1.6.4-2.5.4-1.4 0-2.4-.4-3.1-1.2s-1.1-2-1.1-3.5c0-1 .2-1.8.5-2.5.4-.7.9-1.3 1.5-1.7s1.5-.6 2.4-.6c.9 0 1.8.2 2.6.6l-.5 1.3c-.3-.1-.6-.3-1-.4-.2-.3-.6-.3-1-.3zm10.7 8.1-.9-2.6h-3.5l-.9 2.6h-1.6l3.5-9.3h1.7l3.5 9.3h-1.8zm-1.3-3.9-.9-2.5c-.1-.2-.2-.4-.3-.8-.1-.4-.2-.6-.2-.8-.1.5-.3 1.1-.5 1.7l-.8 2.4h2.7zm6.3.2v3.7h-1.5v-9.3h2.6c1.2 0 2.1.2 2.7.7s.9 1.1.9 2c0 1.2-.6 2-1.8 2.5l2.6 4.1h-1.7l-2.2-3.7h-1.6zm0-1.3h1.1c.7 0 1.2-.1 1.5-.4s.5-.7.5-1.2-.2-.9-.5-1.1-.9-.3-1.5-.3h-1v3zm12.7 5h-5.2v-9.3h5.2v1.3h-3.7v2.5h3.5v1.3h-3.5v2.9h3.7v1.3zm7.9 0H296v-9.3h5.2v1.3h-3.7v2.5h3.5v1.3h-3.5v2.9h3.7v1.3zm4.2-3.7v3.7h-1.5v-9.3h2.6c1.2 0 2.1.2 2.7.7s.9 1.1.9 2c0 1.2-.6 2-1.8 2.5l2.6 4.1h-1.7l-2.2-3.7h-1.6zm0-1.3h1.1c.7 0 1.2-.1 1.5-.4s.5-.7.5-1.2-.2-.9-.5-1.1-.9-.3-1.5-.3h-1v3zm17.6-1.5c0 1-.3 1.7-1 2.2-.6.5-1.5.8-2.7.8h-1v3.5h-1.5v-9.3h2.7c1.2 0 2 .2 2.6.7.6.5.9 1.2.9 2.1zm-4.6 1.8h.8c.8 0 1.4-.1 1.7-.4s.5-.7.5-1.3c0-.5-.2-.9-.5-1.2s-.8-.4-1.5-.4h-1.1v3.3zm8.6 1v3.7h-1.5v-9.3h2.6c1.2 0 2.1.2 2.7.7s.9 1.1.9 2c0 1.2-.6 2-1.8 2.5l2.6 4.1h-1.7l-2.2-3.7H327zm0-1.3h1.1c.7 0 1.2-.1 1.5-.4s.5-.7.5-1.2-.2-.9-.5-1.1-.9-.3-1.5-.3h-1v3zm15.7.3c0 1.5-.4 2.7-1.1 3.5-.8.8-1.8 1.3-3.2 1.3-1.4 0-2.5-.4-3.2-1.2-.8-.8-1.1-2-1.1-3.5s.4-2.7 1.1-3.5c.8-.8 1.8-1.2 3.2-1.2 1.4 0 2.4.4 3.2 1.2s1.1 1.9 1.1 3.4zm-7.1 0c0 1.1.2 2 .7 2.6.5.6 1.1.9 2.1.9.9 0 1.6-.3 2-.9.5-.6.7-1.5.7-2.6s-.2-2-.7-2.6c-.5-.6-1.1-.9-2-.9-.9 0-1.6.3-2.1.9-.4.6-.7 1.5-.7 2.6zm13.6-.3h3.4v4.7c-.6.2-1.1.3-1.6.4-.5.1-1.1.1-1.7.1-1.4 0-2.5-.4-3.2-1.2-.8-.8-1.1-2-1.1-3.5s.4-2.7 1.3-3.5c.9-.8 2-1.3 3.5-1.3 1 0 1.9.2 2.8.6l-.5 1.3c-.8-.3-1.5-.5-2.3-.5-1 0-1.8.3-2.3.9-.6.6-.9 1.5-.9 2.6s.3 2 .8 2.6c.5.6 1.3.9 2.2.9.5 0 1-.1 1.6-.2v-2.4h-1.9v-1.5zm7.8 1.3v3.7h-1.5v-9.3h2.6c1.2 0 2.1.2 2.7.7s.9 1.1.9 2c0 1.2-.6 2-1.8 2.5l2.6 4.1h-1.7l-2.2-3.7H357zm0-1.3h1.1c.7 0 1.2-.1 1.5-.4s.5-.7.5-1.2-.2-.9-.5-1.1-.9-.3-1.5-.3h-1v3zm13.2 5-.9-2.6h-3.5l-.9 2.6h-1.6l3.5-9.3h1.7l3.5 9.3h-1.8zm-1.4-3.9-.9-2.5c-.1-.2-.2-.4-.3-.8-.1-.4-.2-.6-.2-.8-.1.5-.3 1.1-.5 1.7l-.8 2.4h2.7zm8.9 3.9-2.7-7.8h-.1c.1 1.2.1 2.2.1 3.2v4.5h-1.4v-9.3h2.1l2.6 7.4 2.7-7.4h2.1v9.3h-1.5v-6.4c0-.7 0-1.2.1-1.3h-.1l-2.8 7.7h-1.1zm13.9-2.5c0 .8-.3 1.5-.9 1.9-.6.5-1.4.7-2.5.7s-1.9-.2-2.6-.5v-1.4c.4.2.9.4 1.3.5.5.1.9.2 1.3.2.6 0 1-.1 1.3-.3.3-.2.4-.5.4-.9 0-.3-.1-.6-.4-.9s-.8-.5-1.6-.9c-.8-.3-1.4-.7-1.8-1.2s-.5-1-.5-1.6c0-.8.3-1.4.8-1.8s1.3-.7 2.2-.7c.9 0 1.8.2 2.7.6l-.5 1.2c-.8-.3-1.6-.5-2.2-.5-.5 0-.9.1-1.1.3s-.4.5-.4.8c0 .2.1.4.2.6.1.2.3.3.5.5s.7.4 1.3.6c.7.3 1.2.5 1.5.8s.6.5.7.8c.3.4.3.8.3 1.2z" class="stsvg5"/></g><g class="stsvg0"><path d="M310.6 1218.4c0-1.1.2-2.2.5-3.1.3-1 .8-1.8 1.4-2.6h1.3c-.6.8-1 1.7-1.4 2.7s-.5 2-.5 3 .2 2 .5 3 .8 1.8 1.3 2.6h-1.3c-.6-.7-1.1-1.6-1.4-2.5-.2-.9-.4-2-.4-3.1zm13.1-1.1c0 1.5-.4 2.7-1.3 3.5s-2.1 1.2-3.7 1.2h-2.6v-9.3h2.9c1.5 0 2.6.4 3.4 1.2s1.3 1.9 1.3 3.4zm-1.6 0c0-2.2-1-3.3-3.1-3.3h-1.3v6.7h1.1c2.1 0 3.3-1.1 3.3-3.4zm8.2-3.4c-.9 0-1.6.3-2.1.9s-.7 1.5-.7 2.6.2 2 .7 2.6c.5.6 1.2.9 2.1.9.4 0 .8 0 1.1-.1s.8-.2 1.1-.3v1.3c-.7.3-1.6.4-2.5.4-1.4 0-2.4-.4-3.1-1.2s-1.1-2-1.1-3.5c0-1 .2-1.8.5-2.5.4-.7.9-1.3 1.5-1.7s1.5-.6 2.4-.6c.9 0 1.8.2 2.6.6l-.5 1.3c-.3-.1-.6-.3-1-.4-.3-.3-.7-.3-1-.3zm10.2 5.6c0 .8-.3 1.5-.9 1.9-.6.5-1.4.7-2.5.7s-1.9-.2-2.6-.5v-1.4c.4.2.9.4 1.3.5.5.1.9.2 1.3.2.6 0 1-.1 1.3-.3.3-.2.4-.5.4-.9 0-.3-.1-.6-.4-.9s-.8-.5-1.6-.9c-.8-.3-1.4-.7-1.8-1.2s-.5-1-.5-1.6c0-.8.3-1.4.8-1.8s1.3-.7 2.2-.7c.9 0 1.8.2 2.7.6l-.5 1.2c-.8-.3-1.6-.5-2.2-.5-.5 0-.9.1-1.1.3s-.4.5-.4.8c0 .2.1.4.2.6.1.2.3.3.5.5s.7.4 1.3.6c.7.3 1.2.5 1.5.8s.6.5.7.8c.3.4.3.8.3 1.2zm4.9-1.1c0 1.1-.2 2.1-.5 3.1s-.8 1.8-1.4 2.5h-1.3c.6-.8 1-1.7 1.3-2.6.3-1 .5-2 .5-3s-.2-2-.5-3-.8-1.9-1.4-2.7h1.3c.6.7 1.1 1.6 1.4 2.6s.6 2 .6 3.1z" class="stsvg5"/></g><path id="arrow" d="m328 1543.5 7.5 7.5 7.5-7.5" class="stsvg6"/><path id="arrow-2" d="m844.5 1543.5 7.5 7.5 7.5-7.5" class="stsvg6"/><path id="Line_173" d="M335.5 1254.5V1551" class="stsvg6"/><path id="Line_174" d="M851.5 1213.5V1551" class="stsvg6"/><path id="Line_175" d="M593.8 1485.5v64" class="stsvg7"/><path id="Line_207" d="M593.8 1290.5v143" class="stsvg7"/><path id="Line_177" d="M308.5 1162.5v25" class="stsvg6"/><path id="arrow-3" d="m586 1543.5 7.5 7.5 7.5-7.5" class="stsvg7"/><path id="Rectangle_416" d="M1052 1151h10v342h-10z" class="stsvg8"/><path id="Rectangle_429" d="M1000 1151h10v102h-10z" class="stsvg4"/><g class="stsvg0"><path d="M1045 1278.2v1.5h-4.2v4.3h4.2v1.5h-9.3v-1.5h3.8v-4.3h-3.8v-1.5h9.3zm0-3.1h-9.3v-1.5h9.3v1.5zm-5-8.4v-3.4h4.7c.2.6.3 1.1.4 1.6.1.5.1 1.1.1 1.7 0 1.4-.4 2.5-1.2 3.2-.8.8-2 1.1-3.5 1.1s-2.7-.4-3.5-1.3c-.8-.9-1.3-2-1.3-3.5 0-1 .2-1.9.6-2.8l1.3.5c-.3.8-.5 1.5-.5 2.3 0 1 .3 1.8.9 2.3.6.6 1.5.9 2.6.9s2-.3 2.6-.8c.6-.5.9-1.3.9-2.2 0-.5-.1-1-.2-1.6h-2.4v1.9h-1.5zm5-13.6v1.5h-4.2v4.3h4.2v1.5h-9.3v-1.5h3.8v-4.3h-3.8v-1.5h9.3zm0-8.4v5.2h-9.3v-5.2h1.3v3.7h2.5v-3.5h1.3v3.5h2.9v-3.7h1.3zm-3.7-4.1h3.7v1.5h-9.3v-2.6c0-1.2.2-2.1.7-2.7s1.1-.9 2-.9c1.2 0 2 .6 2.5 1.8l4.1-2.6v1.7l-3.7 2.2v1.6zm-1.3 0v-1.1c0-.7-.1-1.2-.4-1.5s-.7-.5-1.2-.5-.9.2-1.1.5-.3.9-.3 1.5v1h3zm5-16.8v5.2h-9.3v-5.2h1.3v3.7h2.5v-3.5h1.3v3.5h2.9v-3.7h1.3zm-4.7-10.2c1.5 0 2.7.4 3.5 1.3s1.2 2.1 1.2 3.7v2.6h-9.3v-2.9c0-1.5.4-2.6 1.2-3.4s1.9-1.3 3.4-1.3zm0 1.6c-2.2 0-3.3 1-3.3 3.1v1.3h6.7v-1.1c0-2.2-1.1-3.3-3.4-3.3zm-4.6-11.5h6c.7 0 1.3.1 1.8.4.5.3.9.7 1.2 1.3.3.6.4 1.2.4 2 0 1.2-.3 2-.9 2.7s-1.4 1-2.5 1h-6v-1.5h5.9c.8 0 1.3-.2 1.7-.5s.5-.9.5-1.6c0-1.4-.8-2.1-2.3-2.1h-5.9v-1.7zm1.2-7c0 .9.3 1.6.9 2.1s1.5.7 2.6.7 2-.2 2.6-.7c.6-.5.9-1.2.9-2.1 0-.4 0-.8-.1-1.1s-.2-.8-.3-1.1h1.3c.3.7.4 1.6.4 2.5 0 1.4-.4 2.4-1.2 3.1s-2 1.1-3.5 1.1c-1 0-1.8-.2-2.5-.5-.7-.4-1.3-.9-1.7-1.5s-.6-1.5-.6-2.4c0-.9.2-1.8.6-2.6l1.3.5c-.1.3-.3.6-.4 1-.3.3-.3.7-.3 1zm8.1-10.7-2.6.9v3.5l2.6.9v1.6l-9.3-3.5v-1.7l9.3-3.5v1.8zm-3.9 1.4-2.5.9c-.2.1-.4.2-.8.3-.4.1-.6.2-.8.2.5.1 1.1.3 1.7.5l2.4.8v-2.7zm3.9-8v1.5h-8v2.7h-1.3v-7h1.3v2.7h8zm0-4.9h-9.3v-1.5h9.3v1.5zm-4.7-12.8c1.5 0 2.7.4 3.5 1.1.8.8 1.3 1.8 1.3 3.2 0 1.4-.4 2.5-1.2 3.2-.8.8-2 1.1-3.5 1.1s-2.7-.4-3.5-1.1c-.8-.8-1.2-1.8-1.2-3.2 0-1.4.4-2.4 1.2-3.2s1.9-1.1 3.4-1.1zm0 7.1c1.1 0 2-.2 2.6-.7.6-.5.9-1.1.9-2.1 0-.9-.3-1.6-.9-2-.6-.5-1.5-.7-2.6-.7s-2 .2-2.6.7c-.6.5-.9 1.1-.9 2 0 .9.3 1.6.9 2.1.6.4 1.5.7 2.6.7zm4.7-17.5v1.9l-7.4 4.6v.1h.4c.8-.1 1.5-.1 2.2-.1h4.8v1.4h-9.3v-1.8l7.4-4.6c-.1 0-.5 0-1.1.1s-1.1 0-1.4 0h-4.9v-1.4h9.3z" class="stsvg8"/></g><g class="stsvg0"><path d="M984.9 1188.6c0 .9.3 1.6.9 2.1s1.5.7 2.6.7 2-.2 2.6-.7c.6-.5.9-1.2.9-2.1 0-.4 0-.8-.1-1.1s-.2-.8-.3-1.1h1.3c.3.7.4 1.6.4 2.5 0 1.4-.4 2.4-1.2 3.1s-2 1.1-3.5 1.1c-1 0-1.8-.2-2.5-.5-.7-.4-1.3-.9-1.7-1.5s-.6-1.5-.6-2.4c0-.9.2-1.8.6-2.6l1.3.5c-.1.3-.3.6-.4 1-.3.3-.3.6-.3 1zm-1.9-6.5h-.2c-.3-.2-.6-.5-1-.7-.4-.3-.7-.5-.9-.6v-1.7h.1c.3.2.6.5 1 1 .4.4.7.8.9 1.1v.9zm10-3.7v5.2h-9.3v-5.2h1.3v3.7h2.5v-3.5h1.3v3.5h2.9v-3.7h1.3zm-5-6.4v-3.4h4.7c.2.6.3 1.1.4 1.6.1.5.1 1.1.1 1.7 0 1.4-.4 2.5-1.2 3.2-.8.8-2 1.1-3.5 1.1s-2.7-.4-3.5-1.3c-.8-.9-1.3-2-1.3-3.5 0-1 .2-1.9.6-2.8l1.3.5c-.3.8-.5 1.5-.5 2.3 0 1 .3 1.8.9 2.3.6.6 1.5.9 2.6.9s2-.3 2.6-.8c.6-.5.9-1.3.9-2.2 0-.5-.1-1-.2-1.6h-2.4v1.9H988zm5-11.6v5.2h-9.3v-5.2h1.3v3.7h2.5v-3.5h1.3v3.5h2.9v-3.7h1.3zm-6.5-8.8c1 0 1.7.3 2.2 1 .5.6.8 1.5.8 2.7v1h3.5v1.5h-9.3v-2.7c0-1.2.2-2 .7-2.6.5-.6 1.2-.9 2.1-.9zm1.8 4.7v-.8c0-.8-.1-1.4-.4-1.7s-.7-.5-1.3-.5c-.5 0-.9.2-1.2.5s-.4.8-.4 1.5v1.1h3.3z" class="stsvg4"/></g><path id="Line_206" d="m464.5 1287.5-129-33" style="fill:none;stroke:#f04b4b;stroke-width:2;stroke-dasharray:2,4"/><path id="arrow-4" d="m459.4 1294 9.6-4.5-4.5-9.6" class="stsvg6"/><path id="Rectangle_434" d="M475 1218h238v91H475z" class="stsvg10"/><path id="Rectangle_435" d="M475 1314h238v62H475z" class="stsvg10"/><path id="Rectangle_436" d="M475 1381h238v104H475z" class="stsvg10"/><g class="stsvg0"><path d="M540.3 1249.7v6c0 .7-.1 1.3-.4 1.8-.3.5-.7.9-1.3 1.2-.6.3-1.2.4-2 .4-1.2 0-2-.3-2.7-.9s-1-1.4-1-2.5v-6h1.5v5.9c0 .8.2 1.3.5 1.7s.9.5 1.6.5c1.4 0 2.1-.8 2.1-2.3v-5.9h1.7zm10.7 9.3h-1.9l-4.6-7.4h-.1v.4c.1.8.1 1.5.1 2.2v4.8h-1.4v-9.3h1.8l4.6 7.4c0-.1 0-.5-.1-1.1s0-1.1 0-1.4v-4.9h1.4v9.3zm10.7-4.7c0 1.5-.4 2.7-1.3 3.5s-2.1 1.2-3.7 1.2h-2.6v-9.3h2.9c1.5 0 2.6.4 3.4 1.2s1.3 1.9 1.3 3.4zm-1.6 0c0-2.2-1-3.3-3.1-3.3h-1.3v6.7h1.1c2.2 0 3.3-1.1 3.3-3.4zm9.5 4.7h-5.2v-9.3h5.2v1.3h-3.7v2.5h3.5v1.3h-3.5v2.9h3.7v1.3zm4.1-3.7v3.7h-1.5v-9.3h2.6c1.2 0 2.1.2 2.7.7s.9 1.1.9 2c0 1.2-.6 2-1.8 2.5l2.6 4.1h-1.7l-2.2-3.7h-1.6zm0-1.3h1.1c.7 0 1.2-.1 1.5-.4s.5-.7.5-1.2-.2-.9-.5-1.1-.9-.3-1.5-.3h-1v3zm11.3 0h3.4v4.7c-.6.2-1.1.3-1.6.4-.5.1-1.1.1-1.7.1-1.4 0-2.5-.4-3.2-1.2-.8-.8-1.1-2-1.1-3.5s.4-2.7 1.3-3.5c.9-.8 2-1.3 3.5-1.3 1 0 1.9.2 2.8.6l-.5 1.3c-.8-.3-1.5-.5-2.3-.5-1 0-1.8.3-2.3.9-.6.6-.9 1.5-.9 2.6s.3 2 .8 2.6c.5.6 1.3.9 2.2.9.5 0 1-.1 1.6-.2v-2.4h-2v-1.5zm7.8 1.3v3.7h-1.5v-9.3h2.6c1.2 0 2.1.2 2.7.7.6.4.9 1.1.9 2 0 1.2-.6 2-1.8 2.5l2.6 4.1h-1.7l-2.2-3.7h-1.6zm0-1.3h1.1c.7 0 1.2-.1 1.5-.4s.5-.7.5-1.2-.2-.9-.5-1.1-.9-.3-1.5-.3h-1v3zm13.2 5-.9-2.6h-3.5l-.9 2.6H599l3.5-9.3h1.7l3.5 9.3H606zm-1.3-3.9-.9-2.5c-.1-.2-.2-.4-.3-.8s-.2-.6-.2-.8c-.1.5-.3 1.1-.5 1.7l-.8 2.4h2.7zm12.3-.8c0 1.5-.4 2.7-1.3 3.5s-2.1 1.2-3.7 1.2h-2.6v-9.3h2.9c1.5 0 2.6.4 3.4 1.2.9.8 1.3 1.9 1.3 3.4zm-1.6 0c0-2.2-1-3.3-3.1-3.3H611v6.7h1.1c2.2 0 3.3-1.1 3.3-3.4zm11.5-4.6v6c0 .7-.1 1.3-.4 1.8-.3.5-.7.9-1.3 1.2s-1.2.4-2 .4c-1.2 0-2-.3-2.7-.9-.6-.6-1-1.4-1-2.5v-6h1.5v5.9c0 .8.2 1.3.5 1.7s.9.5 1.6.5c1.4 0 2.1-.8 2.1-2.3v-5.9h1.7zm8.8 9.3-.9-2.6h-3.5l-.9 2.6h-1.6l3.5-9.3h1.7l3.5 9.3h-1.8zm-1.3-3.9-.9-2.5c-.1-.2-.2-.4-.3-.8-.1-.4-.2-.6-.2-.8-.1.5-.3 1.1-.5 1.7l-.8 2.4h2.7zm8 3.9h-1.5v-8h-2.7v-1.3h7v1.3h-2.7v8zm10.1 0h-5.2v-9.3h5.2v1.3h-3.7v2.5h3.5v1.3h-3.5v2.9h3.7v1.3z" class="stsvg1"/></g><g class="stsvg0"><path d="M525.4 1269.7h2.8c1.3 0 2.2.2 2.8.6s.9 1 .9 1.8c0 .5-.1 1-.4 1.4-.3.4-.7.6-1.2.7v.1c.7.1 1.1.4 1.4.7.3.4.5.9.5 1.5 0 .8-.3 1.5-.9 2s-1.4.7-2.4.7h-3.4v-9.5zm1.5 3.9h1.5c.6 0 1.1-.1 1.4-.3s.4-.5.4-1c0-.4-.2-.8-.5-.9s-.8-.3-1.5-.3h-1.3v2.5zm0 1.2v2.9h1.6c.6 0 1.1-.1 1.4-.4.3-.2.5-.6.5-1.2 0-.5-.2-.8-.5-1.1-.3-.2-.8-.3-1.5-.3h-1.5zm13.5 4.2-.9-2.6H536l-.9 2.6h-1.6l3.5-9.3h1.7l3.5 9.3h-1.8zm-1.4-3.9-.9-2.5c-.1-.2-.2-.4-.3-.8s-.2-.6-.2-.8c-.1.5-.3 1.1-.5 1.7l-.8 2.4h2.7zm8.8-4.2c-.9 0-1.6.3-2.1.9-.5.6-.7 1.5-.7 2.6s.2 2 .7 2.6c.5.6 1.2.9 2.1.9.4 0 .8 0 1.1-.1s.8-.2 1.1-.3v1.3c-.7.3-1.6.4-2.5.4-1.4 0-2.4-.4-3.1-1.2-.7-.8-1.1-2-1.1-3.5 0-1 .2-1.8.5-2.5.4-.7.9-1.3 1.5-1.7.7-.4 1.5-.6 2.4-.6.9 0 1.8.2 2.6.6l-.5 1.3c-.3-.1-.6-.3-1-.4-.3-.3-.6-.3-1-.3zm12.2 8.1h-1.5v-4.2h-4.3v4.2h-1.5v-9.3h1.5v3.8h4.3v-3.8h1.5v9.3zm8.4 0h-5.2v-9.3h5.2v1.3h-3.7v2.5h3.5v1.3h-3.5v2.9h3.7v1.3zm2.6 0v-9.3h1.5v8h3.9v1.3H571zm16-4.7c0 1.5-.4 2.7-1.1 3.5-.8.8-1.8 1.3-3.2 1.3-1.4 0-2.5-.4-3.2-1.2-.8-.8-1.1-2-1.1-3.5s.4-2.7 1.1-3.5c.8-.8 1.8-1.2 3.2-1.2 1.4 0 2.4.4 3.2 1.2.7.8 1.1 1.9 1.1 3.4zm-7.1 0c0 1.1.2 2 .7 2.6.5.6 1.1.9 2.1.9.9 0 1.6-.3 2-.9.5-.6.7-1.5.7-2.6s-.2-2-.7-2.6c-.5-.6-1.1-.9-2-.9-.9 0-1.6.3-2.1.9-.5.6-.7 1.5-.7 2.6zm11.2 1v3.7h-1.5v-9.3h2.6c1.2 0 2.1.2 2.7.7.6.4.9 1.1.9 2 0 1.2-.6 2-1.8 2.5l2.6 4.1h-1.7l-2.2-3.7h-1.6zm0-1.3h1.1c.7 0 1.2-.1 1.5-.4s.5-.7.5-1.2-.2-.9-.5-1.1-.9-.3-1.5-.3h-1v3zm8.5-4.3.1.1c-.2.9-.6 1.9-1.1 3h-1.1c.3-1.2.5-2.3.6-3.2h1.5zm7.5 6.8c0 .8-.3 1.5-.9 1.9-.6.5-1.4.7-2.5.7-1 0-1.9-.2-2.6-.5v-1.4c.4.2.9.4 1.3.5.5.1.9.2 1.3.2.6 0 1-.1 1.3-.3.3-.2.4-.5.4-.9 0-.3-.1-.6-.4-.9-.3-.2-.8-.5-1.6-.9-.8-.3-1.4-.7-1.8-1.2-.3-.4-.5-1-.5-1.6 0-.8.3-1.4.8-1.8.5-.4 1.3-.7 2.2-.7.9 0 1.8.2 2.7.6l-.5 1.2c-.8-.3-1.6-.5-2.2-.5-.5 0-.9.1-1.1.3s-.4.5-.4.8c0 .2.1.4.2.6.1.2.3.3.5.5s.7.4 1.3.6c.7.3 1.2.5 1.5.8s.5.5.7.8c.2.4.3.8.3 1.2zm14-2.2c0 1.5-.4 2.7-1.3 3.5s-2.1 1.2-3.7 1.2h-2.6v-9.3h2.9c1.5 0 2.6.4 3.4 1.2.9.8 1.3 1.9 1.3 3.4zm-1.6 0c0-2.2-1-3.3-3.1-3.3h-1.3v6.7h1.1c2.2 0 3.3-1.1 3.3-3.4zm9.5 4.7h-5.2v-9.3h5.2v1.3h-3.7v2.5h3.5v1.3h-3.5v2.9h3.7v1.3zm6.5-5h3.4v4.7c-.6.2-1.1.3-1.6.4-.5.1-1.1.1-1.7.1-1.4 0-2.5-.4-3.2-1.2-.8-.8-1.1-2-1.1-3.5s.4-2.7 1.3-3.5c.9-.8 2-1.3 3.5-1.3 1 0 1.9.2 2.8.6l-.5 1.3c-.8-.3-1.5-.5-2.3-.5-1 0-1.8.3-2.3.9-.6.6-.9 1.5-.9 2.6s.3 2 .8 2.6c.5.6 1.3.9 2.2.9.5 0 1-.1 1.6-.2v-2.4h-1.9v-1.5zm7.8 1.3v3.7h-1.5v-9.3h2.6c1.2 0 2.1.2 2.7.7.6.4.9 1.1.9 2 0 1.2-.6 2-1.8 2.5l2.6 4.1H647l-2.2-3.7h-1.5zm0-1.3h1.1c.7 0 1.2-.1 1.5-.4s.5-.7.5-1.2-.2-.9-.5-1.1-.9-.3-1.5-.3h-1v3zm12.7 5h-5.2v-9.3h5.2v1.3h-3.7v2.5h3.5v1.3h-3.5v2.9h3.7v1.3zm7.9 0h-5.2v-9.3h5.2v1.3h-3.7v2.5h3.5v1.3h-3.5v2.9h3.7v1.3z" class="stsvg1"/></g><g class="stsvg0"><path d="M560.9 1335h3.4v4.7c-.6.2-1.1.3-1.6.4-.5.1-1.1.1-1.7.1-1.4 0-2.5-.4-3.2-1.2-.8-.8-1.1-2-1.1-3.5s.4-2.7 1.3-3.5c.9-.8 2-1.3 3.5-1.3 1 0 1.9.2 2.8.6l-.5 1.3c-.8-.3-1.5-.5-2.3-.5-1 0-1.8.3-2.3.9-.6.6-.9 1.5-.9 2.6s.3 2 .8 2.6c.5.6 1.3.9 2.2.9.5 0 1-.1 1.6-.2v-2.4H561v-1.5zm7.8 1.3v3.7h-1.5v-9.3h2.6c1.2 0 2.1.2 2.7.7s.9 1.1.9 2c0 1.2-.6 2-1.8 2.5l2.6 4.1h-1.7l-2.2-3.7h-1.6zm0-1.3h1.1c.7 0 1.2-.1 1.5-.4s.5-.7.5-1.2-.2-.9-.5-1.1-.9-.3-1.5-.3h-1v3zm13.2 5-.9-2.6h-3.5l-.9 2.6H575l3.5-9.3h1.7l3.5 9.3h-1.8zm-1.3-3.9-.9-2.5c-.1-.2-.2-.4-.3-.8-.1-.4-.2-.6-.2-.8-.1.5-.3 1.1-.5 1.7l-.8 2.4h2.7zm12.3-.8c0 1.5-.4 2.7-1.3 3.5s-2.1 1.2-3.7 1.2h-2.6v-9.3h2.9c1.5 0 2.6.4 3.4 1.2.9.8 1.3 1.9 1.3 3.4zm-1.6 0c0-2.2-1-3.3-3.1-3.3h-1.3v6.7h1.1c2.2 0 3.3-1.1 3.3-3.4zm11.5-4.6v6c0 .7-.1 1.3-.4 1.8-.3.5-.7.9-1.3 1.2s-1.2.4-2 .4c-1.2 0-2-.3-2.7-.9-.6-.6-1-1.4-1-2.5v-6h1.5v5.9c0 .8.2 1.3.5 1.7s.9.5 1.6.5c1.4 0 2.1-.8 2.1-2.3v-5.9h1.7zm8.8 9.3-.9-2.6h-3.5l-.9 2.6h-1.6l3.5-9.3h1.7l3.5 9.3h-1.8zm-1.3-3.9-.9-2.5c-.1-.2-.2-.4-.3-.8-.1-.4-.2-.6-.2-.8-.1.5-.3 1.1-.5 1.7l-.8 2.4h2.7zm8 3.9h-1.5v-8h-2.7v-1.3h7v1.3h-2.7v8zm10.1 0h-5.2v-9.3h5.2v1.3h-3.7v2.5h3.5v1.3h-3.5v2.9h3.7v1.3z" class="stsvg1"/></g><g class="stsvg0"><path d="m538.3 1360-2.7-7.8h-.1c.1 1.2.1 2.2.1 3.2v4.5h-1.4v-9.3h2.1l2.6 7.4 2.7-7.4h2.1v9.3h-1.5v-6.4c0-.7 0-1.2.1-1.3h-.1l-2.8 7.7h-1.1zm14.4 0-.9-2.6h-3.5l-.9 2.6h-1.6l3.5-9.3h1.7l3.5 9.3h-1.8zm-1.3-3.9-.9-2.5c-.1-.2-.2-.4-.3-.8-.1-.4-.2-.6-.2-.8-.1.5-.3 1.1-.5 1.7l-.8 2.4h2.7zm10.1 1.4c0 .8-.3 1.5-.9 1.9-.6.5-1.4.7-2.5.7s-1.9-.2-2.6-.5v-1.4c.4.2.9.4 1.3.5.5.1.9.2 1.3.2.6 0 1-.1 1.3-.3.3-.2.4-.5.4-.9 0-.3-.1-.6-.4-.9s-.8-.5-1.6-.9c-.8-.3-1.4-.7-1.8-1.2s-.5-1-.5-1.6c0-.8.3-1.4.8-1.8s1.3-.7 2.2-.7c.9 0 1.8.2 2.7.6l-.5 1.2c-.8-.3-1.6-.5-2.2-.5-.5 0-.9.1-1.1.3s-.4.5-.4.8c0 .2.1.4.2.6.1.2.3.3.5.5s.7.4 1.3.6c.7.3 1.2.5 1.5.8s.6.5.7.8c.3.4.3.8.3 1.2zm5.7 2.5h-1.5v-8H563v-1.3h7v1.3h-2.7v8zm10 0H572v-9.3h5.2v1.3h-3.7v2.5h3.5v1.3h-3.5v2.9h3.7v1.3zm4.2-3.7v3.7h-1.5v-9.3h2.6c1.2 0 2.1.2 2.7.7.6.4.9 1.1.9 2 0 1.2-.6 2-1.8 2.5l2.6 4.1h-1.7l-2.2-3.7h-1.6zm0-1.3h1.1c.7 0 1.2-.1 1.5-.4s.5-.7.5-1.2-.2-.9-.5-1.1-.9-.3-1.5-.3h-1v3zm8.5-4.3.1.1c-.2.9-.6 1.9-1.1 3h-1.1c.3-1.2.5-2.3.6-3.2h1.5zm7.5 6.8c0 .8-.3 1.5-.9 1.9-.6.5-1.4.7-2.5.7-1 0-1.9-.2-2.6-.5v-1.4c.4.2.9.4 1.3.5.5.1.9.2 1.3.2.6 0 1-.1 1.3-.3.3-.2.4-.5.4-.9 0-.3-.1-.6-.4-.9-.3-.2-.8-.5-1.6-.9-.8-.3-1.4-.7-1.8-1.2-.3-.4-.5-1-.5-1.6 0-.8.3-1.4.8-1.8.6-.4 1.3-.7 2.2-.7.9 0 1.8.2 2.7.6l-.5 1.2c-.8-.3-1.6-.5-2.2-.5-.5 0-.9.1-1.1.3s-.4.5-.4.8c0 .2.1.4.2.6.1.2.3.3.5.5s.7.4 1.3.6c.7.3 1.2.5 1.5.8s.6.5.7.8c.2.4.3.8.3 1.2zm14-2.2c0 1.5-.4 2.7-1.3 3.5s-2.1 1.2-3.7 1.2h-2.6v-9.3h2.9c1.5 0 2.6.4 3.4 1.2.9.8 1.3 1.9 1.3 3.4zm-1.6 0c0-2.2-1-3.3-3.1-3.3h-1.3v6.7h1.1c2.2 0 3.3-1.1 3.3-3.4zm9.5 4.7H614v-9.3h5.2v1.3h-3.7v2.5h3.5v1.3h-3.5v2.9h3.7v1.3zm6.4-5h3.4v4.7c-.6.2-1.1.3-1.6.4-.5.1-1.1.1-1.7.1-1.4 0-2.5-.4-3.2-1.2-.8-.8-1.1-2-1.1-3.5s.4-2.7 1.3-3.5c.9-.8 2-1.3 3.5-1.3 1 0 1.9.2 2.8.6l-.5 1.3c-.8-.3-1.5-.5-2.3-.5-1 0-1.8.3-2.3.9-.6.6-.9 1.5-.9 2.6s.3 2 .8 2.6c.5.6 1.3.9 2.2.9.5 0 1-.1 1.6-.2v-2.4h-1.9v-1.5zm7.8 1.3v3.7H632v-9.3h2.6c1.2 0 2.1.2 2.7.7.6.4.9 1.1.9 2 0 1.2-.6 2-1.8 2.5l2.6 4.1h-1.7l-2.2-3.7h-1.6zm0-1.3h1.1c.7 0 1.2-.1 1.5-.4s.5-.7.5-1.2-.2-.9-.5-1.1-.9-.3-1.5-.3h-1v3zm12.7 5H641v-9.3h5.2v1.3h-3.7v2.5h3.5v1.3h-3.5v2.9h3.7v1.3zm7.9 0h-5.2v-9.3h5.2v1.3h-3.7v2.5h3.5v1.3h-3.5v2.9h3.7v1.3z" class="stsvg1"/></g><g class="stsvg0"><path d="M547.7 1421.5c0 1-.3 1.7-1 2.2-.6.5-1.5.8-2.7.8h-1v3.5h-1.5v-9.3h2.7c1.2 0 2 .2 2.6.7.6.5.9 1.2.9 2.1zm-4.6 1.8h.8c.8 0 1.4-.1 1.7-.4s.5-.7.5-1.3c0-.5-.2-.9-.5-1.2s-.8-.4-1.5-.4H543v3.3zm15.3 0c0 1.5-.4 2.7-1.1 3.5-.8.8-1.8 1.3-3.2 1.3-1.4 0-2.5-.4-3.2-1.2-.8-.8-1.1-2-1.1-3.5s.4-2.7 1.1-3.5c.8-.8 1.8-1.2 3.2-1.2 1.4 0 2.4.4 3.2 1.2s1.1 1.9 1.1 3.4zm-7 0c0 1.1.2 2 .7 2.6.5.6 1.1.9 2.1.9.9 0 1.6-.3 2-.9.5-.6.7-1.5.7-2.6s-.2-2-.7-2.6c-.5-.6-1.1-.9-2-.9-.9 0-1.6.3-2.1.9-.5.6-.7 1.5-.7 2.6zm15 2.2c0 .8-.3 1.5-.9 1.9-.6.5-1.4.7-2.5.7s-1.9-.2-2.6-.5v-1.4c.4.2.9.4 1.3.5.5.1.9.2 1.3.2.6 0 1-.1 1.3-.3.3-.2.4-.5.4-.9 0-.3-.1-.6-.4-.9s-.8-.5-1.6-.9c-.8-.3-1.4-.7-1.8-1.2s-.5-1-.5-1.6c0-.8.3-1.4.8-1.8s1.3-.7 2.2-.7c.9 0 1.8.2 2.7.6l-.5 1.2c-.8-.3-1.6-.5-2.2-.5-.5 0-.9.1-1.1.3s-.4.5-.4.8c0 .2.1.4.2.6.1.2.3.3.5.5s.7.4 1.3.6c.7.3 1.2.5 1.5.8s.6.5.7.8c.3.4.3.8.3 1.2zm5.7 2.5h-1.5v-8h-2.7v-1.3h7v1.3h-2.7v8zm8.6-5h3.4v4.7c-.6.2-1.1.3-1.6.4-.5.1-1.1.1-1.7.1-1.4 0-2.5-.4-3.2-1.2-.8-.8-1.1-2-1.1-3.5s.4-2.7 1.3-3.5c.9-.8 2-1.3 3.5-1.3 1 0 1.9.2 2.8.6l-.5 1.3c-.8-.3-1.5-.5-2.3-.5-1 0-1.8.3-2.3.9-.6.6-.9 1.5-.9 2.6s.3 2 .8 2.6c.5.6 1.3.9 2.2.9.5 0 1-.1 1.6-.2v-2.4h-1.9v-1.5zm7.8 1.3v3.7H587v-9.3h2.6c1.2 0 2.1.2 2.7.7.6.4.9 1.1.9 2 0 1.2-.6 2-1.8 2.5l2.6 4.1h-1.7l-2.2-3.7h-1.6zm0-1.3h1.1c.7 0 1.2-.1 1.5-.4s.5-.7.5-1.2-.2-.9-.5-1.1-.9-.3-1.5-.3h-1v3zm13.2 5-.9-2.6h-3.5l-.9 2.6h-1.6l3.5-9.3h1.7l3.5 9.3h-1.8zm-1.3-3.9-.9-2.5c-.1-.2-.2-.4-.3-.8-.1-.4-.2-.6-.2-.8-.1.5-.3 1.1-.5 1.7l-.8 2.4h2.7zm12.3-.8c0 1.5-.4 2.7-1.3 3.5s-2.1 1.2-3.7 1.2h-2.6v-9.3h2.9c1.5 0 2.6.4 3.4 1.2.9.8 1.3 1.9 1.3 3.4zm-1.6 0c0-2.2-1-3.3-3.1-3.3h-1.3v6.7h1.1c2.2 0 3.3-1.1 3.3-3.4zm11.6-4.6v6c0 .7-.1 1.3-.4 1.8-.3.5-.7.9-1.3 1.2-.6.3-1.2.4-2 .4-1.2 0-2-.3-2.7-.9-.6-.6-1-1.4-1-2.5v-6h1.5v5.9c0 .8.2 1.3.5 1.7s.9.5 1.6.5c1.4 0 2.1-.8 2.1-2.3v-5.9h1.7zm8.7 9.3-.9-2.6H627l-.9 2.6h-1.6l3.5-9.3h1.7l3.5 9.3h-1.8zm-1.3-3.9-.9-2.5c-.1-.2-.2-.4-.3-.8s-.2-.6-.2-.8c-.1.5-.3 1.1-.5 1.7l-.8 2.4h2.7zm8 3.9h-1.5v-8h-2.7v-1.3h7v1.3h-2.7v8zm10.1 0H643v-9.3h5.2v1.3h-3.7v2.5h3.5v1.3h-3.5v2.9h3.7v1.3z" class="stsvg1"/></g><g class="stsvg0"><path d="M537.4 1443.3c0 1.5-.4 2.7-1.3 3.5s-2.1 1.2-3.7 1.2h-2.6v-9.3h2.9c1.5 0 2.6.4 3.4 1.2s1.3 1.9 1.3 3.4zm-1.6 0c0-2.2-1-3.3-3.1-3.3h-1.3v6.7h1.1c2.1 0 3.3-1.1 3.3-3.4zm12.4 0c0 1.5-.4 2.7-1.1 3.5-.8.8-1.8 1.3-3.2 1.3-1.4 0-2.5-.4-3.2-1.2-.8-.8-1.1-2-1.1-3.5s.4-2.7 1.1-3.5c.8-.8 1.8-1.2 3.2-1.2 1.4 0 2.4.4 3.2 1.2s1.1 1.9 1.1 3.4zm-7 0c0 1.1.2 2 .7 2.6.5.6 1.1.9 2.1.9.9 0 1.6-.3 2-.9.5-.6.7-1.5.7-2.6s-.2-2-.7-2.6c-.5-.6-1.1-.9-2-.9-.9 0-1.6.3-2.1.9-.5.6-.7 1.5-.7 2.6zm13.6-3.4c-.9 0-1.6.3-2.1.9s-.7 1.5-.7 2.6.2 2 .7 2.6c.5.6 1.2.9 2.1.9.4 0 .8 0 1.1-.1s.8-.2 1.1-.3v1.3c-.7.3-1.6.4-2.5.4-1.4 0-2.4-.4-3.1-1.2s-1.1-2-1.1-3.5c0-1 .2-1.8.5-2.5.4-.7.9-1.3 1.5-1.7s1.5-.6 2.4-.6c.9 0 1.8.2 2.6.6l-.5 1.3c-.3-.1-.6-.3-1-.4-.2-.3-.6-.3-1-.3zm8.2 8.1h-1.5v-8h-2.7v-1.3h7v1.3H563v8zm13-4.7c0 1.5-.4 2.7-1.1 3.5-.8.8-1.8 1.3-3.2 1.3-1.4 0-2.5-.4-3.2-1.2-.8-.8-1.1-2-1.1-3.5s.4-2.7 1.1-3.5c.8-.8 1.8-1.2 3.2-1.2 1.4 0 2.4.4 3.2 1.2s1.1 1.9 1.1 3.4zm-7.1 0c0 1.1.2 2 .7 2.6.5.6 1.1.9 2.1.9.9 0 1.6-.3 2-.9.5-.6.7-1.5.7-2.6s-.2-2-.7-2.6c-.5-.6-1.1-.9-2-.9-.9 0-1.6.3-2.1.9-.4.6-.7 1.5-.7 2.6zm11.3 1v3.7h-1.5v-9.3h2.6c1.2 0 2.1.2 2.7.7.6.4.9 1.1.9 2 0 1.2-.6 2-1.8 2.5l2.6 4.1H584l-2.2-3.7h-1.6zm0-1.3h1.1c.7 0 1.2-.1 1.5-.4s.5-.7.5-1.2-.2-.9-.5-1.1-.9-.3-1.5-.3h-1v3zm13.2 5-.9-2.6H589l-.9 2.6h-1.6l3.5-9.3h1.7l3.5 9.3h-1.8zm-1.3-3.9-.9-2.5c-.1-.2-.2-.4-.3-.8-.1-.4-.2-.6-.2-.8-.1.5-.3 1.1-.5 1.7l-.8 2.4h2.7zm4.8 3.9v-9.3h1.5v8h3.9v1.3h-5.4zm19.2-4.7c0 1.5-.4 2.7-1.3 3.5s-2.1 1.2-3.7 1.2h-2.6v-9.3h2.9c1.5 0 2.6.4 3.4 1.2.9.8 1.3 1.9 1.3 3.4zm-1.6 0c0-2.2-1-3.3-3.1-3.3h-1.3v6.7h1.1c2.2 0 3.3-1.1 3.3-3.4zm9.5 4.7h-5.2v-9.3h5.2v1.3h-3.7v2.5h3.5v1.3h-3.5v2.9h3.7v1.3zm6.5-5h3.4v4.7c-.6.2-1.1.3-1.6.4-.5.1-1.1.1-1.7.1-1.4 0-2.5-.4-3.2-1.2-.8-.8-1.1-2-1.1-3.5s.4-2.7 1.3-3.5c.9-.8 2-1.3 3.5-1.3 1 0 1.9.2 2.8.6l-.5 1.3c-.8-.3-1.5-.5-2.3-.5-1 0-1.8.3-2.3.9-.6.6-.9 1.5-.9 2.6s.3 2 .8 2.6c.5.6 1.3.9 2.2.9.5 0 1-.1 1.6-.2v-2.4h-1.9v-1.5zm7.8 1.3v3.7h-1.5v-9.3h2.6c1.2 0 2.1.2 2.7.7.6.4.9 1.1.9 2 0 1.2-.6 2-1.8 2.5l2.6 4.1H642l-2.2-3.7h-1.5zm0-1.3h1.1c.7 0 1.2-.1 1.5-.4s.5-.7.5-1.2-.2-.9-.5-1.1-.9-.3-1.5-.3h-1v3zm12.7 5h-5.2v-9.3h5.2v1.3h-3.7v2.5h3.5v1.3h-3.5v2.9h3.7v1.3zm7.9 0h-5.2v-9.3h5.2v1.3h-3.7v2.5h3.5v1.3h-3.5v2.9h3.7v1.3z" class="stsvg1"/></g></g></svg>