<svg xmlns="http://www.w3.org/2000/svg" xmlns:xlink="http://www.w3.org/1999/xlink" xml:space="preserve" id="Layer_1" x="0" y="0" style="enable-background:new 0 0 309 97.5" version="1.1" viewBox="0 0 309 97.5"><style>.st0{clip-path:url(#SVGID_1_);fill:#2e3191}.st2{clip-path:url(#SVGID_2_)}.st2,.st3{fill:#2e3191}</style><defs><path id="SVGID_5_" d="M1.8 1.7h81.3v94.5H1.8z"/></defs><clipPath id="SVGID_1_"><use xlink:href="#SVGID_5_" style="overflow:visible"/></clipPath><path d="M23.9 23.7h9.3l-.1 10.8 5.7 5.7.1-16.5h4.5l4.1-4.7h-8.7v-2.7l-5.7-5.2v8l-4.4-.1z" class="st0"/><path d="M31.8 1.7c2.5 3.3 5.1 6.5 7.4 9.8.5.7.8 1.4 1.6 1.8.7.4 1.7.4 2.5.5 2.1.4 4.2.8 6.4 1.3 8.2 1.8 14.8 6.1 21 11.3 2.8 2.4 4.7 5.3 6.3 8.6 1.6 3.5 1.7 7.6 2 11.4.6 8-7.9 44.7-36.6 43.6-8-.3-27.6-21.9-30-24.9-2.3-2.9-5.1-6.1-6.5-9.6-1.1-2.7-1.4-6-.1-8.7 1.4-3 4.4-4.1 7.6-4.4 8.1-.8 15.4 2.9 22.4 6.4 1.2.6 3.3 1.5 3.4 1.3-.4-1.9-.7-2.9-1.3-4.6-.5-1.4-1.6-3.8-2.1-4.2-1.3-.9-3.5-1.7-5-2.2-2.2-.7-4.2-.9-6.5-1.2C17.5 37 6 40.6 2.9 48c-1.5 3.5-1.2 7.5-.6 11.2.7 4.1 2.7 8.1 5.4 11.3 5.7 6.8 12.4 13.1 19.6 18.5 6.3 4.8 15 9.4 23.2 6 8.1-3.4 14.7-8.8 20-15.4 5.6-6.9 9.4-15.4 11.4-23.8 2-8.5 1.8-17.9-1.6-26.2-1.6-3.8-3.5-7.8-6.1-11-2.6-3.2-5.9-5.7-9.5-7.8C57 6.3 47.9 3.7 39 2.4c-2.5-.4-4.8-.6-7.2-.7" class="st0"/><g style="clip-path:url(#SVGID_1_)"><defs><path id="SVGID_7_" d="M31.5 52h29.7v33.5H31.5z"/></defs><clipPath id="SVGID_2_"><use xlink:href="#SVGID_7_" style="overflow:visible"/></clipPath><path d="M40.9 65.3h-.6v1.6h.6v-1.6zm0 3.4h-.6v1.7h.6v-1.7zm14.8-8.6c0-.3 0-.7-.1-1v-.5l-.5.1c-4.5 1.3-6.9-.7-8.3-1.9l-.1-.1-.3-.2-.3.2-.1.2c-1.4 1.2-3.7 3.2-8.3 1.9l-.5-.1v.5c0 .3 0 .6-.1 1-.3 4.1-.8 11.1 9 17.4h.1l.2.1.2-.1h.1c9.8-6.4 9.3-13.3 9-17.5m-16.1 9.8c-.1-.1-.2-.3-.2-.4v-5h.2v5.4zm2.2-3.4v6.4c-.7-.8-1.3-1.6-1.8-2.4v-6h1.8v2zm-2.6-2.3.5-.9v-.8h.3l.1.4v.1h.7v-.1l.1-.4h.3v.8l.5.9h-2.5zm3.6 9.7-.3-.3h.3v.3zm1.9 1.6c-.2-.2-.4-.3-.6-.5v-.2h.6v.7zm0-.8h-1.1c-.2-.2-.5-.4-.7-.6h.5v-.4h.4v.3h.5v-.4h.4v1.1zm0-1.4h-2.6v-1.1h1v.5h.7v-.5h.9v1.1zm0-1.5h-2.6v-1h.3v.5h.7v-.5h.5v.5h.7v-.5h.4v1zm0-1.4h-2.6v-1.1h1.8v.5h.6v-.5h.2v1.1zm0-1.4h-2.6v-1.2h.8v.6h.7v-.6h1V69zm0-1.5h-2.6v-1.1h2.6v1.1zm0-1.4h-2.5l.9-1.1h1.6v1.1zm.5 9.8c-.1-.1-.2-.1-.3-.2V63.6h.3v12.3zM47.3 62l.9 1.2h-3.6l.9-1.2v-.9h.3l.2.5v.1h.6v-.1l.2-.5h.3l.2.9zm.2 14c-.3.2-.7.5-1.1.7l-.9-.6v-1.7h.1v.6h.4v-.6h.6v.6h.3v-.6h.5V76zm0-1.9h-1.9v-2.2h1.9v2.2zm0-2.5h-.8v-1.9h-.6v1.9h-.5v-3.8h1.9v3.8zm0-4.1h-.8v-2h-.6v2h-.5v-3.9h1.9v3.9zm.3 8.3v-2h2.4c-.7.6-1.5 1.3-2.4 2m2.7-2.4H50v-.6h-.8v.6h-1.4v-1.2h3.9l-1.2 1.2m1.4-1.6h-.7v-.6h-.8v.6h-1.2v-.6h-.8v.6h-.6v-1h4.9c-.3.3-.5.7-.8 1m1-1.4h-.3v-.7h-.8v.7h-1.5v-.7h-.8v.7h-1.6v-1.1h5.7c-.3.4-.5.8-.7 1.1m.7-1.4h-.2v-.7h-.8v.7h-1.2v-.7h-.8v.7h-1.4v-.7h-.8v.7h-.5v-1.2h6.3l-.6 1.2m.6-1.5h-1.5v-.7h-.8v.7h-1.7v-.7h-.8v.7h-1.7v-1.1h6.7c0 .4-.1.8-.2 1.1m.4-1.4h-6.7V65h1.5v-.7h1.4v.7h1.7v-.7h1.1v.7h1.2c0 .4-.1.8-.2 1.1m.2-1.4H54V64h-1.8v.7h-1V64H49v.7h-1.2v-1.1h1.1l-.2-.3-1.1-1.4v-1.1h-.9v.1l-.2.5h-.1l-.2-.5v-.1h-.9v1.1l-1.1 1.4-.2.3h.8v1.1h-1.7v.1l-.8 1v-1.2h.4l-.1-.2-.6-1.1v-1h-.9v.1l-.1.4h-.2l-.1-.4v-.1h-.9v1l-.6 1.1-.1.2h.5V69c-1.6-3.4-1.4-6.5-1.2-8.8v-.5c4.5 1.1 7-.9 8.4-2.1 1.4 1.2 3.9 3.2 8.4 2.1v.5c-.3 1.3-.2 2.8-.4 4.5" class="st2"/><path d="M32.2 68.7c0 8.8 6.4 16 14.2 16 7.8 0 14.2-7.2 14.2-16s-6.4-16-14.2-16c-7.9 0-14.2 7.2-14.2 16m14.2-15.5c7.5 0 13.7 6.9 13.7 15.4S54 84 46.4 84c-7.5 0-13.7-6.9-13.7-15.4s6.1-15.4 13.7-15.4" class="st2"/><path d="M31.5 68.7c0 9.2 6.7 16.7 14.9 16.7s14.9-7.5 14.9-16.7S54.6 52 46.4 52s-14.9 7.5-14.9 16.7m14.9-16.4c8 0 14.6 7.4 14.6 16.4s-6.5 16.4-14.6 16.4c-8 0-14.6-7.4-14.6-16.4s6.6-16.4 14.6-16.4" class="st2"/><path d="m43.1 78.8-.2-.1-.5 1.4.2.1.5-1.4zm-.7.2c.1-.2 0-.4-.3-.6l-.6-.3-.7 1.3.2.1.3-.5.4.2c.2.1.2.2.1.3l-.1.3.2.1v-.2l.1-.2c.1-.2 0-.3 0-.3.2 0 .3 0 .4-.2m-.6 0-.4-.2.2-.4.4.2.1.1v.2c0 .2-.1.2-.3.1m15.4-4.8-.5.1-2.3.5-.3-2.1-.1-.5-.3.4-2.3 3.5.1.1.1.1.2.2c-2 1.3-3.7 1.9-5.4 1.9h-.2c-1.6 0-3.4-.6-5.4-1.9l.2-.2.1-.1.1-.1-2.2-3.5-.3-.4-.1.5-.3 2.1-2.3-.5-.5-.1.3.4 1.8 2.4-.6.7-.1.1.1.1.1.1c1.2 1 4.5 3.8 9 3.8h.2c4.5 0 7.8-2.7 9-3.8l.1-.1.1-.1-.1-.1-.3-.7 1.8-2.4.3-.4zm-20.8.6 2 .4h.2V75l.3-1.8 1.7 2.6-1.4-.6h-.1l-.1.1-1.2 1.3-1.4-1.8zm4.3 1.5-.1.2c-.2-.1-.4-.3-.6-.5l.7.3zm14.6 1.5c-1.3 1.1-4.4 3.7-8.8 3.7h-.2c-4.4 0-7.5-2.6-8.8-3.7l1.7-2c2.6 2.1 5 3.1 7.1 3.1h.2c2.1 0 4.4-1 7.1-3.1l1.7 2zM52 76.3l.7-.3c-.2.2-.4.3-.6.5l-.1-.2zm2.9.4-1.2-1.3-.1-.1h-.1l-1.4.6 1.7-2.6.3 1.8v.2h.2l2-.4-1.4 1.8zm-4.8 2-.2.1.1 1.6.2-.1v-.4l.5-.2.3.3.2-.1-1.1-1.2zm0 .9V79l.4.5-.4.1zm-9.3-2-.2-.1-1 .8.4-1.2-.2-.1-.4 1.5.2.1 1.2-1zm.4.3-.2-.1-.8 1.2.2.1.8-1.2zm7.9 2.7c-.1 0-.1-.1-.1-.1v-.3c0-.2-.1-.2-.2-.2.1-.1.2-.2.1-.4 0-.1-.1-.2-.2-.3-.1-.1-.2-.1-.4-.1l-.7.1.3 1.5h.2l-.1-.6.5-.1c.2 0 .3.1.3.2s.1.3.1.4l.2-.1zm-.5-.8c0 .1-.1.1-.2.1l-.4.1-.1-.5.5-.1h.2s.1.1.1.2-.1.1-.1.2m3.6-1.4-.6.3.1.1.4-.2c.1.1.1.3.1.4 0 .1-.1.2-.2.2-.3.2-.6 0-.7-.3-.1-.2-.1-.3-.1-.5 0-.1.1-.2.2-.3.1-.1.3-.1.5 0l.2-.1c-.2-.3-.6-.2-.8-.1-.2.1-.3.2-.3.4s0 .4.1.6c.1.1.2.4.5.4.1 0 .3 0 .5-.1s.3-.3.3-.4l.1.1.1-.1-.4-.4zm-9 1.9.3-1.2-.1-.1-.4 1.4.9.3v-.2l-.7-.2zm9.6-2.2.7-.5-.1-.1-.6.5-.2-.3.7-.5-.3-.3-.9.6.9 1.2.9-.6-.1-.1-.8.5-.2-.4zm-8.3 1.1-.3 1.5h.2l.3-1.5h-.2zm3 1.5h-.9v-.5h.8V80h-.8v-.4h.9v-.2h-1.1v1.5h1.1v-.2zm-2.6-1.4v.2h.5l-.1 1.3h.2l.1-1.3h.5v-.2h-1.2z" class="st2"/></g><path d="m108.6 19.5-.1 1.5-2.8-.1H104l-.1 9.4.1 5h-2l.1-4.8-.1-9.6h-1.6l-2.9.1-.1-.2.2-1.6h10.9l.1.3zM119.7 31.5v3.9h-1.9l.1-3.7V30h-6.8v1.5l.1 3.9h-1.9l.1-3.7-.1-8.7h1.9v5.4h6.8l-.1-5.4h1.9l-.1 8.5zM131.3 33.8l.1.1-.2 1.5h-7.6l.1-3.7-.1-8.7h7.6l.1.2-.1 1.5-3.1-.1h-2.6v3.8h2.5l2.2-.1.1.2-.1 1.5-2.3-.1h-2.3V34h2.4l3.3-.2zM147.1 20l-.3 1.9-.3.1c-.5-.4-1-.7-1.5-.8-.5-.2-1.1-.3-1.6-.3-.6 0-1.2.1-1.6.4-.5.2-.8.6-1 1-.2.4-.4.8-.4 1.2 0 .5.1.8.4 1.2s.6.6 1 .9c.4.2 1 .5 1.7.9.9.4 1.6.8 2.2 1.2.5.4 1 .8 1.4 1.4.4.5.6 1.2.6 2s-.2 1.6-.7 2.3c-.4.7-1.1 1.3-1.9 1.7-.8.4-1.8.6-2.8.6-.7 0-1.4-.1-2.2-.3-.8-.2-1.5-.5-2.1-.8l.2-2 .3-.1c.6.6 1.2 1 1.9 1.3.7.3 1.4.4 2 .4.6 0 1.2-.1 1.7-.4s.9-.6 1.1-1c.3-.4.4-.9.4-1.3 0-.7-.3-1.3-.8-1.7-.5-.4-1.3-.9-2.4-1.4-.9-.4-1.6-.8-2.1-1.2-.5-.3-1-.8-1.4-1.3-.4-.5-.6-1.2-.6-2s.2-1.6.7-2.2c.4-.7 1.1-1.2 1.9-1.6s1.7-.6 2.7-.6c1-.3 2.2 0 3.5.5zM160.3 35.4h-1.9l-.3-1.3-.6-1.9h-5.6l-.7 1.8-.4 1.5h-1.9l4.8-12.5h2.2l4.4 12.4zm-3.4-4.8-2.1-5.9h-.1l-2.3 5.9h4.5zM171.3 23.7l-.4 1.7-.2.1c-.4-.3-.9-.6-1.5-.8-.5-.2-1.1-.3-1.8-.3-1.2 0-2.2.4-2.8 1.2-.7.8-1 2-1 3.5 0 1.6.3 2.8 1 3.6.6.8 1.6 1.2 2.8 1.2.6 0 1.2-.1 1.8-.3s1.2-.5 1.6-.8l.2.1-.2 1.7c-1.1.6-2.3.9-3.6.9-1.8 0-3.2-.5-4.2-1.6s-1.5-2.6-1.5-4.7c0-2 .5-3.6 1.6-4.8 1-1.1 2.5-1.7 4.4-1.7 1.6.1 2.8.4 3.8 1zM183.2 34.9v.2c-.7.2-1.3.3-1.7.4l-.3-.2c-1.3-1.9-2.2-3.4-2.9-4.5h-2.4v.6l.1 3.9h-1.9l.1-3.7-.1-8.7h4.2c1.3 0 2.3.3 3 .9.7.6 1.1 1.5 1.1 2.7 0 .8-.2 1.6-.7 2.3-.5.7-1.1 1.2-1.9 1.6 1 1.5 2.2 3 3.4 4.5zm-7.3-5.6 2.3.1c1.5-.4 2.2-1.3 2.2-2.7 0-.7-.2-1.3-.7-1.7-.4-.4-1.1-.6-2-.6h-1.9l.1 4.9zM193.7 33.8l.2.1-.2 1.5h-7.6l.1-3.7-.1-8.7h7.6l.1.2-.2 1.5-3.1-.1h-2.6v3.8h2.5l2.2-.1.1.2-.1 1.5-2.3-.1H188V34h2.4l3.3-.2zM205.8 24.3c1 1 1.5 2.5 1.5 4.4 0 2.2-.5 3.9-1.7 5-1.1 1.2-2.7 1.8-4.7 1.8h-2.1c-.8 0-1.6-.1-2.3-.1l.1-3.7-.1-8.7 4.9-.1c2-.1 3.4.4 4.4 1.4zm-1.4 8.5c.7-.8 1.1-2 1.1-3.7 0-1.6-.3-2.8-1-3.5-.7-.8-1.7-1.1-3.1-1.1-.8 0-1.8 0-2.9.1V34c.5 0 1 .1 1.5.1h1.3c1.3-.1 2.3-.5 3.1-1.3zM227.7 30.4v5h-2l.1-4.8v-2.4h-8.6v2.2l.1 5h-2l.1-4.8-.1-11.2h2l-.1 7.1h8.5l-.1-7.1h2l.1 11zM239.3 33.8l.2.1-.2 1.5h-7.6l.1-3.7-.1-8.7h7.6l.1.2-.2 1.5-3.1-.1h-2.6v3.8h2.5l2.2-.1.1.2-.1 1.5-2.3-.1h-2.3V34h2.5l3.2-.2zM252.7 35.4h-1.9l-.3-1.3-.7-1.9h-5.7l-.7 1.8-.4 1.5h-1.8L246 23h2.2l4.5 12.4zm-3.3-4.8-2.1-5.9h-.2l-2.3 5.9h4.6zM264.6 34.9v.2c-.7.2-1.3.3-1.7.4l-.3-.2c-1.3-1.9-2.2-3.4-2.9-4.5h-2.4v4.5h-1.8l.1-3.7-.1-8.7h4.3c1.3 0 2.3.3 3 .9.7.6 1.1 1.5 1.1 2.7 0 .8-.2 1.6-.7 2.3-.5.7-1.1 1.2-1.9 1.6 1 1.5 2.1 3 3.3 4.5zm-7.3-5.6 2.3.1c1.5-.4 2.2-1.3 2.2-2.7 0-.7-.2-1.3-.7-1.7-.4-.4-1.1-.6-2-.6h-1.9l.1 4.9zM275.6 23.1l-.1 1.6-2.3-.2H272l-.1 7 .1 3.9h-2l.1-3.7v-7.2h-1.2l-2.4.2-.2-.2.2-1.5h9.1v.1zM107.1 42l-.3 1.9-.3.1c-.5-.4-1-.7-1.5-.8-.5-.2-1.1-.3-1.6-.3-.6 0-1.2.1-1.6.4-.5.2-.8.6-1 1-.2.4-.4.8-.4 1.2 0 .5.1.8.4 1.2s.6.6 1 .9c.4.2 1 .5 1.7.9.9.4 1.6.8 2.2 1.2.5.4 1 .8 1.4 1.4.4.5.6 1.2.6 2s-.2 1.6-.7 2.3c-.4.7-1.1 1.3-1.9 1.7-.8.4-1.8.6-2.8.6-.7 0-1.4-.1-2.2-.3-.8-.2-1.5-.5-2.1-.8l.2-2 .3-.1c.6.6 1.2 1 1.9 1.3.7.3 1.4.4 2 .4.6 0 1.2-.1 1.7-.4s.9-.6 1.1-1c.3-.4.4-.9.4-1.3 0-.7-.3-1.3-.8-1.7-.5-.4-1.3-.9-2.4-1.4-.9-.4-1.6-.8-2.1-1.2-.5-.3-1-.8-1.4-1.3-.4-.5-.6-1.2-.6-2s.2-1.6.7-2.2c.4-.7 1.1-1.2 1.9-1.6s1.7-.6 2.7-.6c1.1-.3 2.3 0 3.5.5zM119.4 45.7l-.4 1.7-.2.1c-.4-.3-.9-.6-1.5-.8-.5-.2-1.1-.3-1.8-.3-1.2 0-2.2.4-2.8 1.2-.7.8-1 2-1 3.5 0 1.6.3 2.8 1 3.6.6.8 1.6 1.2 2.8 1.2.6 0 1.2-.1 1.8-.3s1.2-.5 1.6-.8l.2.1-.2 1.7c-1.1.6-2.3.9-3.6.9-1.8 0-3.2-.5-4.2-1.6s-1.5-2.6-1.5-4.7c0-2 .5-3.6 1.6-4.8 1-1.1 2.5-1.7 4.4-1.7 1.6.1 2.8.4 3.8 1zM132.5 53.5v3.9h-1.9l.1-3.8v-1.7h-6.8v1.5l.1 3.9h-1.9l.1-3.8-.1-8.7h1.9v5.4h6.8l-.1-5.4h1.9l-.1 8.7zM145.9 46.4c1 1.1 1.5 2.6 1.5 4.5 0 2.1-.5 3.8-1.6 4.9s-2.5 1.7-4.5 1.7c-1.8 0-3.2-.5-4.2-1.6s-1.5-2.6-1.5-4.7.5-3.7 1.6-4.8c1-1.1 2.5-1.7 4.4-1.7 1.9.1 3.3.6 4.3 1.7zm-7.3 1.1c-.6.8-1 1.9-1 3.6 0 1.7.3 3 .9 3.8.6.8 1.6 1.2 2.9 1.2 1.3 0 2.3-.4 3-1.1s1-2 1-3.6c0-1.7-.3-2.9-1-3.7-.6-.8-1.6-1.2-2.9-1.2-1.3-.2-2.3.2-2.9 1zM159.9 46.4c1 1.1 1.5 2.6 1.5 4.5 0 2.1-.5 3.8-1.6 4.9s-2.5 1.7-4.5 1.7c-1.8 0-3.2-.5-4.2-1.6s-1.5-2.6-1.5-4.7.5-3.7 1.6-4.8c1-1.1 2.5-1.7 4.4-1.7 1.9.1 3.3.6 4.3 1.7zm-7.3 1.1c-.6.8-1 1.9-1 3.6 0 1.7.3 3 .9 3.8.6.8 1.6 1.2 2.9 1.2 1.3 0 2.3-.4 3-1.1s1-2 1-3.6c0-1.7-.3-2.9-1-3.7-.6-.8-1.6-1.2-2.9-1.2-1.3-.2-2.3.2-2.9 1zM171.2 56l-.1 1.4h-6.6l.1-3.8-.1-8.7h1.9l-.1 8.5v2.3h4.8l.1.3zM187.5 46.4c1 1.1 1.5 2.6 1.5 4.5 0 2.1-.5 3.8-1.6 4.9-1 1.2-2.5 1.7-4.5 1.7-1.8 0-3.2-.5-4.2-1.6s-1.5-2.6-1.5-4.7.5-3.7 1.6-4.8c1-1.1 2.5-1.7 4.4-1.7 1.9.1 3.3.6 4.3 1.7zm-7.3 1.1c-.6.8-1 1.9-1 3.6 0 1.7.3 3 .9 3.8.6.8 1.6 1.2 2.9 1.2 1.3 0 2.3-.4 3-1.1.6-.8 1-2 1-3.6 0-1.7-.3-2.9-1-3.7-.6-.8-1.6-1.2-2.9-1.2s-2.2.2-2.9 1zM193.9 46.4v4.1h2.1l2.2-.1.1.2-.1 1.4h-4.4v5.3H192V44.8h7.2l.1.2-.1 1.5-3.1-.1h-2.2zM222.3 57.4h-1.8l-.4-4.9-.9-8h-.2l-4.5 11H213l-4.2-11h-.2l-.8 7.8-.4 5h-1.7l1.7-16h2.3l.8 2.5 3.5 9.1h.2l3.6-9.3.8-2.3h2.2l1.5 16.1zM234.9 46.4c1 1.1 1.5 2.6 1.5 4.5 0 2.1-.5 3.8-1.6 4.9s-2.5 1.7-4.5 1.7c-1.8 0-3.2-.5-4.2-1.6s-1.5-2.6-1.5-4.7.5-3.7 1.6-4.8 2.5-1.7 4.5-1.7c1.9.1 3.3.6 4.2 1.7zm-7.3 1.1c-.6.8-1 1.9-1 3.6 0 1.7.3 3 1 3.8.6.8 1.6 1.2 2.9 1.2 1.3 0 2.3-.4 3-1.1.6-.8 1-2 1-3.6 0-1.7-.3-2.9-1-3.7s-1.6-1.2-2.9-1.2-2.3.2-3 1zM249.9 53.6v3.7h-2l-6.5-9.5h-.1v9.5h-1.7l.1-3.7v-8.8h2l6.5 9.5h.2v-9.4l1.7-.1-.2 8.8zM262 45.1l-.1 1.6-2.3-.2h-1.2l-.1 7 .1 3.9h-1.9l.1-3.8v-7.2h-1.3l-2.4.2-.2-.2.2-1.5h9.1v.2zM273.8 56.9v.2c-.7.2-1.3.3-1.7.4l-.3-.2c-1.3-1.9-2.2-3.4-2.9-4.5h-2.4v4.5h-1.8l.1-3.8-.1-8.7h4.2c1.3 0 2.3.3 3 .9.7.6 1.1 1.5 1.1 2.7 0 .8-.2 1.6-.7 2.3-.5.7-1.1 1.2-1.9 1.6 1.1 1.6 2.2 3.1 3.4 4.6zm-7.2-5.6 2.3.1c1.5-.4 2.2-1.3 2.2-2.7 0-.7-.2-1.3-.7-1.7-.4-.4-1.1-.6-2-.6h-1.9l.1 4.9zM284.3 55.8l.2.1-.2 1.5h-7.6l.1-3.8-.1-8.7h7.6l.1.2-.2 1.5-3.1-.1h-2.6v3.8h2.5l2.2-.1.1.2-.1 1.5-2.3-.1h-2.3v4.1h2.5l3.2-.1zM297.7 57.4h-1.9l-.3-1.3-.7-1.9h-5.7l-.7 1.8-.4 1.5h-1.8L291 45h2.2l4.5 12.4zm-3.3-4.8-2.1-5.9h-.2l-2.3 5.9h4.6zM307.2 56l-.1 1.4h-6.6l.1-3.8-.1-8.7h1.9l-.1 8.5v2.3h4.8l.1.3zM104.8 77.1l.1.1-.1 1.2h-6.1l.1-3-.1-7h6.2l.1.1-.1 1.2-2.5-.1h-2.1v3.1h2l1.8-.1.1.1-.1 1.2-1.9-.1h-1.9v3.3h4.5zM113.1 68.7l-.3 1.5-.2.1c-.4-.3-.7-.5-1.1-.7-.3-.1-.7-.2-1.1-.2-.6 0-1 .2-1.4.5-.3.3-.5.7-.5 1s.2.7.5 1c.3.2.8.5 1.5.8.6.3 1.1.5 1.4.7.4.2.7.5.9.9.3.4.4.8.4 1.3s-.1 1-.4 1.5c-.3.5-.7.8-1.2 1.1s-1.2.4-2 .4c-.5 0-1-.1-1.5-.2s-1-.3-1.4-.5l.2-1.6.2-.1c.4.4.8.7 1.3.9s1 .3 1.4.3c.6 0 1-.2 1.4-.5.4-.3.5-.7.5-1.1 0-.4-.2-.7-.5-1-.3-.2-.8-.5-1.5-.8-.6-.3-1.1-.5-1.4-.7-.4-.2-.7-.5-.9-.9s-.4-.8-.4-1.3.1-1 .4-1.5c.3-.4.7-.8 1.2-1 .5-.3 1.2-.4 1.9-.4.9.1 1.8.2 2.6.5zM122.6 68.5l-.1 1.3-1.9-.1h-1l-.1 5.7.1 3.2h-1.5l.1-3v-5.8h-1l-1.9.1-.1-.1.1-1.3h7.3zM125 76.9c.2.2.2.4.2.7 0 .3-.1.5-.3.7-.2.2-.4.3-.7.3-.3 0-.5-.1-.7-.2-.2-.2-.2-.4-.2-.7 0-.3.1-.5.3-.7.2-.2.4-.3.7-.3.3 0 .5 0 .7.2zM133.7 70.2l-1.7.9-.2-1 2.1-1.1h1.1v9.5h-1.2v-8.3zM139.3 73.5c-1.1-.5-1.5-1.3-1.5-2.1 0-1.5 1.3-2.5 2.9-2.5 1.8 0 2.8 1.1 2.8 2.3 0 .8-.4 1.7-1.6 2.2 1.2.5 1.9 1.3 1.9 2.4 0 1.7-1.4 2.8-3.2 2.8-2 0-3.2-1.2-3.2-2.5.1-1.3.8-2.1 1.9-2.6zm3.3 2.5c0-1.1-.8-1.7-2.1-2.1-1.1.3-1.7 1.1-1.7 2 0 .9.7 1.8 1.9 1.8 1.1 0 1.9-.8 1.9-1.7zm-3.6-4.8c0 .9.7 1.5 1.8 1.7.8-.3 1.4-.9 1.4-1.7 0-.8-.5-1.5-1.6-1.5-1 0-1.6.7-1.6 1.5zM150.5 69.9c-.3 0-.6 0-1 .1-2 .3-3.1 1.8-3.3 3.3.5-.6 1.3-1.1 2.3-1.1 1.7 0 2.9 1.2 2.9 3.1 0 1.7-1.2 3.3-3.2 3.3s-3.3-1.6-3.3-4c0-1.9.7-3.3 1.6-4.3.8-.8 1.8-1.3 3-1.4.4-.1.7-.1.9-.1v1.1zm-.3 5.4c0-1.4-.8-2.2-2-2.2-.8 0-1.5.5-1.8 1.2-.1.1-.1.3-.1.6 0 1.6.7 2.7 2.1 2.7 1 0 1.8-.9 1.8-2.3zM154.5 70.2l-1.7.9-.2-1 2.1-1.1h1.1v9.5h-1.2v-8.3z" class="st3"/></svg>